<svg width="12" height="12" viewBox="0 0 12 12" fill="none" xmlns="http://www.w3.org/2000/svg">
<g clip-path="url(#clip0_576_3832)">
<path d="M10.2858 8.14307V7.7145C10.2858 7.60083 10.3309 7.49182 10.4113 7.41145C10.4916 7.33108 10.6007 7.28592 10.7143 7.28592C10.828 7.28592 10.937 7.33108 11.0174 7.41145C11.0977 7.49182 11.1429 7.60083 11.1429 7.7145V12.0002H12V7.7145C11.9997 7.37361 11.8641 7.04678 11.6231 6.80573C11.382 6.56469 11.0552 6.42912 10.7143 6.42878C10.4929 6.43019 10.2758 6.48943 10.0843 6.60064C9.91084 6.31982 9.63454 6.11786 9.31432 6.0378C8.99409 5.95774 8.65526 6.00592 8.37004 6.17207C8.25475 5.98853 8.09484 5.8372 7.90523 5.7322C7.71562 5.6272 7.50249 5.57196 7.28575 5.57164C7.13939 5.57314 6.99439 5.59997 6.85718 5.65092V3.42878C6.85718 3.08779 6.72172 2.76076 6.4806 2.51964C6.23948 2.27853 5.91246 2.14307 5.57146 2.14307C5.23047 2.14307 4.90345 2.27853 4.66233 2.51964C4.42121 2.76076 4.28575 3.08779 4.28575 3.42878V8.18807L3.32789 7.53235V7.53278C3.06618 7.34154 2.74187 7.25625 2.41993 7.29399C2.09799 7.33174 1.8022 7.48973 1.59182 7.73631C1.38143 7.9829 1.27199 8.29988 1.2854 8.62374C1.29882 8.94761 1.43412 9.25444 1.66418 9.48278L4.42418 12.0002L5.00146 11.3668L2.26804 8.87335C2.22828 8.83382 2.19675 8.78681 2.17527 8.73502C2.15379 8.68323 2.14278 8.6277 2.14289 8.57164C2.14289 8.49205 2.16506 8.41403 2.2069 8.34632C2.24874 8.27862 2.30861 8.22391 2.3798 8.18831C2.45099 8.15272 2.53068 8.13765 2.60995 8.1448C2.68922 8.15195 2.76493 8.18103 2.82861 8.22878L5.14289 9.81235V3.42878C5.14289 3.31512 5.18805 3.20611 5.26842 3.12574C5.34879 3.04536 5.4578 3.00021 5.57146 3.00021C5.68513 3.00021 5.79414 3.04536 5.87451 3.12574C5.95488 3.20611 6.00004 3.31512 6.00004 3.42878V8.14307H6.85718V6.85735C6.85718 6.74369 6.90233 6.63468 6.9827 6.55431C7.06308 6.47393 7.17209 6.42878 7.28575 6.42878C7.39941 6.42878 7.50842 6.47393 7.5888 6.55431C7.66917 6.63468 7.71432 6.74369 7.71432 6.85735V8.14307H8.57146V7.28592C8.57146 7.17226 8.61662 7.06325 8.69699 6.98288C8.77736 6.9025 8.88637 6.85735 9.00004 6.85735C9.1137 6.85735 9.22271 6.9025 9.30308 6.98288C9.38346 7.06325 9.42861 7.17226 9.42861 7.28592V8.14307H10.2858Z" fill="white"/>
<path d="M11.1429 4.28571H8.57143V3.42857H11.1429V0.857143H0.857143V3.42857H2.57143V4.28571H0.857143C0.629884 4.28549 0.411998 4.19511 0.251302 4.03441C0.0906056 3.87372 0.000226919 3.65583 0 3.42857V0.857143C0.000226919 0.629884 0.0906056 0.411998 0.251302 0.251302C0.411998 0.0906056 0.629884 0.000226919 0.857143 0H11.1429C11.3701 0.000226919 11.588 0.0906056 11.7487 0.251302C11.9094 0.411998 11.9998 0.629884 12 0.857143V3.42857C11.9998 3.65583 11.9094 3.87372 11.7487 4.03441C11.588 4.19511 11.3701 4.28549 11.1429 4.28571Z" fill="white"/>
</g>
<defs>
<clipPath id="clip0_576_3832">
<rect width="12" height="12" fill="white"/>
</clipPath>
</defs>
</svg>
