<svg width="12" height="16" viewBox="0 0 12 16" fill="none" xmlns="http://www.w3.org/2000/svg">
<path d="M6.16411 3.10214C6.15013 3.07173 6.12772 3.04597 6.09954 3.0279C6.07136 3.00984 6.03859 3.00024 6.00511 3.00024C5.97164 3.00024 5.93887 3.00984 5.91069 3.0279C5.88251 3.04597 5.8601 3.07173 5.84611 3.10214L5.13011 4.65514C5.11754 4.68219 5.09826 4.70557 5.07411 4.72308C5.04996 4.74058 5.02173 4.75162 4.99211 4.75514L3.29311 4.95714C3.25999 4.96115 3.22869 4.97456 3.20293 4.99577C3.17717 5.01698 3.15801 5.04511 3.1477 5.07686C3.1374 5.1086 3.13639 5.14262 3.14479 5.17492C3.15319 5.20722 3.17065 5.23644 3.19511 5.25914L4.45111 6.42014C4.47319 6.44048 4.48965 6.46616 4.49894 6.49471C4.50822 6.52325 4.51 6.55371 4.50411 6.58314L4.17011 8.26014C4.14111 8.40714 4.29711 8.52014 4.42711 8.44714L5.92011 7.61214C5.94612 7.59769 5.97537 7.59011 6.00511 7.59011C6.03486 7.59011 6.06411 7.59769 6.09011 7.61214L7.58311 8.44714C7.71311 8.52014 7.86911 8.40714 7.84011 8.26014L7.50711 6.58314C7.50123 6.55371 7.50301 6.52325 7.51229 6.49471C7.52157 6.46616 7.53804 6.44048 7.56011 6.42014L8.81511 5.25914C8.83957 5.23644 8.85703 5.20722 8.86543 5.17492C8.87383 5.14262 8.87282 5.1086 8.86252 5.07686C8.85222 5.04511 8.83306 5.01698 8.8073 4.99577C8.78154 4.97456 8.75024 4.96115 8.71711 4.95714L7.01911 4.75514C6.98932 4.75178 6.96089 4.74081 6.93655 4.7233C6.91221 4.70579 6.89278 4.68232 6.88011 4.65514L6.16411 3.10214Z" fill="#606060"/>
<path d="M12 6.00014C12.0009 6.84445 11.8232 7.6794 11.4785 8.45014C11.1338 9.22088 10.6299 9.90997 10 10.4721V15.5001C9.99997 15.5877 9.97695 15.6737 9.93324 15.7496C9.88953 15.8255 9.82666 15.8885 9.75093 15.9325C9.67519 15.9764 9.58925 15.9997 9.50169 16C9.41413 16.0003 9.32803 15.9776 9.252 15.9341L6 14.0761L2.748 15.9341C2.67197 15.9776 2.58587 16.0003 2.49831 16C2.41075 15.9997 2.32481 15.9764 2.24907 15.9325C2.17334 15.8885 2.11047 15.8255 2.06676 15.7496C2.02305 15.6737 2.00003 15.5877 2 15.5001V10.4721C1.25402 9.80491 0.68679 8.96167 0.349972 8.0192C0.0131547 7.07674 -0.0825531 6.06499 0.0715641 5.07608C0.225681 4.08717 0.624727 3.15253 1.23236 2.35725C1.84 1.56197 2.63693 0.931331 3.55057 0.522748C4.46422 0.114166 5.46556 -0.0593765 6.46341 0.0179242C7.46127 0.0952249 8.42393 0.420913 9.26375 0.965331C10.1036 1.50975 10.7939 2.2556 11.2718 3.13497C11.7497 4.01434 12 4.99929 12 6.00014ZM6 12.0001C4.94669 12.0017 3.91171 11.7246 3 11.1971V14.6391L5.752 13.0661C5.82753 13.023 5.91301 13.0003 6 13.0003C6.08699 13.0003 6.17247 13.023 6.248 13.0661L9 14.6401V11.1981C8.08822 11.7253 7.05323 12.002 6 12.0001ZM6 11.0001C7.32608 11.0001 8.59785 10.4734 9.53553 9.53567C10.4732 8.59799 11 7.32622 11 6.00014C11 4.67406 10.4732 3.40229 9.53553 2.4646C8.59785 1.52692 7.32608 1.00014 6 1.00014C4.67392 1.00014 3.40215 1.52692 2.46447 2.4646C1.52679 3.40229 1 4.67406 1 6.00014C1 7.32622 1.52679 8.59799 2.46447 9.53567C3.40215 10.4734 4.67392 11.0001 6 11.0001Z" fill="#606060"/>
</svg>
