<svg width="28" height="30" viewBox="0 0 28 30" fill="none" xmlns="http://www.w3.org/2000/svg">
<path d="M24.1668 19.2292C25.8007 19.2292 27.1252 17.9047 27.1252 16.2708C27.1252 14.637 25.8007 13.3125 24.1668 13.3125C22.533 13.3125 21.2085 14.637 21.2085 16.2708C21.2085 17.9047 22.533 19.2292 24.1668 19.2292Z" fill="#A0A0A0"/>
<path d="M3.45833 19.2292C5.09218 19.2292 6.41667 17.9047 6.41667 16.2708C6.41667 14.637 5.09218 13.3125 3.45833 13.3125C1.82449 13.3125 0.5 14.637 0.5 16.2708C0.5 17.9047 1.82449 19.2292 3.45833 19.2292Z" fill="#A0A0A0"/>
<path d="M24.9062 11.0938C24.9062 1.70113 2.71875 4.95529 2.71875 11.0938V18.4897C2.71875 24.6282 7.67396 29.5834 13.8125 29.5834C19.951 29.5834 24.9062 24.6282 24.9062 18.4897V11.0938Z" fill="#A0A0A0"/>
<path d="M13.8123 0C7.304 0 1.979 5.325 1.979 11.8333V14.4219L3.53213 14.8656V11.0938L17.954 6.43437L24.0186 11.0938V14.8656L25.5717 14.4219V11.8333C25.6457 6.28646 21.6519 0 13.8123 0Z" fill="#A0A0A0"/>
<path d="M20.1728 10.7979L12.5551 18.4156L8.93118 14.7916L6.86035 16.8624L12.5551 22.5572L22.2437 12.8687L20.1728 10.7979Z" fill="white"/>
</svg>
