<svg width="15" height="22" viewBox="0 0 15 22" fill="none" xmlns="http://www.w3.org/2000/svg">
<path d="M5.94719 11.007L13.7733 3.71013L13.7739 3.70956C14.1855 3.32453 14.4119 2.79674 14.3459 2.24004C14.2804 1.688 13.9409 1.21801 13.4649 0.910396C12.9903 0.603654 12.3968 0.465483 11.8132 0.507324C11.2302 0.549117 10.6689 0.770002 10.2619 1.15068L10.2621 1.15045L10.6032 1.51602L10.2617 1.15089L5.94719 11.007ZM5.94719 11.007L13.5012 18.2948C13.7948 18.5701 13.998 18.9212 14.0615 19.313C14.1256 19.7084 14.0403 20.1035 13.8308 20.446C13.6232 20.7855 13.3066 21.0536 12.9355 21.2335C12.565 21.4132 12.1445 21.5033 11.7223 21.4999C11.3916 21.5004 11.0623 21.4437 10.7572 21.3312C10.4515 21.2184 10.1724 21.0503 9.94495 20.8323L9.94356 20.831L1.07431 12.264M5.94719 11.007L1.07431 12.264M1.07431 12.264L1.41791 11.9008M1.07431 12.264L1.41791 11.9008M1.41791 11.9008C1.14771 11.6452 1 11.3246 1 10.9937C1 10.6628 1.14771 10.3422 1.41791 10.0866L10.6032 1.51603C10.9151 1.22432 11.3631 1.04087 11.8489 1.00604C12.3347 0.97122 12.8183 1.08787 13.1935 1.33033C13.5687 1.57279 13.8046 1.9212 13.8494 2.29892C13.8942 2.67663 13.7441 3.05271 13.4323 3.34442L1.41791 11.9008ZM1.41791 11.9008L1.07054 12.2604L1.07226 12.262L1.41791 11.9008Z" fill="#202020" stroke="white"/>
</svg>
