<svg width="20" height="22" viewBox="0 0 20 22" fill="none" xmlns="http://www.w3.org/2000/svg">
<path d="M19.0946 17.3606C18.4706 16.8043 17.9243 16.1667 17.4705 15.4647C16.975 14.4958 16.678 13.4376 16.5969 12.3523V9.15588C16.6012 7.45127 15.9829 5.80377 14.8581 4.52292C13.7333 3.24206 12.1796 2.41602 10.4887 2.19999V1.36529C10.4887 1.13619 10.3977 0.916471 10.2357 0.754473C10.0737 0.592475 9.85397 0.501465 9.62487 0.501465C9.39577 0.501465 9.17606 0.592475 9.01406 0.754473C8.85206 0.916471 8.76105 1.13619 8.76105 1.36529V2.21294C7.08533 2.44454 5.55033 3.27557 4.44033 4.55212C3.33034 5.82867 2.72058 7.46423 2.72399 9.15588V12.3523C2.64295 13.4376 2.34596 14.4958 1.85046 15.4647C1.40456 16.165 0.867058 16.8026 0.252227 17.3606C0.183206 17.4212 0.127889 17.4959 0.0899555 17.5795C0.0520224 17.6632 0.0323429 17.754 0.0322266 17.8459V18.7259C0.0322266 18.8975 0.100399 19.0621 0.221746 19.1834C0.343093 19.3048 0.507675 19.3729 0.679286 19.3729H18.6675C18.8391 19.3729 19.0037 19.3048 19.1251 19.1834C19.2464 19.0621 19.3146 18.8975 19.3146 18.7259V17.8459C19.3145 17.754 19.2948 17.6632 19.2569 17.5795C19.2189 17.4959 19.1636 17.4212 19.0946 17.3606ZM1.37811 18.0788C1.98014 17.4972 2.5102 16.8455 2.95693 16.1376C3.58109 14.9674 3.94527 13.6762 4.02458 12.3523V9.15588C3.99892 8.39755 4.12612 7.64181 4.39861 6.93366C4.6711 6.22551 5.0833 5.57944 5.61068 5.03392C6.13806 4.48839 6.76982 4.05457 7.46834 3.75829C8.16687 3.462 8.91787 3.30932 9.67664 3.30932C10.4354 3.30932 11.1864 3.462 11.8849 3.75829C12.5835 4.05457 13.2152 4.48839 13.7426 5.03392C14.27 5.57944 14.6822 6.22551 14.9547 6.93366C15.2272 7.64181 15.3544 8.39755 15.3287 9.15588V12.3523C15.408 13.6762 15.7722 14.9674 16.3963 16.1376C16.8431 16.8455 17.3731 17.4972 17.9752 18.0788H1.37811Z" fill="#31393C"/>
<path d="M9.7058 21.5341C10.1134 21.5247 10.5046 21.3715 10.8101 21.1015C11.1156 20.8315 11.3158 20.4622 11.3752 20.0588H7.97168C8.03281 20.4732 8.24236 20.8512 8.56135 21.1225C8.88033 21.3939 9.28704 21.5402 9.7058 21.5341Z" fill="#31393C"/>
</svg>
