<svg width="26" height="29" viewBox="0 0 26 29" fill="none" xmlns="http://www.w3.org/2000/svg">
<path d="M22.6668 18.4167C24.2316 18.4167 25.5002 17.1481 25.5002 15.5833C25.5002 14.0185 24.2316 12.75 22.6668 12.75C21.102 12.75 19.8335 14.0185 19.8335 15.5833C19.8335 17.1481 21.102 18.4167 22.6668 18.4167Z" fill="#A0A0A0"/>
<path d="M2.83333 18.4167C4.39814 18.4167 5.66667 17.1481 5.66667 15.5833C5.66667 14.0185 4.39814 12.75 2.83333 12.75C1.26853 12.75 0 14.0185 0 15.5833C0 17.1481 1.26853 18.4167 2.83333 18.4167Z" fill="#A0A0A0"/>
<path d="M23.375 10.6249C23.375 1.62905 2.125 4.74571 2.125 10.6249V17.7082C2.125 23.5874 6.87083 28.3332 12.75 28.3332C18.6292 28.3332 23.375 23.5874 23.375 17.7082V10.6249Z" fill="#A0A0A0"/>
<path d="M12.7498 0C6.5165 0 1.4165 5.1 1.4165 11.3333V13.8125L2.904 14.2375V10.625L16.7165 6.1625L22.5248 10.625V14.2375L24.0123 13.8125V11.3333C24.0832 6.02083 20.2582 0 12.7498 0Z" fill="#A0A0A0"/>
<path d="M7.13818 11.9778L9.14135 9.97461L18.4064 19.2396L16.4025 21.2421L7.13818 11.9778Z" fill="white"/>
<path d="M16.3556 9.97119L18.3588 11.9744L9.09377 21.2394L7.09131 19.2355L16.3556 9.97119Z" fill="white"/>
</svg>
