<svg width="52" height="52" viewBox="0 0 52 52" fill="none" xmlns="http://www.w3.org/2000/svg">
<g filter="url(#filter0_d_8238_29015)">
<circle cx="26" cy="22" r="21.5" fill="url(#paint0_linear_8238_29015)" stroke="white"/>
<path fill-rule="evenodd" clip-rule="evenodd" d="M25.3712 10.0571C25.6491 10.0571 25.9155 10.1675 26.112 10.364C26.3085 10.5604 26.4189 10.8269 26.4189 11.1047V21.5809H36.895C37.1729 21.5809 37.4394 21.6913 37.6358 21.8878C37.8323 22.0842 37.9427 22.3507 37.9427 22.6286C37.9427 22.9064 37.8323 23.1729 37.6358 23.3693C37.4394 23.5658 37.1729 23.6762 36.895 23.6762H26.4189V34.1524C26.4189 34.4302 26.3085 34.6967 26.112 34.8931C25.9155 35.0896 25.6491 35.2 25.3712 35.2C25.0934 35.2 24.8269 35.0896 24.6305 34.8931C24.434 34.6967 24.3236 34.4302 24.3236 34.1524V23.6762H13.8474C13.5696 23.6762 13.3031 23.5658 13.1066 23.3693C12.9102 23.1729 12.7998 22.9064 12.7998 22.6286C12.7998 22.3507 12.9102 22.0842 13.1066 21.8878C13.3031 21.6913 13.5696 21.5809 13.8474 21.5809H24.3236V11.1047C24.3236 10.8269 24.434 10.5604 24.6305 10.364C24.8269 10.1675 25.0934 10.0571 25.3712 10.0571Z" fill="white"/>
</g>
<defs>
<filter id="filter0_d_8238_29015" x="0" y="0" width="52" height="52" filterUnits="userSpaceOnUse" color-interpolation-filters="sRGB">
<feFlood flood-opacity="0" result="BackgroundImageFix"/>
<feColorMatrix in="SourceAlpha" type="matrix" values="0 0 0 0 0 0 0 0 0 0 0 0 0 0 0 0 0 0 127 0" result="hardAlpha"/>
<feOffset dy="4"/>
<feGaussianBlur stdDeviation="2"/>
<feComposite in2="hardAlpha" operator="out"/>
<feColorMatrix type="matrix" values="0 0 0 0 0 0 0 0 0 0 0 0 0 0 0 0 0 0 0.25 0"/>
<feBlend mode="normal" in2="BackgroundImageFix" result="effect1_dropShadow_8238_29015"/>
<feBlend mode="normal" in="SourceGraphic" in2="effect1_dropShadow_8238_29015" result="shape"/>
</filter>
<linearGradient id="paint0_linear_8238_29015" x1="26" y1="0" x2="26" y2="44" gradientUnits="userSpaceOnUse">
<stop stop-color="#FDCA40"/>
<stop offset="0.0001" stop-color="#F79824"/>
<stop offset="0.479167" stop-color="#FDCA40"/>
<stop offset="1" stop-color="#F79824"/>
</linearGradient>
</defs>
</svg>
