<svg width="12" height="8" viewBox="0 0 12 8" fill="none" xmlns="http://www.w3.org/2000/svg">
<g clip-path="url(#clip0_576_3824)">
<path d="M0.375 0C0.275544 0 0.180161 0.0395089 0.109835 0.109835C0.0395089 0.180161 0 0.275544 0 0.375C0 0.474456 0.0395089 0.569839 0.109835 0.640165C0.180161 0.710491 0.275544 0.75 0.375 0.75H11.625C11.7245 0.75 11.8198 0.710491 11.8902 0.640165C11.9605 0.569839 12 0.474456 12 0.375C12 0.275544 11.9605 0.180161 11.8902 0.109835C11.8198 0.0395089 11.7245 0 11.625 0H0.375Z" fill="#606060"/>
<path d="M0.375 2.25C0.275544 2.25 0.180161 2.28951 0.109835 2.35983C0.0395089 2.43016 0 2.52554 0 2.625C0 2.72446 0.0395089 2.81984 0.109835 2.89017C0.180161 2.96049 0.275544 3 0.375 3H11.625C11.7245 3 11.8198 2.96049 11.8902 2.89017C11.9605 2.81984 12 2.72446 12 2.625C12 2.52554 11.9605 2.43016 11.8902 2.35983C11.8198 2.28951 11.7245 2.25 11.625 2.25H0.375Z" fill="#606060"/>
<path d="M0 4.875C0 4.77554 0.0395089 4.68016 0.109835 4.60983C0.180161 4.53951 0.275544 4.5 0.375 4.5H11.625C11.7245 4.5 11.8198 4.53951 11.8902 4.60983C11.9605 4.68016 12 4.77554 12 4.875C12 4.97446 11.9605 5.06984 11.8902 5.14017C11.8198 5.21049 11.7245 5.25 11.625 5.25H0.375C0.275544 5.25 0.180161 5.21049 0.109835 5.14017C0.0395089 5.06984 0 4.97446 0 4.875Z" fill="#606060"/>
<path d="M0.375 6.75C0.275544 6.75 0.180161 6.78951 0.109835 6.85983C0.0395089 6.93016 0 7.02554 0 7.125C0 7.22446 0.0395089 7.31984 0.109835 7.39017C0.180161 7.46049 0.275544 7.5 0.375 7.5H7.875C7.97446 7.5 8.06984 7.46049 8.14017 7.39017C8.21049 7.31984 8.25 7.22446 8.25 7.125C8.25 7.02554 8.21049 6.93016 8.14017 6.85983C8.06984 6.78951 7.97446 6.75 7.875 6.75H0.375Z" fill="#606060"/>
</g>
<defs>
<clipPath id="clip0_576_3824">
<rect width="12" height="7.5" fill="white"/>
</clipPath>
</defs>
</svg>
