<svg width="16" height="16" viewBox="0 0 16 16" fill="none" xmlns="http://www.w3.org/2000/svg">
<path d="M4.57573 11.5699L5.98445 11.1635L14.4664 2.57999C14.5333 2.51143 14.5705 2.4193 14.5701 2.32351C14.5696 2.22772 14.5315 2.13594 14.464 2.06802L13.956 1.55445C13.9232 1.52072 13.8839 1.49386 13.8406 1.47546C13.7973 1.45705 13.7508 1.44745 13.7037 1.44723C13.6566 1.447 13.61 1.45616 13.5665 1.47415C13.523 1.49215 13.4836 1.51863 13.4504 1.55205L4.99091 10.1131L4.57493 11.5691L4.57573 11.5699ZM14.9615 0.536905L15.4695 1.05128C16.1703 1.76083 16.1767 2.90557 15.4823 3.60793L6.74201 12.4538L3.73098 13.321C3.54715 13.3724 3.35041 13.3488 3.18394 13.2554C3.01747 13.162 2.89487 13.0063 2.84303 12.8226C2.80446 12.6905 2.80391 12.5502 2.84143 12.4178L3.71738 9.34599L12.4345 0.523306C12.6002 0.356402 12.7976 0.224173 13.015 0.13433C13.2323 0.0444882 13.4655 -0.00116866 13.7007 2.2729e-05C13.9359 0.00121412 14.1685 0.0492299 14.385 0.14127C14.6015 0.233309 14.7975 0.367531 14.9615 0.536105V0.536905ZM5.74686 1.45925C6.14364 1.45925 6.46522 1.78483 6.46522 2.18641C6.46585 2.28134 6.44777 2.37546 6.412 2.46339C6.37623 2.55133 6.32348 2.63135 6.25676 2.69888C6.19005 2.76642 6.11067 2.82014 6.02318 2.85698C5.93569 2.89381 5.84179 2.91304 5.74686 2.91357H2.87343C2.07988 2.91357 1.43672 3.56473 1.43672 4.36708V13.0914C1.43672 13.8945 2.07988 14.5457 2.87343 14.5457H11.4937C12.2873 14.5457 12.9312 13.8945 12.9312 13.0914V10.1835C12.9312 9.78196 13.2528 9.45638 13.6496 9.45638C14.0464 9.45638 14.368 9.78196 14.368 10.1843V13.0914C14.368 14.6977 13.0808 16 11.4937 16H2.87343C1.28632 16 0 14.6977 0 13.0914V4.36708C0 2.76157 1.28632 1.45925 2.87343 1.45925H5.74686Z" fill="#606060"/>
</svg>
