<svg width="18" height="12" viewBox="0 0 18 12" fill="none" xmlns="http://www.w3.org/2000/svg">
<path d="M5.71429 11.1429C5.71429 10.9155 5.78954 10.6975 5.92349 10.5368C6.05745 10.376 6.23913 10.2857 6.42857 10.2857H10.7143C10.9037 10.2857 11.0854 10.376 11.2194 10.5368C11.3533 10.6975 11.4286 10.9155 11.4286 11.1429C11.4286 11.3702 11.3533 11.5882 11.2194 11.7489C11.0854 11.9097 10.9037 12 10.7143 12H6.42857C6.23913 12 6.05745 11.9097 5.92349 11.7489C5.78954 11.5882 5.71429 11.3702 5.71429 11.1429ZM2.85714 6C2.85714 5.77267 2.9324 5.55465 3.06635 5.39391C3.20031 5.23316 3.38199 5.14286 3.57143 5.14286H13.5714C13.7609 5.14286 13.9425 5.23316 14.0765 5.39391C14.2105 5.55465 14.2857 5.77267 14.2857 6C14.2857 6.22733 14.2105 6.44535 14.0765 6.60609C13.9425 6.76684 13.7609 6.85714 13.5714 6.85714H3.57143C3.38199 6.85714 3.20031 6.76684 3.06635 6.60609C2.9324 6.44535 2.85714 6.22733 2.85714 6ZM0 0.857143C0 0.629814 0.075255 0.411797 0.20921 0.251051C0.343164 0.090306 0.524845 0 0.714286 0H16.4286C16.618 0 16.7997 0.090306 16.9336 0.251051C17.0676 0.411797 17.1429 0.629814 17.1429 0.857143C17.1429 1.08447 17.0676 1.30249 16.9336 1.46323C16.7997 1.62398 16.618 1.71429 16.4286 1.71429H0.714286C0.524845 1.71429 0.343164 1.62398 0.20921 1.46323C0.075255 1.30249 0 1.08447 0 0.857143Z" fill="#606060"/>
</svg>
