<svg width="14" height="8" viewBox="0 0 14 8" fill="none" xmlns="http://www.w3.org/2000/svg">
<path d="M6.66345 0C2.86528 0 0 1.43264 0 3.33172C0 4.96427 2.12564 6.25031 5.13752 6.58349L4.85765 6.85669C4.7952 6.91863 4.74563 6.99233 4.7118 7.07353C4.67797 7.15473 4.66055 7.24183 4.66055 7.32979C4.66055 7.41776 4.67797 7.50485 4.7118 7.58605C4.74563 7.66725 4.7952 7.74095 4.85765 7.8029C4.9196 7.86535 4.9933 7.91492 5.0745 7.94875C5.1557 7.98258 5.24279 8 5.33076 8C5.41872 8 5.50582 7.98258 5.58702 7.94875C5.66822 7.91492 5.74192 7.86535 5.80386 7.8029L7.13655 6.47021C7.19722 6.40684 7.24477 6.33211 7.27648 6.25031C7.34313 6.08808 7.34313 5.90612 7.27648 5.74389C7.24477 5.6621 7.19722 5.58737 7.13655 5.524L5.80386 4.19131C5.67839 4.06583 5.50821 3.99534 5.33076 3.99534C5.15331 3.99534 4.98313 4.06583 4.85765 4.19131C4.73218 4.31678 4.66169 4.48696 4.66169 4.66441C4.66169 4.84186 4.73218 5.01204 4.85765 5.13752L4.93761 5.21082C2.66538 4.89097 1.33269 3.99807 1.33269 3.33172C1.33269 2.51878 3.41168 1.33269 6.66345 1.33269C9.91521 1.33269 11.9942 2.51878 11.9942 3.33172C11.9942 3.88479 11.028 4.66441 9.18889 5.06422C9.10184 5.0809 9.019 5.11477 8.9452 5.16386C8.8714 5.21296 8.80815 5.27628 8.75912 5.35012C8.7101 5.42396 8.6763 5.50684 8.65971 5.59391C8.64312 5.68097 8.64406 5.77047 8.66248 5.85717C8.68068 5.94302 8.71565 6.02443 8.7654 6.09673C8.81514 6.16903 8.87868 6.23079 8.95236 6.27846C9.02603 6.32614 9.10841 6.35879 9.19474 6.37454C9.28107 6.39029 9.36966 6.38884 9.45543 6.37026C11.8876 5.83718 13.3269 4.70439 13.3269 3.33172C13.3269 1.43264 10.4616 0 6.66345 0Z" fill="#A0A0A0"/>
</svg>
