<svg width="18" height="16" viewBox="0 0 18 16" fill="none" xmlns="http://www.w3.org/2000/svg">
<path d="M6.83302 6.44436C7.1905 6.44436 7.54448 6.37395 7.87475 6.23714C8.20502 6.10034 8.50511 5.89983 8.75789 5.64705C9.01067 5.39427 9.21118 5.09418 9.34798 4.76391C9.48479 4.43364 9.5552 4.07966 9.5552 3.72218C9.5552 3.3647 9.48479 3.01072 9.34798 2.68045C9.21118 2.35018 9.01067 2.05009 8.75789 1.79731C8.50511 1.54453 8.20502 1.34402 7.87475 1.20721C7.54448 1.07041 7.1905 1 6.83302 1C6.11105 1 5.41866 1.2868 4.90815 1.79731C4.39764 2.30782 4.11084 3.00021 4.11084 3.72218C4.11084 4.44415 4.39764 5.13654 4.90815 5.64705C5.41866 6.15756 6.11105 6.44436 6.83302 6.44436V6.44436Z" stroke="#606060" stroke-linecap="round" stroke-linejoin="round"/>
<path d="M14.2241 2.94336L16.5574 5.27666L14.2241 7.60995" stroke="#606060" stroke-linecap="round" stroke-linejoin="round"/>
<path d="M1 14.5334V15H12.6665V14.5334C12.6665 12.7912 12.6665 11.9201 12.3274 11.2543C12.0291 10.6689 11.5532 10.193 10.9678 9.89477C10.3021 9.55566 9.43098 9.55566 7.68878 9.55566H5.9777C4.2355 9.55566 3.36441 9.55566 2.69864 9.89477C2.11328 10.193 1.63737 10.6689 1.33911 11.2543C1 11.9201 1 12.7912 1 14.5334Z" stroke="#606060" stroke-linecap="round" stroke-linejoin="round"/>
</svg>
