<svg width="124" height="6" viewBox="0 0 124 6" fill="none" xmlns="http://www.w3.org/2000/svg">
<path d="M0.333333 3C0.333333 4.47276 1.52724 5.66667 3 5.66667C4.47276 5.66667 5.66667 4.47276 5.66667 3C5.66667 1.52724 4.47276 0.333333 3 0.333333C1.52724 0.333333 0.333333 1.52724 0.333333 3ZM118.333 3C118.333 4.47276 119.527 5.66667 121 5.66667C122.473 5.66667 123.667 4.47276 123.667 3C123.667 1.52724 122.473 0.333333 121 0.333333C119.527 0.333333 118.333 1.52724 118.333 3ZM3 3.5H121V2.5H3V3.5Z" fill="#F1B008"/>
</svg>
