<svg width="14" height="10" viewBox="0 0 14 10" fill="none" xmlns="http://www.w3.org/2000/svg">
<path d="M6.52953 9.42842L6.5288 9.42737L0.529476 0.762962C0.529347 0.762775 0.529219 0.762587 0.529091 0.7624C0.512046 0.737351 0.502097 0.708163 0.500297 0.677925C0.498483 0.64746 0.505009 0.617074 0.519178 0.590033C0.533347 0.562992 0.554626 0.540314 0.580735 0.524446C0.606648 0.508697 0.636342 0.50025 0.666668 0.500001L12.6662 0.500001L12.667 0.5C12.6974 0.499952 12.7272 0.508226 12.7532 0.523915C12.7791 0.539603 12.8003 0.562104 12.8144 0.588966C12.8285 0.615828 12.8349 0.646028 12.833 0.676284C12.8311 0.70654 12.821 0.735707 12.8037 0.760615L12.8032 0.761295L6.80273 9.42736L6.802 9.42842C6.7868 9.45049 6.76647 9.46854 6.74273 9.48101C6.719 9.49348 6.69258 9.5 6.66576 9.5C6.63894 9.5 6.61253 9.49348 6.58879 9.48101C6.56506 9.46854 6.54472 9.45049 6.52953 9.42842Z" stroke="#A0A0A0"/>
</svg>
