<svg width="18" height="12" viewBox="0 0 18 12" fill="none" xmlns="http://www.w3.org/2000/svg">
<g clip-path="url(#clip0_6011_16196)">
<path d="M17.7928 5.74361C15.9546 2.34543 12.731 0.289062 9.16373 0.289062C5.59646 0.289062 2.36737 2.34543 0.545549 5.74361L0.392822 5.99997L0.53464 6.26179C2.37282 9.65998 5.59646 11.7163 9.16373 11.7163C12.731 11.7163 15.9601 9.68725 17.7928 6.26179L17.9346 5.99997L17.7928 5.74361ZM9.16373 10.5982C6.09282 10.5982 3.27282 8.88543 1.63646 5.99997C3.27282 3.11452 6.09282 1.40179 9.16373 1.40179C12.2346 1.40179 15.0219 3.11997 16.6855 5.99997C15.0219 8.88543 12.2292 10.5982 9.16373 10.5982Z" fill="#606060"/>
<path d="M9.32193 2.27451C8.58236 2.27991 7.86098 2.50436 7.24889 2.9195C6.6368 3.33465 6.16147 3.92187 5.88293 4.60701C5.60439 5.29215 5.53514 6.04446 5.68391 6.76893C5.83269 7.49341 6.19282 8.15754 6.71883 8.67746C7.24483 9.19737 7.91312 9.54975 8.63927 9.69008C9.36543 9.83041 10.1169 9.7524 10.7987 9.4659C11.4806 9.1794 12.0622 8.69726 12.4702 8.08038C12.8782 7.4635 13.0942 6.73955 13.091 5.99997C13.0889 5.50766 12.9896 5.02062 12.7989 4.56674C12.6082 4.11287 12.3298 3.70109 11.9797 3.35501C11.6295 3.00892 11.2145 2.73534 10.7585 2.54992C10.3024 2.36451 9.81423 2.27092 9.32193 2.27451ZM9.32193 8.66724C8.79953 8.66186 8.29036 8.50223 7.85838 8.20841C7.4264 7.91459 7.09086 7.49968 6.89392 7.01579C6.69698 6.5319 6.64741 6.0006 6.75143 5.48863C6.85546 4.97666 7.10844 4.50684 7.47861 4.13818C7.84878 3.76951 8.31963 3.51845 8.83202 3.41651C9.34442 3.31458 9.8755 3.36632 10.3586 3.56523C10.8417 3.76415 11.2552 4.10137 11.5473 4.53455C11.8393 4.96773 11.9969 5.47754 12.0001 5.99997C12.0016 6.35157 11.9332 6.69996 11.799 7.02494C11.6648 7.34992 11.4674 7.64502 11.2183 7.89313C10.9691 8.14124 10.6732 8.33743 10.3477 8.47031C10.0222 8.6032 9.67352 8.67013 9.32193 8.66724Z" fill="#606060"/>
</g>
<defs>
<clipPath id="clip0_6011_16196">
<rect width="18" height="12" fill="white"/>
</clipPath>
</defs>
</svg>
