<svg width="15" height="14" viewBox="0 0 15 14" fill="none" xmlns="http://www.w3.org/2000/svg">
<path d="M5.99979 5.66657C6.3062 5.66657 6.60961 5.60622 6.8927 5.48896C7.17579 5.3717 7.43301 5.19983 7.64967 4.98317C7.86634 4.7665 8.03821 4.50928 8.15546 4.2262C8.27272 3.94311 8.33308 3.6397 8.33308 3.33329C8.33308 3.02687 8.27272 2.72346 8.15546 2.44038C8.03821 2.15729 7.86634 1.90007 7.64967 1.6834C7.43301 1.46674 7.17579 1.29487 6.8927 1.17761C6.60961 1.06035 6.3062 1 5.99979 1C5.38096 1 4.78748 1.24583 4.34991 1.6834C3.91233 2.12098 3.6665 2.71446 3.6665 3.33329C3.6665 3.95211 3.91233 4.54559 4.34991 4.98317C4.78748 5.42074 5.38096 5.66657 5.99979 5.66657V5.66657Z" stroke="#202020" stroke-linecap="round" stroke-linejoin="round"/>
<path d="M12.335 2.66602L14.3349 4.66597L12.335 6.66593" stroke="#202020" stroke-linecap="round" stroke-linejoin="round"/>
<path d="M1 12.5996V12.9996H10.9998V12.5996C10.9998 11.1063 10.9998 10.3596 10.7091 9.78898C10.4535 9.28724 10.0456 8.87932 9.54383 8.62367C8.97317 8.33301 8.22652 8.33301 6.73322 8.33301H5.26658C3.77328 8.33301 3.02663 8.33301 2.45597 8.62367C1.95424 8.87932 1.54631 9.28724 1.29066 9.78898C1 10.3596 1 11.1063 1 12.5996Z" stroke="#202020" stroke-linecap="round" stroke-linejoin="round"/>
</svg>
