<svg width="14" height="16" viewBox="0 0 14 16" fill="none" xmlns="http://www.w3.org/2000/svg">
<path d="M12.3475 5.20968C10.1243 0.935484 3.60361 0 3.60361 0C3.60361 0 6.61248 3.56129 2.76732 6.37742C0.335822 8.15484 -0.625469 10.4645 0.416177 12.9871C1.21378 14.9194 2.90125 15.7065 4.71966 16C3.85063 14.2226 4.52324 12.0516 4.59764 11.8194C6.29701 14.6065 9.50826 11.8194 7.8952 8.79032C10.0083 9.2871 10.3237 13.2613 8.70173 15.7419C11.0975 14.9258 12.6927 12.8742 13.1302 11.0452C13.5915 9.13226 13.2403 6.91935 12.3475 5.20968Z" fill="url(#paint0_linear_5521_21907)"/>
<defs>
<linearGradient id="paint0_linear_5521_21907" x1="6.66666" y1="0" x2="6.66666" y2="16" gradientUnits="userSpaceOnUse">
<stop stop-color="#FFD075"/>
<stop offset="0.552083" stop-color="#F1B008"/>
<stop offset="1" stop-color="#FFD075"/>
</linearGradient>
</defs>
</svg>
