<svg width="20" height="20" viewBox="0 0 20 20" fill="none" xmlns="http://www.w3.org/2000/svg">
<path d="M19.5254 16.3108H17.4912V14.3691C17.4912 14.2623 17.3997 14.1749 17.2878 14.1749H16.0673C15.9555 14.1749 15.8639 14.2623 15.8639 14.3691V16.3108H13.8298C13.7179 16.3108 13.6264 16.3982 13.6264 16.505V17.67C13.6264 17.7768 13.7179 17.8641 13.8298 17.8641H15.8639V19.8058C15.8639 19.9126 15.9555 20 16.0673 20H17.2878C17.3997 20 17.4912 19.9126 17.4912 19.8058V17.8641H19.5254C19.6373 17.8641 19.7288 17.7768 19.7288 17.67V16.505C19.7288 16.3982 19.6373 16.3108 19.5254 16.3108ZM6.34154 9.6702C6.31865 9.45904 6.30594 9.24545 6.30594 9.02944C6.30594 8.64353 6.34408 8.26732 6.41528 7.90083C6.43307 7.81345 6.38476 7.72365 6.30085 7.68724C5.95505 7.53919 5.63721 7.33531 5.3626 7.07804C5.03902 6.77855 4.78439 6.41796 4.61496 6.01929C4.44553 5.62061 4.36503 5.19261 4.37858 4.76257C4.40146 3.98347 4.72947 3.2432 5.30158 2.68496C5.92962 2.0709 6.7738 1.73596 7.67137 1.74567C8.48248 1.75295 9.26563 2.05148 9.85808 2.58059C10.059 2.7602 10.2319 2.95922 10.3768 3.17281C10.4276 3.24805 10.5268 3.2796 10.6133 3.25048C11.0608 3.10242 11.5337 2.99806 12.0194 2.94951C12.1618 2.93495 12.2431 2.78932 12.1796 2.66797C11.3532 1.10733 9.66484 0.0296949 7.71205 0.00056949C4.89475 -0.0406915 2.5453 2.16556 2.5453 4.8548C2.5453 6.37903 3.28014 7.73821 4.43198 8.62897C3.6234 8.98575 2.87839 9.47846 2.23255 10.0949C0.839152 11.4226 0.0509174 13.175 6.35804e-05 15.0463C-0.000615077 15.0722 0.00414511 15.0979 0.0140634 15.1221C0.0239817 15.1462 0.0388576 15.1682 0.0578144 15.1867C0.0767713 15.2053 0.0994256 15.22 0.124443 15.2301C0.149459 15.2401 0.176333 15.2453 0.203479 15.2453H1.62993C1.73927 15.2453 1.8308 15.1628 1.83334 15.0584C1.88166 13.6507 2.47919 12.3327 3.52932 11.3328C4.27687 10.6192 5.19224 10.1241 6.19152 9.88378C6.28814 9.85709 6.35425 9.76728 6.34154 9.6702ZM17.7964 9.02944C17.7964 6.37417 15.5613 4.21647 12.7898 4.17521C9.9725 4.13395 7.6256 6.3402 7.6256 9.02944C7.6256 10.5537 8.36298 11.9129 9.51228 12.8036C8.69532 13.1651 7.95162 13.6613 7.31539 14.2696C5.92199 15.5972 5.13376 17.3496 5.08291 19.2185C5.08223 19.2444 5.08699 19.2701 5.09691 19.2943C5.10682 19.3184 5.1217 19.3404 5.14066 19.3589C5.15961 19.3775 5.18227 19.3922 5.20728 19.4023C5.2323 19.4123 5.25917 19.4175 5.28632 19.4175H6.71023C6.81956 19.4175 6.9111 19.335 6.91364 19.2306C6.96195 17.8229 7.55949 16.505 8.60962 15.505C9.70552 14.4589 11.1599 13.8837 12.711 13.8837C15.5181 13.8837 17.7964 11.7114 17.7964 9.02944ZM15.0121 11.226C14.3968 11.8133 13.5806 12.1361 12.711 12.1361C11.8414 12.1361 11.0252 11.8133 10.4098 11.226C10.1028 10.9344 9.86017 10.587 9.69638 10.2042C9.53259 9.8215 9.45096 9.41128 9.45634 8.99789C9.46396 8.20179 9.79706 7.4324 10.3793 6.86203C10.9896 6.26496 11.8058 5.93244 12.6779 5.92273C13.5399 5.91545 14.3764 6.23583 14.9918 6.81106C15.6224 7.40085 15.9682 8.18966 15.9682 9.02944C15.9656 9.85951 15.6275 10.6386 15.0121 11.226Z" fill="#606060"/>
</svg>
