<svg width="9" height="12" viewBox="0 0 9 12" fill="none" xmlns="http://www.w3.org/2000/svg">
<path d="M4.2 0C1.878 0 0 1.878 0 4.2C0 7.35 4.2 12 4.2 12C4.2 12 8.4 7.35 8.4 4.2C8.4 1.878 6.522 0 4.2 0ZM4.2 5.7C3.80218 5.7 3.42064 5.54197 3.13934 5.26066C2.85804 4.97936 2.7 4.59783 2.7 4.2C2.7 3.80218 2.85804 3.42064 3.13934 3.13934C3.42064 2.85804 3.80218 2.7 4.2 2.7C4.59783 2.7 4.97936 2.85804 5.26066 3.13934C5.54197 3.42064 5.7 3.80218 5.7 4.2C5.7 4.59783 5.54197 4.97936 5.26066 5.26066C4.97936 5.54197 4.59783 5.7 4.2 5.7Z" fill="#606060"/>
</svg>
