<svg width="44" height="44" viewBox="0 0 44 44" fill="none" xmlns="http://www.w3.org/2000/svg">
<path d="M22 0C9.85013 0 0 9.85013 0 22C0 34.1499 9.85013 44 22 44C34.1499 44 44 34.1499 44 22C44 9.85013 34.1499 0 22 0ZM32.2923 32.6392H28.149V18.2468C28.149 17.8332 28.1549 17.2531 28.1637 16.5073C28.1739 15.7608 28.1783 15.1859 28.1783 14.7818L24.1465 32.6392H19.8249L15.8217 14.7818C15.8217 15.1859 15.8261 15.7608 15.8363 16.5073C15.8466 17.2531 15.851 17.8332 15.851 18.2468V32.6392H11.7077V11.3608H18.1786L22.0513 28.0911L25.8955 11.3608H32.2938V32.6392H32.2923Z" fill="#31393C"/>
</svg>
