<svg width="25" height="38" viewBox="0 0 25 38" fill="none" xmlns="http://www.w3.org/2000/svg">
<g filter="url(#filter0_d_3688_5499)">
<path d="M23 12.9931V17.68C23 21.4812 20.3042 25.5493 14.1416 26.1103V30.6H18.4075C18.7685 30.6 19.0638 30.906 19.0638 31.28V33.32C19.0638 33.6957 18.7669 34 18.4075 34H6.59411C6.23314 34 5.93781 33.694 5.93781 33.32V31.28C5.93781 30.906 6.23314 30.6 6.59247 30.6H10.8601V26.1103C4.69412 25.5493 2 21.4812 2 17.68V12.9931C2 12.8128 2.06915 12.6398 2.19223 12.5123C2.31531 12.3847 2.48224 12.3131 2.6563 12.3131H3.64075C4.00172 12.3131 4.29705 12.6191 4.29705 12.9931V17.68C4.29705 19.9512 6.02477 23.8 12.5008 23.8C18.9752 23.8 20.7046 19.9512 20.7046 17.68V12.9931C20.7046 12.813 20.7735 12.6403 20.8962 12.5129C21.019 12.3854 21.1855 12.3136 21.3592 12.3131H22.3453C22.4314 12.3131 22.5167 12.3307 22.5962 12.3649C22.6758 12.3991 22.748 12.4492 22.8088 12.5124C22.8696 12.5755 22.9178 12.6505 22.9506 12.733C22.9834 12.8155 23.0002 12.9039 23 12.9931ZM12.5008 20.4C16.35 20.4 17.4231 18.7595 17.4231 17.68V12.3114H7.57856V17.68C7.57856 18.7595 8.64833 20.4 12.5008 20.4ZM17.4231 2.72C17.4231 1.6371 16.35 0 12.5008 0C8.64833 0 7.57856 1.6371 7.57856 2.72V9.9314H17.4231V2.72Z" fill="#606060"/>
<path d="M12.5008 0C16.35 0 17.4231 1.6371 17.4231 2.72V9.9314H7.57856V2.72C7.57856 1.6371 8.64833 0 12.5008 0Z" fill="#606060"/>
<path d="M12.5008 0C16.35 0 17.4231 1.6371 17.4231 2.72V9.9314H7.57856V2.72C7.57856 1.6371 8.64833 0 12.5008 0Z" fill="#FF2121"/>
</g>
<defs>
<filter id="filter0_d_3688_5499" x="0" y="0" width="25" height="38" filterUnits="userSpaceOnUse" color-interpolation-filters="sRGB">
<feFlood flood-opacity="0" result="BackgroundImageFix"/>
<feColorMatrix in="SourceAlpha" type="matrix" values="0 0 0 0 0 0 0 0 0 0 0 0 0 0 0 0 0 0 127 0" result="hardAlpha"/>
<feOffset dy="2"/>
<feGaussianBlur stdDeviation="1"/>
<feComposite in2="hardAlpha" operator="out"/>
<feColorMatrix type="matrix" values="0 0 0 0 0 0 0 0 0 0 0 0 0 0 0 0 0 0 0.25 0"/>
<feBlend mode="normal" in2="BackgroundImageFix" result="effect1_dropShadow_3688_5499"/>
<feBlend mode="normal" in="SourceGraphic" in2="effect1_dropShadow_3688_5499" result="shape"/>
</filter>
</defs>
</svg>
