<svg width="44" height="34" viewBox="0 0 44 34" fill="none" xmlns="http://www.w3.org/2000/svg">
<g filter="url(#filter0_d_3659_5964)">
<path d="M38.3931 20V18.3594C38.3931 16.901 37.9275 15.7031 36.9963 14.7656C36.0651 13.8281 34.8753 13.3594 33.4268 13.3594H23.4944V10C24.4256 10 25.2145 9.67448 25.8611 9.02344C26.5078 8.3724 26.8311 7.57812 26.8311 6.64062V3.35938C26.8311 2.42188 26.5078 1.6276 25.8611 0.976562C25.2145 0.325521 24.4256 0 23.4944 0H20.2353C19.3042 0 18.5153 0.325521 17.8686 0.976562C17.222 1.6276 16.8986 2.42188 16.8986 3.35938V6.64062C16.8986 7.57812 17.222 8.3724 17.8686 9.02344C18.5153 9.67448 19.3042 10 20.2353 10V13.3594H10.3029C8.85441 13.3594 7.66459 13.8281 6.73342 14.7656C5.80226 15.7031 5.33668 16.901 5.33668 18.3594V20C4.40551 20 3.61661 20.3255 2.96996 20.9766C2.32332 21.6276 2 22.4219 2 23.3594V26.6406C2 27.5781 2.32332 28.3724 2.96996 29.0234C3.61661 29.6745 4.40551 30 5.33668 30H8.59576C9.52692 30 10.3158 29.6745 10.9625 29.0234C11.6091 28.3724 11.9324 27.5781 11.9324 26.6406V23.3594C11.9324 22.4219 11.6091 21.6276 10.9625 20.9766C10.3158 20.3255 9.52692 20 8.59576 20V18.3594C8.59576 17.2135 9.1648 16.6406 10.3029 16.6406H20.2353V20C19.3042 20 18.5153 20.3255 17.8686 20.9766C17.222 21.6276 16.8986 22.4219 16.8986 23.3594V26.6406C16.8986 27.5781 17.222 28.3724 17.8686 29.0234C18.5153 29.6745 19.3042 30 20.2353 30H23.4944C24.4256 30 25.2145 29.6745 25.8611 29.0234C26.5078 28.3724 26.8311 27.5781 26.8311 26.6406V23.3594C26.8311 22.4219 26.5078 21.6276 25.8611 20.9766C25.2145 20.3255 24.4256 20 23.4944 20V16.6406H33.4268C34.5649 16.6406 35.134 17.2135 35.134 18.3594V20C34.2028 20 33.4139 20.3255 32.7673 20.9766C32.1206 21.6276 31.7973 22.4219 31.7973 23.3594V26.6406C31.7973 27.5781 32.1206 28.3724 32.7673 29.0234C33.4139 29.6745 34.2028 30 35.134 30H38.3931C39.3242 30 40.1131 29.6745 40.7598 29.0234C41.4064 28.3724 41.7297 27.5781 41.7297 26.6406V23.3594C41.7297 22.4219 41.4064 21.6276 40.7598 20.9766C40.1131 20.3255 39.3242 20 38.3931 20ZM20.2353 3.35938H23.4944V6.64062H20.2353V3.35938ZM8.59576 26.6406H5.33668V23.3594H8.59576V26.6406ZM23.4944 26.6406H20.2353V23.3594H23.4944V26.6406ZM35.134 26.6406V23.3594H38.3931V26.6406H35.134Z" fill="#606060"/>
</g>
<defs>
<filter id="filter0_d_3659_5964" x="0" y="0" width="43.7297" height="34" filterUnits="userSpaceOnUse" color-interpolation-filters="sRGB">
<feFlood flood-opacity="0" result="BackgroundImageFix"/>
<feColorMatrix in="SourceAlpha" type="matrix" values="0 0 0 0 0 0 0 0 0 0 0 0 0 0 0 0 0 0 127 0" result="hardAlpha"/>
<feOffset dy="2"/>
<feGaussianBlur stdDeviation="1"/>
<feComposite in2="hardAlpha" operator="out"/>
<feColorMatrix type="matrix" values="0 0 0 0 0 0 0 0 0 0 0 0 0 0 0 0 0 0 0.25 0"/>
<feBlend mode="normal" in2="BackgroundImageFix" result="effect1_dropShadow_3659_5964"/>
<feBlend mode="normal" in="SourceGraphic" in2="effect1_dropShadow_3659_5964" result="shape"/>
</filter>
</defs>
</svg>
