<svg width="22" height="16" viewBox="0 0 22 16" fill="none" xmlns="http://www.w3.org/2000/svg">
<path d="M19.5417 10.6667V9.79167C19.5417 9.01389 19.2917 8.375 18.7917 7.875C18.2917 7.375 17.6528 7.125 16.875 7.125H11.5417V5.33333C12.0417 5.33333 12.4653 5.15972 12.8125 4.8125C13.1597 4.46528 13.3333 4.04167 13.3333 3.54167V1.79167C13.3333 1.29167 13.1597 0.868056 12.8125 0.520833C12.4653 0.173611 12.0417 0 11.5417 0H9.79167C9.29167 0 8.86806 0.173611 8.52083 0.520833C8.17361 0.868056 8 1.29167 8 1.79167V3.54167C8 4.04167 8.17361 4.46528 8.52083 4.8125C8.86806 5.15972 9.29167 5.33333 9.79167 5.33333V7.125H4.45833C3.68056 7.125 3.04167 7.375 2.54167 7.875C2.04167 8.375 1.79167 9.01389 1.79167 9.79167V10.6667C1.29167 10.6667 0.868056 10.8403 0.520833 11.1875C0.173611 11.5347 0 11.9583 0 12.4583V14.2083C0 14.7083 0.173611 15.1319 0.520833 15.4792C0.868056 15.8264 1.29167 16 1.79167 16H3.54167C4.04167 16 4.46528 15.8264 4.8125 15.4792C5.15972 15.1319 5.33333 14.7083 5.33333 14.2083V12.4583C5.33333 11.9583 5.15972 11.5347 4.8125 11.1875C4.46528 10.8403 4.04167 10.6667 3.54167 10.6667V9.79167C3.54167 9.18056 3.84722 8.875 4.45833 8.875H9.79167V10.6667C9.29167 10.6667 8.86806 10.8403 8.52083 11.1875C8.17361 11.5347 8 11.9583 8 12.4583V14.2083C8 14.7083 8.17361 15.1319 8.52083 15.4792C8.86806 15.8264 9.29167 16 9.79167 16H11.5417C12.0417 16 12.4653 15.8264 12.8125 15.4792C13.1597 15.1319 13.3333 14.7083 13.3333 14.2083V12.4583C13.3333 11.9583 13.1597 11.5347 12.8125 11.1875C12.4653 10.8403 12.0417 10.6667 11.5417 10.6667V8.875H16.875C17.4861 8.875 17.7917 9.18056 17.7917 9.79167V10.6667C17.2917 10.6667 16.8681 10.8403 16.5208 11.1875C16.1736 11.5347 16 11.9583 16 12.4583V14.2083C16 14.7083 16.1736 15.1319 16.5208 15.4792C16.8681 15.8264 17.2917 16 17.7917 16H19.5417C20.0417 16 20.4653 15.8264 20.8125 15.4792C21.1597 15.1319 21.3333 14.7083 21.3333 14.2083V12.4583C21.3333 11.9583 21.1597 11.5347 20.8125 11.1875C20.4653 10.8403 20.0417 10.6667 19.5417 10.6667ZM9.79167 1.79167H11.5417V3.54167H9.79167V1.79167ZM3.54167 14.2083H1.79167V12.4583H3.54167V14.2083ZM11.5417 14.2083H9.79167V12.4583H11.5417V14.2083ZM17.7917 14.2083V12.4583H19.5417V14.2083H17.7917Z" fill="#606060"/>
</svg>
