<svg width="32" height="21" viewBox="0 0 32 21" fill="none" xmlns="http://www.w3.org/2000/svg">
<path d="M22.4126 4.474L22.1523 4.6302L22.1708 4.93325C22.2354 5.9903 22.1785 6.74048 21.9788 7.42104C21.7787 8.10325 21.4246 8.75185 20.8395 9.5931L20.6669 9.84136L20.8065 10.1096C21.5166 11.4729 22.9393 12.4142 24.5924 12.4142C25.7247 12.4142 26.8107 11.9643 27.6114 11.1636C28.4121 10.3629 28.8619 9.27695 28.8619 8.14458C28.8619 7.01222 28.4121 5.92623 27.6114 5.12553C26.8107 4.32483 25.7247 3.875 24.5924 3.875C23.7974 3.875 23.0552 4.08846 22.4126 4.474ZM25.9772 19.4533V19.9533H26.4772H30.875H31.375V19.4533V17.5685C31.375 16.4498 30.6171 15.5125 29.5556 14.8311C28.4823 14.142 27.0092 13.6494 25.3493 13.429L24.0406 13.2552L24.9058 14.2523C25.5648 15.0118 25.9772 16.0752 25.9772 17.2544V19.4533Z" fill="#31393C" stroke="white"/>
<path d="M9.58738 4.474L9.84772 4.6302L9.8292 4.93325C9.76457 5.9903 9.82151 6.74048 10.0212 7.42104C10.2213 8.10325 10.5754 8.75185 11.1605 9.5931L11.3331 9.84136L11.1935 10.1096C10.4834 11.4729 9.06074 12.4142 7.40764 12.4142C6.27528 12.4142 5.18929 11.9643 4.38859 11.1636C3.58789 10.3629 3.13806 9.27695 3.13806 8.14458C3.13806 7.01222 3.58789 5.92623 4.38859 5.12553C5.18929 4.32483 6.27528 3.875 7.40764 3.875C8.2026 3.875 8.94482 4.08846 9.58738 4.474ZM6.02285 19.4533V19.9533H5.52285H1.125H0.625002V19.4533V17.5685C0.625002 16.4498 1.38287 15.5125 2.4444 14.8311C3.51773 14.142 4.99078 13.6494 6.65072 13.429L7.95937 13.2552L7.09421 14.2523C6.43519 15.0118 6.02285 16.0752 6.02285 17.2544V19.4533Z" fill="#31393C" stroke="white"/>
<path d="M21.3508 5.90625C21.3508 8.89085 18.9292 11.3125 15.9446 11.3125C12.96 11.3125 10.5383 8.89085 10.5383 5.90625C10.5383 2.92165 12.96 0.5 15.9446 0.5C18.9292 0.5 21.3508 2.92165 21.3508 5.90625ZM15.9446 14.2812C17.0466 14.2812 18.0951 14.0438 19.0421 13.625H21.1946C23.8182 13.625 25.9446 15.7513 25.9446 18.375V19.0312C25.9446 19.842 25.2866 20.5 24.4758 20.5H7.41333C6.60256 20.5 5.94458 19.842 5.94458 19.0312V18.375C5.94458 15.7513 8.07092 13.625 10.6946 13.625H12.8475C13.7972 14.0435 14.8419 14.2812 15.9446 14.2812Z" fill="#31393C" stroke="white"/>
</svg>
