<svg width="17" height="14" viewBox="0 0 17 14" fill="none" xmlns="http://www.w3.org/2000/svg">
<path d="M0.5 3.18206C0.5 1.68723 1.67462 0.5 3.09296 0.5C4.67951 0.5 5.66849 1.25633 6.20952 2.40127C6.7681 3.58333 6.85841 5.21326 6.49922 6.89602C6.14146 8.57203 5.35016 10.2384 4.22405 11.4765C3.21556 12.5854 1.9554 13.3356 0.5 13.4761V12.9881C2.56918 12.7632 4.07018 11.1685 4.71359 9.63278C5.06073 8.80419 5.19619 7.90825 4.97197 7.17837C4.857 6.80415 4.64383 6.46585 4.31081 6.2239C3.97813 5.9822 3.56372 5.86412 3.09296 5.86412C1.67473 5.86412 0.5 4.67594 0.5 3.18206ZM9.41083 3.18206C9.41083 1.68712 10.5856 0.5 12.0027 0.5C13.5893 0.5 14.5783 1.25633 15.1193 2.40128C15.6779 3.58333 15.7682 5.21327 15.4091 6.89604C15.0514 8.57205 14.2602 10.2384 13.1342 11.4766C12.1259 12.5854 10.8659 13.3355 9.41083 13.4761V12.9881C11.48 12.7632 12.981 11.1685 13.6243 9.63275C13.9714 8.80414 14.1067 7.90816 13.8823 7.17826C13.7672 6.80403 13.554 6.46575 13.2208 6.22384C12.8881 5.98218 12.4736 5.86412 12.0027 5.86412C10.5857 5.86412 9.41083 4.67605 9.41083 3.18206Z" stroke="white"/>
</svg>
