<svg width="21" height="32" viewBox="0 0 21 32" fill="none" xmlns="http://www.w3.org/2000/svg">
<path d="M11.3479 1.9834C11.3479 1.9834 15.3258 1.9834 19.3038 4.63554L11.3479 1.9834Z" fill="black"/>
<path d="M11.3479 1.9834C11.3479 1.9834 15.3258 1.9834 19.3038 4.63554" stroke="black" stroke-miterlimit="10" stroke-linecap="round" stroke-linejoin="round"/>
<path d="M19.1029 1.10352L19.824 5.09745M15.8301 5.81855L19.824 5.09745M19.3214 23.4743C19.3214 27.781 15.8301 31.2729 11.5227 31.2729C7.21543 31.2729 3.72412 27.781 3.72412 23.4743M19.3219 23.0599V17.3728M16.0077 17.2337C16.0168 17.0161 16.0687 16.8023 16.1605 16.6048C16.2522 16.4072 16.3819 16.2296 16.5423 16.0821C16.7027 15.9347 16.8905 15.8203 17.0951 15.7454C17.2996 15.6706 17.517 15.6367 17.7346 15.6459C17.9523 15.655 18.166 15.7069 18.3636 15.7986C18.5612 15.8903 18.7387 16.0201 18.8862 16.1804C19.0336 16.3408 19.1481 16.5286 19.2229 16.7332C19.2978 16.9378 19.3316 17.1551 19.3225 17.3728" stroke="black" stroke-miterlimit="10" stroke-linecap="round" stroke-linejoin="round"/>
<path d="M12.6919 17.1235C12.701 16.9058 12.7529 16.6921 12.8447 16.4945C12.9364 16.297 13.0661 16.1194 13.2265 15.9719C13.3868 15.8245 13.5747 15.7101 13.7792 15.6352C13.9838 15.5603 14.2011 15.5265 14.4188 15.5356C14.6364 15.5448 14.8502 15.5967 15.0477 15.6884C15.2453 15.7801 15.4229 15.9099 15.5704 16.0702C15.7178 16.2306 15.8322 16.4184 15.9071 16.623C15.9819 16.8276 16.0158 17.0449 16.0067 17.2625" stroke="black" stroke-miterlimit="10" stroke-linecap="round" stroke-linejoin="round"/>
<path d="M12.6942 17.0599C12.7294 16.6214 12.9374 16.2149 13.2724 15.9298C13.6074 15.6447 14.0419 15.5043 14.4804 15.5396C14.9188 15.5749 15.3253 15.7829 15.6104 16.1178C15.8956 16.4528 16.0359 16.8873 16.0006 17.3258M9.35734 16.8971C9.39534 16.4657 9.60057 16.0662 9.92917 15.784C10.2578 15.5019 10.6837 15.3594 11.1159 15.387C11.5482 15.4147 11.9525 15.6103 12.2424 15.9321C12.5324 16.2538 12.685 16.6762 12.6677 17.109M1.32203 17.9504C1.01642 17.6339 0.84904 17.2091 0.856697 16.7692C0.864354 16.3294 1.04642 15.9106 1.36285 15.605C1.67928 15.2994 2.10416 15.132 2.544 15.1396C2.98384 15.1473 3.40263 15.3294 3.70823 15.6458M6.03927 6.29408C6.03927 5.85415 6.21403 5.43224 6.52511 5.12116C6.83619 4.81008 7.2581 4.63532 7.69803 4.63532C8.13796 4.63532 8.55987 4.81008 8.87095 5.12116C9.18202 5.43224 9.35679 5.85415 9.35679 6.29408M9.35679 16.8795V6.29408M6.03927 6.29408V19.4648M4.63623 16.6952L3.70823 15.6458M2.1601 19.0499C3.08534 20.0662 3.75844 21.499 3.72423 23.563M1.32203 17.9504L2.18548 19.0786M8.56672 3.09959C8.73507 2.83673 8.82565 2.53161 8.82802 2.21946C8.83038 1.90731 8.74442 1.60086 8.58007 1.33547C8.41572 1.07009 8.17967 0.856586 7.89917 0.719613C7.61867 0.582641 7.30516 0.527781 6.99481 0.561367C6.68447 0.594952 6.38994 0.715612 6.14524 0.909421C5.90054 1.10323 5.71563 1.36229 5.61186 1.65669C5.50808 1.95109 5.48968 2.26884 5.55876 2.57326C5.62785 2.87767 5.78161 3.15634 6.0023 3.37711" stroke="black" stroke-miterlimit="10" stroke-linecap="round" stroke-linejoin="round"/>
</svg>
