<svg width="16" height="16" viewBox="0 0 16 16" fill="none" xmlns="http://www.w3.org/2000/svg">
<path d="M6.5879 0C5.58949 0 4.63197 0.396618 3.92599 1.1026C3.22 1.80859 2.82339 2.7661 2.82339 3.76452C2.82339 4.76293 3.22 5.72045 3.92599 6.42643C4.63197 7.13242 5.58949 7.52903 6.5879 7.52903C7.58632 7.52903 8.54384 7.13242 9.24982 6.42643C9.9558 5.72045 10.3524 4.76293 10.3524 3.76452C10.3524 2.7661 9.9558 1.80859 9.24982 1.1026C8.54384 0.396618 7.58632 0 6.5879 0ZM3.76452 3.76452C3.76452 3.01571 4.06198 2.29757 4.59147 1.76808C5.12096 1.23859 5.8391 0.941129 6.5879 0.941129C7.33671 0.941129 8.05485 1.23859 8.58434 1.76808C9.11383 2.29757 9.41129 3.01571 9.41129 3.76452C9.41129 4.51333 9.11383 5.23147 8.58434 5.76095C8.05485 6.29044 7.33671 6.5879 6.5879 6.5879C5.8391 6.5879 5.12096 6.29044 4.59147 5.76095C4.06198 5.23147 3.76452 4.51333 3.76452 3.76452ZM1.89073 8.47016C1.64287 8.46917 1.39725 8.51712 1.16796 8.61126C0.938676 8.70539 0.730226 8.84387 0.554569 9.01874C0.378912 9.19361 0.239503 9.40143 0.144338 9.6303C0.049172 9.85916 0.000121887 10.1046 0 10.3524C0 11.9439 0.783961 13.1438 2.00931 13.9259C3.02385 14.5724 4.33578 14.9329 5.76442 15.0308L6.04675 14.1038C4.63977 14.036 3.40971 13.7028 2.51564 13.1316C1.52745 12.501 0.941129 11.5853 0.941129 10.3524C0.941129 9.83198 1.36275 9.41129 1.89073 9.41129H6.21051C6.38274 9.07437 6.59073 8.75909 6.82977 8.47016H1.89073ZM15.0581 11.7641C15.0582 12.5013 14.8659 13.2257 14.5003 13.8658C14.1346 14.5058 13.6082 15.0394 12.9731 15.4136C12.338 15.7879 11.6162 15.9899 10.8791 15.9996C10.142 16.0094 9.41517 15.8266 8.77038 15.4693L7.08576 15.9813C7.01911 16.0012 6.94832 16.0026 6.8809 15.9856C6.81348 15.9685 6.75192 15.9335 6.70274 15.8844C6.65356 15.8352 6.61859 15.7736 6.60152 15.7062C6.58445 15.6388 6.58593 15.568 6.60579 15.5013L7.11776 13.8177C6.80475 13.2522 6.6253 12.6227 6.59315 11.9772C6.561 11.3317 6.67701 10.6874 6.93229 10.0937C7.18757 9.49993 7.57536 8.9725 8.06594 8.55176C8.55652 8.13103 9.13688 7.82815 9.76259 7.66633C10.3883 7.50451 11.0427 7.48804 11.6758 7.61818C12.3088 7.74832 12.9037 8.02161 13.4148 8.41714C13.9259 8.81266 14.3398 9.31991 14.6246 9.90005C14.9094 10.4802 15.0577 11.1178 15.0581 11.7641ZM8.94073 10.3524C8.81593 10.3524 8.69623 10.402 8.60799 10.4902C8.51974 10.5785 8.47016 10.6982 8.47016 10.823C8.47016 10.9478 8.51974 11.0675 8.60799 11.1557C8.69623 11.244 8.81593 11.2935 8.94073 11.2935H12.7052C12.83 11.2935 12.9497 11.244 13.038 11.1557C13.1262 11.0675 13.1758 10.9478 13.1758 10.823C13.1758 10.6982 13.1262 10.5785 13.038 10.4902C12.9497 10.402 12.83 10.3524 12.7052 10.3524H8.94073ZM8.47016 12.7052C8.47016 12.83 8.51974 12.9497 8.60799 13.038C8.69623 13.1262 8.81593 13.1758 8.94073 13.1758H10.823C10.9478 13.1758 11.0675 13.1262 11.1557 13.038C11.244 12.9497 11.2935 12.83 11.2935 12.7052C11.2935 12.5804 11.244 12.4608 11.1557 12.3725C11.0675 12.2843 10.9478 12.2347 10.823 12.2347H8.94073C8.81593 12.2347 8.69623 12.2843 8.60799 12.3725C8.51974 12.4608 8.47016 12.5804 8.47016 12.7052Z" fill="#606060"/>
</svg>
