<svg width="38" height="34" viewBox="0 0 38 34" fill="none" xmlns="http://www.w3.org/2000/svg">
<g filter="url(#filter0_d_3688_5500)">
<path d="M32.9091 6H21.1791L26.2636 1.065L25.1818 0L19 6L12.8182 0L11.7209 1.065L16.8209 6H5.09091C4.27115 6 3.48496 6.31607 2.90531 6.87868C2.32565 7.44129 2 8.20435 2 9V27C2 28.65 3.39091 30 5.09091 30H32.9091C34.6091 30 36 28.65 36 27V9C36 8.20435 35.6744 7.44129 35.0947 6.87868C34.515 6.31607 33.7288 6 32.9091 6ZM32.9091 27H5.09091V9H32.9091V27Z" fill="#606060"/>
<path d="M14 24V12L25 18L14 24Z" fill="#FF2121"/>
</g>
<defs>
<filter id="filter0_d_3688_5500" x="0" y="0" width="38" height="34" filterUnits="userSpaceOnUse" color-interpolation-filters="sRGB">
<feFlood flood-opacity="0" result="BackgroundImageFix"/>
<feColorMatrix in="SourceAlpha" type="matrix" values="0 0 0 0 0 0 0 0 0 0 0 0 0 0 0 0 0 0 127 0" result="hardAlpha"/>
<feOffset dy="2"/>
<feGaussianBlur stdDeviation="1"/>
<feComposite in2="hardAlpha" operator="out"/>
<feColorMatrix type="matrix" values="0 0 0 0 0 0 0 0 0 0 0 0 0 0 0 0 0 0 0.25 0"/>
<feBlend mode="normal" in2="BackgroundImageFix" result="effect1_dropShadow_3688_5500"/>
<feBlend mode="normal" in="SourceGraphic" in2="effect1_dropShadow_3688_5500" result="shape"/>
</filter>
</defs>
</svg>
