<svg width="25" height="26" viewBox="0 0 25 26" fill="none" xmlns="http://www.w3.org/2000/svg">
<path d="M24.7422 20.6687H22.1646V18.2083C22.1646 18.0729 22.0486 17.9622 21.9068 17.9622H20.3602C20.2185 17.9622 20.1025 18.0729 20.1025 18.2083V20.6687H17.5248C17.3831 20.6687 17.2671 20.7795 17.2671 20.9148V22.3911C17.2671 22.5264 17.3831 22.6371 17.5248 22.6371H20.1025V25.0976C20.1025 25.2329 20.2185 25.3436 20.3602 25.3436H21.9068C22.0486 25.3436 22.1646 25.2329 22.1646 25.0976V22.6371H24.7422C24.884 22.6371 25 22.5264 25 22.3911V20.9148C25 20.7795 24.884 20.6687 24.7422 20.6687ZM8.03588 12.2539C8.00689 11.9863 7.99078 11.7157 7.99078 11.4419C7.99078 10.9529 8.03911 10.4762 8.12932 10.0118C8.15188 9.90107 8.09066 9.78727 7.98433 9.74114C7.54613 9.55353 7.14337 9.29518 6.79539 8.96916C6.38535 8.58966 6.06269 8.13273 5.848 7.62754C5.6333 7.12234 5.53128 6.57998 5.54846 6.03504C5.57746 5.04778 5.9931 4.10972 6.71806 3.40233C7.51391 2.62421 8.58363 2.19977 9.72102 2.21208C10.7489 2.2213 11.7412 2.5996 12.492 3.27008C12.7465 3.49768 12.9656 3.74988 13.1493 4.02053C13.2137 4.11587 13.3394 4.15585 13.4489 4.11895C14.016 3.93134 14.6153 3.79908 15.2307 3.73757C15.4112 3.71912 15.5143 3.53458 15.4337 3.3808C14.3866 1.40319 12.2471 0.0376288 9.77257 0.000721648C6.20253 -0.0515635 3.22536 2.74415 3.22536 6.15192C3.22536 8.08339 4.15653 9.80573 5.61612 10.9345C4.59151 11.3866 3.64745 12.0109 2.82904 12.7921C1.06336 14.4745 0.0645217 16.6951 8.05679e-05 19.0664C-0.000779415 19.0992 0.00525261 19.1318 0.0178209 19.1624C0.0303892 19.193 0.0492396 19.2208 0.0732614 19.2443C0.0972832 19.2678 0.12599 19.2865 0.157691 19.2992C0.189392 19.312 0.223446 19.3186 0.257845 19.3185H2.06542C2.20397 19.3185 2.31996 19.214 2.32318 19.0817C2.3844 17.2979 3.14158 15.6278 4.47229 14.3607C5.41958 13.4565 6.57952 12.829 7.84578 12.5246C7.96822 12.4907 8.05199 12.3769 8.03588 12.2539ZM22.5512 11.4419C22.5512 8.07724 19.7191 5.34303 16.207 5.29075C12.637 5.23846 9.66302 8.03418 9.66302 11.4419C9.66302 13.3734 10.5974 15.0958 12.0538 16.2245C11.0186 16.6825 10.0762 17.3114 9.26993 18.0822C7.50424 19.7645 6.50541 21.9851 6.44097 24.3533C6.44011 24.3861 6.44614 24.4188 6.45871 24.4494C6.47128 24.4799 6.49013 24.5078 6.51415 24.5313C6.53817 24.5548 6.56688 24.5735 6.59858 24.5862C6.63028 24.5989 6.66433 24.6055 6.69873 24.6055H8.50308C8.64163 24.6055 8.75762 24.5009 8.76085 24.3687C8.82207 22.5848 9.57925 20.9148 10.91 19.6476C12.2987 18.3221 14.1417 17.5931 16.1071 17.5931C19.6643 17.5931 22.5512 14.8405 22.5512 11.4419ZM19.0231 14.2254C18.2434 14.9697 17.2091 15.3787 16.1071 15.3787C15.0052 15.3787 13.9709 14.9697 13.1912 14.2254C12.8021 13.8559 12.4946 13.4156 12.2871 12.9306C12.0795 12.4456 11.9761 11.9258 11.9829 11.402C11.9926 10.3932 12.4147 9.4182 13.1525 8.69544C13.9258 7.93884 14.9601 7.51748 16.0652 7.50518C17.1575 7.49595 18.2176 7.90193 18.9973 8.63085C19.7964 9.37822 20.2346 10.3778 20.2346 11.4419C20.2314 12.4938 19.8028 13.4811 19.0231 14.2254Z" fill="#606060"/>
</svg>
