<svg width="15" height="14" viewBox="0 0 15 14" fill="none" xmlns="http://www.w3.org/2000/svg">
<path d="M2.84632 5.78794L1.11128 7.52298C0.399739 8.23452 0 9.19957 0 10.2058C0 11.2121 0.399739 12.1772 1.11128 12.8887C1.82282 13.6002 2.78787 14 3.79414 14C4.80041 14 5.76547 13.6002 6.47701 12.8887L8.78871 10.5757C9.21779 10.1466 9.53766 9.6208 9.72147 9.04246C9.90529 8.46413 9.94769 7.85013 9.84511 7.25202C9.74254 6.6539 9.49798 6.08912 9.13196 5.60508C8.76595 5.12104 8.28916 4.73186 7.74162 4.47021L7.00056 5.21127C6.92532 5.28664 6.85989 5.3712 6.80581 5.46293C7.22885 5.58455 7.61283 5.81447 7.91979 6.12996C8.22675 6.44545 8.44605 6.83559 8.55602 7.26181C8.666 7.68803 8.66283 8.13558 8.54683 8.5602C8.43084 8.98482 8.20603 9.37181 7.89463 9.68293L5.5842 11.9946C5.10961 12.4692 4.46594 12.7358 3.79478 12.7358C3.12361 12.7358 2.47994 12.4692 2.00536 11.9946C1.53077 11.52 1.26415 10.8764 1.26415 10.2052C1.26415 9.53405 1.53077 8.89037 2.00536 8.41579L3.00819 7.41422C2.8667 6.88401 2.81204 6.33437 2.84632 5.78667V5.78794Z" fill="#606060"/>
<path d="M5.21256 3.42298C4.78348 3.85212 4.46361 4.37792 4.27979 4.95626C4.09598 5.5346 4.05358 6.14859 4.15615 6.74671C4.25873 7.34482 4.50329 7.9096 4.8693 8.39364C5.23532 8.87768 5.71211 9.26686 6.25965 9.52851L7.23972 8.54717C6.81096 8.43216 6.42001 8.20633 6.10617 7.89236C5.79234 7.57839 5.56666 7.18735 5.45184 6.75854C5.33701 6.32972 5.33706 5.87824 5.452 5.44945C5.56694 5.02066 5.79272 4.62968 6.10664 4.31579L8.41707 2.00409C8.89166 1.52951 9.53533 1.26289 10.2065 1.26289C10.8777 1.26289 11.5213 1.52951 11.9959 2.00409C12.4705 2.47868 12.7371 3.12235 12.7371 3.79351C12.7371 4.46467 12.4705 5.10835 11.9959 5.58293L10.9931 6.5845C11.1347 7.11564 11.1891 7.66574 11.155 8.21205L12.89 6.47701C13.6015 5.76547 14.0013 4.80041 14.0013 3.79414C14.0013 2.78787 13.6015 1.82282 12.89 1.11128C12.1785 0.399739 11.2134 0 10.2071 0C9.20086 0 8.2358 0.399739 7.52426 1.11128L5.21256 3.42298Z" fill="#606060"/>
</svg>
