<svg width="36" height="41" viewBox="0 0 36 41" fill="none" xmlns="http://www.w3.org/2000/svg">
<rect x="0.5" y="0.5" width="35" height="40" rx="3.5" fill="white" stroke="#A0A0A0"/>
<path d="M0 23H36V37C36 39.2091 34.2091 41 32 41H4C1.79086 41 0 39.2091 0 37V23Z" fill="#606060"/>
<path d="M26.3203 14V13.1797C26.3203 12.4505 26.0859 11.8516 25.6172 11.3828C25.1484 10.9141 24.5495 10.6797 23.8203 10.6797H18.8203V9C19.2891 9 19.6862 8.83724 20.0117 8.51172C20.3372 8.1862 20.5 7.78906 20.5 7.32031V5.67969C20.5 5.21094 20.3372 4.8138 20.0117 4.48828C19.6862 4.16276 19.2891 4 18.8203 4H17.1797C16.7109 4 16.3138 4.16276 15.9883 4.48828C15.6628 4.8138 15.5 5.21094 15.5 5.67969V7.32031C15.5 7.78906 15.6628 8.1862 15.9883 8.51172C16.3138 8.83724 16.7109 9 17.1797 9V10.6797H12.1797C11.4505 10.6797 10.8516 10.9141 10.3828 11.3828C9.91406 11.8516 9.67969 12.4505 9.67969 13.1797V14C9.21094 14 8.8138 14.1628 8.48828 14.4883C8.16276 14.8138 8 15.2109 8 15.6797V17.3203C8 17.7891 8.16276 18.1862 8.48828 18.5117C8.8138 18.8372 9.21094 19 9.67969 19H11.3203C11.7891 19 12.1862 18.8372 12.5117 18.5117C12.8372 18.1862 13 17.7891 13 17.3203V15.6797C13 15.2109 12.8372 14.8138 12.5117 14.4883C12.1862 14.1628 11.7891 14 11.3203 14V13.1797C11.3203 12.6068 11.6068 12.3203 12.1797 12.3203H17.1797V14C16.7109 14 16.3138 14.1628 15.9883 14.4883C15.6628 14.8138 15.5 15.2109 15.5 15.6797V17.3203C15.5 17.7891 15.6628 18.1862 15.9883 18.5117C16.3138 18.8372 16.7109 19 17.1797 19H18.8203C19.2891 19 19.6862 18.8372 20.0117 18.5117C20.3372 18.1862 20.5 17.7891 20.5 17.3203V15.6797C20.5 15.2109 20.3372 14.8138 20.0117 14.4883C19.6862 14.1628 19.2891 14 18.8203 14V12.3203H23.8203C24.3932 12.3203 24.6797 12.6068 24.6797 13.1797V14C24.2109 14 23.8138 14.1628 23.4883 14.4883C23.1628 14.8138 23 15.2109 23 15.6797V17.3203C23 17.7891 23.1628 18.1862 23.4883 18.5117C23.8138 18.8372 24.2109 19 24.6797 19H26.3203C26.7891 19 27.1862 18.8372 27.5117 18.5117C27.8372 18.1862 28 17.7891 28 17.3203V15.6797C28 15.2109 27.8372 14.8138 27.5117 14.4883C27.1862 14.1628 26.7891 14 26.3203 14ZM17.1797 5.67969H18.8203V7.32031H17.1797V5.67969ZM11.3203 17.3203H9.67969V15.6797H11.3203V17.3203ZM18.8203 17.3203H17.1797V15.6797H18.8203V17.3203ZM24.6797 17.3203V15.6797H26.3203V17.3203H24.6797Z" fill="#606060"/>
<path d="M5.43052 36.084L5.35852 35.256L6.07852 35.208C6.48652 35.176 6.79852 35.036 7.01452 34.788C7.23052 34.532 7.33852 34.184 7.33852 33.744V27.54H8.32252V33.756C8.32252 34.452 8.14252 34.996 7.78252 35.388C7.42252 35.772 6.89852 35.988 6.21052 36.036L5.43052 36.084ZM13.9651 36.108C13.1811 36.108 12.4971 35.932 11.9131 35.58C11.3371 35.22 10.8891 34.716 10.5691 34.068C10.2571 33.42 10.1011 32.652 10.1011 31.764C10.1011 30.876 10.2571 30.108 10.5691 29.46C10.8811 28.812 11.3251 28.312 11.9011 27.96C12.4851 27.608 13.1731 27.432 13.9651 27.432C14.7651 27.432 15.4531 27.608 16.0291 27.96C16.6131 28.312 17.0611 28.812 17.3731 29.46C17.6931 30.1 17.8531 30.864 17.8531 31.752C17.8531 32.64 17.6931 33.412 17.3731 34.068C17.0531 34.716 16.6011 35.22 16.0171 35.58C15.4411 35.932 14.7571 36.108 13.9651 36.108ZM13.9651 35.232C14.8691 35.232 15.5691 34.928 16.0651 34.32C16.5611 33.712 16.8091 32.86 16.8091 31.764C16.8091 30.668 16.5611 29.82 16.0651 29.22C15.5691 28.612 14.8691 28.308 13.9651 28.308C13.0771 28.308 12.3851 28.612 11.8891 29.22C11.3931 29.82 11.1451 30.668 11.1451 31.764C11.1451 32.852 11.3931 33.704 11.8891 34.32C12.3851 34.928 13.0771 35.232 13.9651 35.232ZM19.6124 36V27.54H20.5964V36H19.6124ZM22.6827 36V27.54H23.4507L28.5507 34.344V27.54H29.4627V36H28.7187L23.6067 29.172V36H22.6827Z" fill="white"/>
</svg>
