<svg width="19" height="20" viewBox="0 0 19 20" fill="none" xmlns="http://www.w3.org/2000/svg">
<path d="M14.722 5.35881C14.6011 5.14688 14.4395 4.96096 14.2465 4.81175C14.0534 4.66253 13.8328 4.55297 13.5973 4.48938C13.3617 4.42578 13.1159 4.4094 12.874 4.44119C12.6321 4.47297 12.3989 4.55229 12.1878 4.67458C11.8113 4.88862 11.5237 5.23015 11.3769 5.63757L9.89014 3.07805C9.76926 2.86613 9.60766 2.6802 9.41463 2.53099C9.22161 2.38177 9.00097 2.27221 8.76543 2.20862C8.52989 2.14502 8.28409 2.12865 8.0422 2.16043C7.8003 2.19222 7.56708 2.27154 7.35597 2.39382C6.97949 2.60787 6.69188 2.9494 6.54503 3.35681C6.28717 2.95261 5.88369 2.66312 5.41819 2.54832C4.95269 2.43351 4.46087 2.50221 4.04464 2.74016C3.83344 2.86264 3.64856 3.02572 3.50068 3.22C3.3528 3.41427 3.24484 3.63589 3.18303 3.87209C3.07522 4.25104 3.09602 4.65504 3.24216 5.02092C2.93872 5.02752 2.64206 5.11187 2.38054 5.26589C1.95364 5.51326 1.64202 5.91958 1.51381 6.39602C1.3856 6.87247 1.45121 7.3803 1.69631 7.80851L2.16936 8.611C1.74252 8.54279 1.30515 8.62015 0.927611 8.83063C0.716099 8.95302 0.530802 9.11593 0.38233 9.31003C0.233857 9.50413 0.125124 9.7256 0.0623534 9.96177C-0.000416929 10.1979 -0.0159913 10.4442 0.0165218 10.6864C0.0490349 10.9286 0.128997 11.162 0.251831 11.3733L3.37731 16.7879C3.98773 17.848 4.88866 18.7113 5.97377 19.276C7.05888 19.8407 8.28288 20.0831 9.50132 19.9748C10.7198 19.8665 11.8818 19.4118 12.8502 18.6645C13.8187 17.9172 14.5531 16.9085 14.9669 15.7574C16.0285 14.7654 16.7238 13.4439 16.94 12.0071C17.1562 10.5704 16.8806 9.10275 16.158 7.8423L14.722 5.35881ZM7.69386 2.97668C7.96607 2.82104 8.28896 2.77988 8.59152 2.86225C8.89407 2.94462 9.15153 3.14378 9.30728 3.41594L11.3515 6.95534C11.0598 6.96894 10.7758 7.05299 10.5237 7.20031C10.1492 7.41519 9.85998 7.75218 9.7043 8.15485L8.22603 5.59533C8.03914 5.2645 7.75231 5.00132 7.40665 4.84353L7.26305 4.59856C7.1063 4.32608 7.06362 4.00268 7.14432 3.69887C7.22502 3.39505 7.42255 3.13546 7.69386 2.97668ZM3.83346 4.04948C3.89445 3.82453 4.02055 3.6226 4.19592 3.46908C4.3713 3.31556 4.58813 3.21728 4.81918 3.18659C5.05023 3.15591 5.2852 3.19418 5.49457 3.2966C5.70394 3.39903 5.87837 3.56104 5.99596 3.76228L6.52814 4.67458C6.23334 4.68543 5.94591 4.76963 5.69186 4.91955C5.31489 5.13301 5.02712 5.47474 4.88092 5.88254C4.68807 5.58351 4.41615 5.34375 4.09533 5.18986L3.95173 4.94489C3.87254 4.81138 3.82124 4.66319 3.80091 4.5093C3.78058 4.3554 3.79166 4.19898 3.83346 4.04948ZM11.8077 18.5534C10.4876 19.3131 8.92021 19.5182 7.44912 19.1239C5.97803 18.7296 4.72334 17.7681 3.96017 16.45L0.834691 11.0354C0.746672 10.9008 0.687008 10.7498 0.659343 10.5914C0.631678 10.433 0.636594 10.2707 0.67379 10.1143C0.710986 9.95787 0.779682 9.81069 0.875679 9.68173C0.971676 9.55277 1.09296 9.44474 1.23212 9.36423C1.37128 9.28372 1.52539 9.23244 1.68504 9.2135C1.84468 9.19457 2.00652 9.20839 2.16065 9.25411C2.31477 9.29983 2.45796 9.3765 2.58146 9.47942C2.70496 9.58235 2.80618 9.70938 2.87892 9.85275L4.90626 13.3668C4.93682 13.418 4.98009 13.4605 5.03189 13.4901C5.08369 13.5197 5.14226 13.5354 5.20192 13.5357C5.262 13.5359 5.32079 13.5183 5.37086 13.4851C5.44753 13.4408 5.50376 13.3682 5.52746 13.2829C5.55116 13.1976 5.54042 13.1064 5.49757 13.0289L2.28762 7.47062C2.1996 7.33609 2.13993 7.18502 2.11227 7.02665C2.0846 6.86828 2.08952 6.70594 2.12672 6.54953C2.16391 6.39313 2.23261 6.24595 2.32861 6.11699C2.4246 5.98803 2.54589 5.88 2.68504 5.79949C2.8242 5.71899 2.97831 5.6677 3.13796 5.64877C3.29761 5.62983 3.45944 5.64365 3.61357 5.68937C3.7677 5.73509 3.91089 5.81176 4.03439 5.91468C4.15789 6.01761 4.2591 6.14464 4.33185 6.28801L7.54181 11.8463C7.56444 11.8847 7.59444 11.9182 7.63009 11.9449C7.66573 11.9717 7.70632 11.9911 7.7495 12.0021C7.79268 12.0131 7.83761 12.0154 7.8817 12.009C7.92579 12.0025 7.96817 11.9874 8.0064 11.9646C8.08307 11.9203 8.13931 11.8477 8.163 11.7624C8.1867 11.6771 8.17596 11.5859 8.13311 11.5084L5.59894 7.11584C5.46209 6.84615 5.43376 6.53429 5.51977 6.24436C5.60577 5.95443 5.79958 5.70847 6.06135 5.55703C6.32312 5.4056 6.63295 5.3602 6.92716 5.43017C7.22137 5.50013 7.4776 5.68016 7.64317 5.93322L11.191 12.0828C11.2128 12.1221 11.2424 12.1565 11.2779 12.1839C11.3135 12.2113 11.3543 12.2311 11.3978 12.2422C11.4413 12.2533 11.4866 12.2553 11.531 12.2483C11.5753 12.2412 11.6177 12.2251 11.6556 12.2011C11.6937 12.1793 11.7271 12.15 11.7537 12.1152C11.7803 12.0803 11.7997 12.0404 11.8108 11.9979C11.8218 11.9554 11.8242 11.9111 11.8179 11.8677C11.8115 11.8242 11.7966 11.7825 11.7739 11.7449L10.4223 9.39659C10.2703 9.12409 10.228 8.80382 10.3041 8.50119C10.3871 8.19845 10.5864 7.94076 10.8585 7.78415C11.1306 7.62755 11.4535 7.58469 11.757 7.66491L11.8668 7.6987C12.1214 7.79335 12.336 7.97218 12.475 8.20553L13.911 10.6975C14.6733 12.0183 14.88 13.5877 14.4856 15.0609C14.0912 16.534 13.128 17.7902 11.8077 18.5534ZM15.3048 14.3467C15.4758 12.9675 15.191 11.5703 14.4939 10.368L13.0579 7.87609C12.8648 7.54713 12.576 7.28486 12.23 7.12428L12.0864 6.87931C11.9344 6.60681 11.8921 6.28654 11.9682 5.9839C12.0083 5.83298 12.0783 5.69165 12.174 5.56831C12.2698 5.44497 12.3894 5.34213 12.5257 5.26589C12.7969 5.10954 13.119 5.0671 13.4214 5.14785C13.7239 5.22861 13.9819 5.42598 14.1391 5.6967L15.5751 8.18019C16.1167 9.12877 16.3787 10.2113 16.3309 11.3025C16.283 12.3937 15.9273 13.4491 15.3048 14.3467ZM13.0579 1.55755L13.4126 0.248222C13.4364 0.162086 13.4932 0.088845 13.5708 0.0445201C13.6483 0.000195281 13.7403 -0.0116054 13.8266 0.0116993C13.9127 0.035408 13.9859 0.0922652 14.0303 0.169834C14.0746 0.247402 14.0864 0.339368 14.0631 0.425615L13.7167 1.73494C13.6951 1.80556 13.6515 1.86743 13.5922 1.9115C13.533 1.95557 13.4612 1.97954 13.3873 1.97991H13.3028C13.2145 1.95613 13.1392 1.89837 13.0933 1.81924C13.0474 1.74011 13.0346 1.64603 13.0579 1.55755ZM15.2372 2.44451L16.0144 1.33792C16.0378 1.29703 16.0695 1.26149 16.1074 1.23357C16.1454 1.20565 16.1887 1.18597 16.2347 1.1758C16.2807 1.16563 16.3283 1.16519 16.3745 1.17451C16.4207 1.18383 16.4644 1.2027 16.5029 1.22991C16.5413 1.25713 16.5737 1.29208 16.5978 1.33253C16.6219 1.37298 16.6374 1.41803 16.6431 1.46479C16.6488 1.51155 16.6446 1.55899 16.6309 1.60406C16.6172 1.64912 16.5942 1.69083 16.5635 1.72649L15.7948 2.83308C15.7624 2.87678 15.7204 2.91245 15.6721 2.93735C15.6238 2.96225 15.5704 2.97571 15.516 2.97668C15.4458 2.9749 15.3779 2.95128 15.3217 2.90911C15.2852 2.88455 15.254 2.85291 15.2298 2.81608C15.2057 2.77924 15.1893 2.73795 15.1814 2.69464C15.1735 2.65133 15.1744 2.60688 15.184 2.56392C15.1936 2.52096 15.2117 2.48035 15.2372 2.44451ZM18.4725 3.79607L17.366 4.57321C17.2928 4.62259 17.2033 4.64139 17.1164 4.62561C17.0296 4.60982 16.9524 4.5607 16.9014 4.48874C16.8752 4.45273 16.8564 4.4119 16.846 4.3686C16.8357 4.3253 16.834 4.28037 16.841 4.23641C16.8481 4.19245 16.8638 4.15033 16.8872 4.11245C16.9106 4.07457 16.9412 4.04169 16.9774 4.0157L18.084 3.247C18.1196 3.21622 18.1613 3.19324 18.2064 3.17953C18.2515 3.16582 18.2989 3.16168 18.3457 3.16739C18.3924 3.1731 18.4375 3.18852 18.4779 3.21267C18.5184 3.23681 18.5533 3.26915 18.5805 3.3076C18.6078 3.34606 18.6266 3.38977 18.636 3.43595C18.6453 3.48213 18.6448 3.52974 18.6347 3.57574C18.6245 3.62174 18.6048 3.6651 18.5769 3.70304C18.549 3.74099 18.5134 3.77267 18.4725 3.79607Z" fill="#606060"/>
</svg>
