<svg width="9" height="12" viewBox="0 0 9 12" fill="none" xmlns="http://www.w3.org/2000/svg">
<path fill-rule="evenodd" clip-rule="evenodd" d="M7.2295 1.55804C6.54009 0.868429 5.60883 0.474995 4.63381 0.461426H4.59688C3.62178 0.474798 2.69038 0.868101 2.00082 1.55767C1.31125 2.24723 0.917948 3.17863 0.904576 4.15373C0.892576 4.84604 1.08734 5.52635 1.46396 6.10789L4.36981 11.9999H4.86181L7.76673 6.10789C8.14427 5.52635 8.33904 4.84604 8.32612 4.15373C8.31255 3.17871 7.91911 2.24745 7.2295 1.55804ZM4.54611 1.3845L4.62181 1.39373L4.69011 1.3845C5.41525 1.41608 6.10074 1.72426 6.60567 2.24567C7.1106 2.76708 7.3966 3.46211 7.40488 4.18789C7.41195 4.70299 7.26155 5.20797 6.97381 5.63527L6.95534 5.66666L6.93965 5.69896L4.61534 10.4113L2.29196 5.70358L2.27627 5.66758L2.25781 5.6362C1.97007 5.20889 1.81967 4.70391 1.82673 4.18881C1.8346 3.46219 2.12094 2.76628 2.62672 2.24453C3.1325 1.72278 3.81917 1.41495 4.54519 1.3845H4.54611ZM5.11104 3.38666C5.01024 3.31926 4.89716 3.27237 4.77825 3.24868C4.65933 3.22498 4.53691 3.22494 4.41798 3.24855C4.29905 3.27217 4.18594 3.31898 4.0851 3.38631C3.98426 3.45364 3.89767 3.54017 3.83027 3.64096C3.76287 3.74176 3.71598 3.85484 3.69229 3.97376C3.66859 4.09267 3.66855 4.21509 3.69217 4.33402C3.71578 4.45295 3.76259 4.56606 3.82992 4.6669C3.89725 4.76774 3.98378 4.85433 4.08458 4.92173C4.28814 5.05785 4.53744 5.10753 4.77763 5.05984C5.01782 5.01214 5.22923 4.87099 5.36535 4.66743C5.50146 4.46386 5.55114 4.21456 5.50345 3.97437C5.45575 3.73418 5.3146 3.52277 5.11104 3.38666ZM3.57227 2.61866C3.77368 2.47708 4.00137 2.37721 4.24195 2.32494C4.48252 2.27266 4.73113 2.26903 4.97313 2.31426C5.21513 2.35949 5.44564 2.45267 5.65109 2.58831C5.85655 2.72395 6.0328 2.89931 6.16948 3.10408C6.30615 3.30885 6.40049 3.53888 6.44694 3.78065C6.4934 4.02242 6.49102 4.27104 6.43996 4.51188C6.38891 4.75271 6.29019 4.98091 6.14963 5.18303C6.00907 5.38515 5.82951 5.55712 5.6215 5.68881C5.21433 5.9466 4.7225 6.03495 4.25107 5.93501C3.77963 5.83506 3.36597 5.55473 3.09843 5.15391C2.83089 4.75308 2.73068 4.26353 2.81922 3.78982C2.90776 3.31611 3.17802 2.89579 3.57227 2.61866Z" fill="#31393C"/>
</svg>
