<svg width="148" height="140" viewBox="0 0 148 140" fill="none" xmlns="http://www.w3.org/2000/svg">
<path d="M74.6371 140C114.659 140 147.103 138.106 147.103 135.769C147.103 133.432 114.659 131.538 74.6371 131.538C34.6151 131.538 2.1709 133.432 2.1709 135.769C2.1709 138.106 34.6151 140 74.6371 140Z" fill="#F5F5F5"/>
<path d="M8.87964 134.925V135.769H140.394V81.228H131.555L116.37 91.1548H101.887L85.6477 101.769V106.041H78.9688L60.4869 118.121H48.2092L32.9154 128.119H21.9908L8.87964 134.925Z" fill="#505050"/>
<path opacity="0.2" d="M8.87964 134.925V135.769H140.394V81.228H131.555L116.37 91.1548H101.887L85.6477 101.769V106.041H78.9688L60.4869 118.121H48.2092L32.9154 128.119H21.9908L8.87964 134.925Z" fill="black"/>
<path d="M17.7188 135.769H140.394V82.0728L125.209 91.9958H110.726L94.4868 102.61V106.886H87.8079L69.326 118.966H57.0484L41.7583 128.963H30.8299L17.7188 135.769Z" fill="#505050"/>
<path opacity="0.1" d="M17.7188 135.769H140.394V82.0728L125.209 91.9958H110.726L94.4868 102.61V106.886H87.8079L69.326 118.966H57.0484L41.7583 128.963H30.8299L17.7188 135.769Z" fill="white"/>
<path d="M43.6159 35.0249C43.0926 35.6341 42.4946 36.3144 41.9826 36.9834C41.4705 37.6524 40.9099 38.3326 40.4016 39.024C39.3876 40.3649 38.4744 41.779 37.6695 43.2549L37.3967 43.7968L37.2958 44.0024C37.2659 44.0584 37.2434 44.1369 37.2135 44.2042C37.0932 44.5484 36.9971 44.9006 36.9258 45.2582C36.7688 46.0356 36.6492 46.8802 36.552 47.7361C36.3763 49.4479 36.2605 51.2382 36.1521 52.9948L34.1002 53.1779C33.7038 51.3608 33.4538 49.5148 33.3527 47.6576C33.2997 46.6911 33.3122 45.7222 33.3901 44.7574C33.4285 44.223 33.5123 43.6928 33.6405 43.1727C33.6816 43.0269 33.7115 42.8886 33.7676 42.7354C33.8236 42.5821 33.876 42.4139 33.9171 42.3168L34.1974 41.6291C34.5794 40.7317 35.015 39.858 35.5018 39.0128C35.969 38.1756 36.4885 37.3833 36.9968 36.6059C37.5051 35.8285 38.0844 35.0735 38.6712 34.3634C38.9627 33.9896 39.2617 33.6159 39.5644 33.2758C39.8672 32.9357 40.1699 32.5806 40.5212 32.2031L43.6159 35.0249Z" fill="#A0A0A0"/>
<path d="M44.2923 35.9668C43.9186 36.6583 43.4962 37.3273 43.0889 37.9514C42.3862 39.0316 41.706 39.9659 41.2201 40.6088C40.7828 41.1881 40.5025 41.5282 40.5025 41.5282L34.9673 37.7571C34.9673 37.7571 38.331 31.209 40.9211 30.7904C43.5897 30.3681 46.0303 32.8647 44.2923 35.9668Z" fill="#505050"/>
<path opacity="0.3" d="M44.2923 35.9668C43.9186 36.6583 43.4962 37.3273 43.0889 37.9514C42.3862 39.0316 41.706 39.9659 41.2201 40.6088C40.7828 41.1881 40.5025 41.5282 40.5025 41.5282L34.9673 37.7571C34.9673 37.7571 38.331 31.209 40.9211 30.7904C43.5897 30.3681 46.0303 32.8647 44.2923 35.9668Z" fill="black"/>
<path d="M54.0435 115.822H56.7868L57.0596 109.465H54.3163L54.0435 115.822Z" fill="#A0A0A0"/>
<path d="M27.3428 103.978L29.5703 105.585L34.8252 101.537L32.5977 99.9302L27.3428 103.978Z" fill="#A0A0A0"/>
<path d="M57.0597 109.465L56.9214 112.743H54.1743L54.3126 109.465H57.0597Z" fill="#CE6F64"/>
<path d="M32.5976 99.9302L34.8252 101.537L32.1117 103.623L29.8879 102.016L32.5976 99.9302Z" fill="#CE6F64"/>
<path d="M51.2588 54.6655C51.2588 54.6655 51.5728 74.2051 49.1173 81.867C45.2303 94.0026 33.4871 103.832 33.4871 103.832L29.2861 100.801C29.2861 100.801 39.0597 92.4964 40.8724 82.2781C42.4832 73.0951 41.7992 62.1667 41.7992 54.6655H51.2588Z" fill="#505050"/>
<path opacity="0.7" d="M51.2588 54.6655C51.2588 54.6655 51.5728 74.2051 49.1173 81.867C45.2303 94.0026 33.4871 103.832 33.4871 103.832L29.2861 100.801C29.2861 100.801 39.0597 92.4964 40.8724 82.2781C42.4832 73.0951 41.7992 62.1667 41.7992 54.6655H51.2588Z" fill="white"/>
<path d="M36.2492 52.4905L37.2396 54.2696L33.7713 54.7853C33.7713 54.7853 33.4162 53.2903 34.2721 52.2588L36.2492 52.4905Z" fill="#A0A0A0"/>
<path d="M37.7629 56.6354L34.8775 56.9269L33.7712 54.7853L37.2396 54.2695L37.7629 56.6354Z" fill="#A0A0A0"/>
<path d="M53.7594 20.7332C53.7931 20.95 53.9351 21.1069 54.0809 21.1069C54.2266 21.1069 54.3089 20.8864 54.2752 20.6696C54.2416 20.4529 54.0996 20.2959 53.9538 20.2959C53.808 20.2959 53.7258 20.5127 53.7594 20.7332Z" fill="#263238"/>
<path d="M53.9165 21.1143C54.2819 21.7413 54.7321 22.3148 55.2545 22.8186C55.1232 22.951 54.9645 23.053 54.7895 23.1176C54.6145 23.1822 54.4275 23.2077 54.2417 23.1923L53.9165 21.1143Z" fill="#DE5753"/>
<path d="M52.7727 19.6418C52.756 19.6423 52.7393 19.6395 52.7237 19.6336C52.7081 19.6277 52.6938 19.6187 52.6817 19.6073C52.6695 19.5958 52.6598 19.5821 52.6529 19.5668C52.6461 19.5516 52.6423 19.5352 52.6418 19.5185C52.6418 19.5003 52.6454 19.4824 52.6525 19.4657C52.6595 19.449 52.6699 19.4339 52.683 19.4213C52.8265 19.2741 53.0032 19.1634 53.1982 19.0984C53.3933 19.0334 53.6011 19.0159 53.8042 19.0476C53.8211 19.0507 53.8371 19.0571 53.8514 19.0666C53.8657 19.0761 53.8779 19.0883 53.8874 19.1026C53.8968 19.117 53.9032 19.133 53.9063 19.1499C53.9093 19.1668 53.9089 19.1841 53.9051 19.2008C53.902 19.2173 53.8956 19.2329 53.8864 19.2469C53.8772 19.2609 53.8653 19.273 53.8514 19.2824C53.8375 19.2917 53.8219 19.2983 53.8054 19.3016C53.789 19.3049 53.7721 19.305 53.7556 19.3017C53.594 19.2797 53.4294 19.2963 53.2754 19.3502C53.1214 19.4042 52.9824 19.4938 52.8698 19.6119C52.8567 19.6235 52.8412 19.6322 52.8245 19.6373C52.8077 19.6425 52.7901 19.644 52.7727 19.6418Z" fill="#263238"/>
<path d="M46.4563 23.1436C46.8525 25.1506 47.2449 28.832 45.8396 30.17C45.8396 30.17 46.389 32.2107 50.119 32.2107C54.2303 32.2107 52.0812 30.17 52.0812 30.17C49.8387 29.6356 49.8985 27.9761 50.291 26.4325L46.4563 23.1436Z" fill="#A0A0A0"/>
<path d="M44.3147 31.5304C44.7595 30.8352 44.012 29.1608 44.012 29.1608C44.012 29.1608 50.6236 27.4977 53.3221 30.0504C53.8827 30.5774 53.2623 31.3548 53.2623 31.3548L44.3147 31.5304Z" fill="#505050"/>
<path d="M30.7441 106.901C30.3965 106.901 29.8882 106.22 29.7462 105.978C29.7391 105.967 29.7354 105.955 29.7354 105.942C29.7354 105.929 29.7391 105.917 29.7462 105.907C29.7537 105.897 29.7635 105.89 29.7746 105.885C29.7857 105.881 29.7978 105.879 29.8097 105.88C29.8471 105.88 30.7478 106.075 30.9571 106.43C30.981 106.467 30.9964 106.509 31.0022 106.553C31.008 106.597 31.0041 106.642 30.9908 106.684C30.9385 106.845 30.8413 106.889 30.7703 106.897L30.7441 106.901ZM29.9405 106.045C30.176 106.389 30.5647 106.792 30.7591 106.77C30.7777 106.77 30.8338 106.77 30.8712 106.643C30.8788 106.618 30.8807 106.593 30.8768 106.567C30.8729 106.542 30.8633 106.518 30.8488 106.497C30.5974 106.257 30.282 106.095 29.9405 106.03V106.045Z" fill="#505050"/>
<path d="M30.2468 106.049C30.0892 106.052 29.9318 106.033 29.7796 105.993C29.7703 105.986 29.7628 105.978 29.7575 105.968C29.7523 105.959 29.7495 105.948 29.7495 105.936C29.7495 105.925 29.7523 105.914 29.7575 105.905C29.7628 105.895 29.7703 105.887 29.7796 105.88C29.8058 105.858 30.4224 105.365 30.8298 105.406C30.8795 105.411 30.9276 105.427 30.9713 105.451C31.015 105.475 31.0533 105.508 31.084 105.548C31.1183 105.583 31.139 105.63 31.1425 105.679C31.1459 105.728 31.1318 105.777 31.1027 105.817C30.9681 105.981 30.5869 106.049 30.2468 106.049ZM29.9515 105.899C30.2991 105.951 30.8709 105.899 30.9793 105.742C30.9882 105.723 30.9911 105.702 30.9878 105.681C30.9844 105.661 30.975 105.641 30.9606 105.626C30.9411 105.601 30.9164 105.579 30.8881 105.564C30.8597 105.548 30.8284 105.539 30.7962 105.537C30.4844 105.569 30.1899 105.695 29.9515 105.899Z" fill="#505050"/>
<path d="M57.8895 115.964C57.6076 115.96 57.3264 115.934 57.0486 115.886C57.0355 115.883 57.0234 115.877 57.014 115.868C57.0046 115.859 56.9984 115.846 56.9963 115.833C56.994 115.82 56.996 115.806 57.0021 115.794C57.0081 115.782 57.0179 115.772 57.0299 115.766C57.071 115.744 58.0278 115.194 58.4875 115.321C58.5302 115.331 58.5704 115.349 58.6057 115.375C58.6411 115.401 58.6708 115.433 58.6931 115.471C58.7224 115.512 58.7381 115.562 58.7381 115.613C58.7381 115.664 58.7224 115.713 58.6931 115.755C58.5847 115.916 58.2446 115.964 57.8895 115.964ZM57.2579 115.788C57.7699 115.863 58.4651 115.856 58.5922 115.68C58.6107 115.633 58.6107 115.581 58.5922 115.534C58.5781 115.511 58.5591 115.491 58.5365 115.475C58.514 115.46 58.4883 115.449 58.4614 115.445C58.1698 115.37 57.5943 115.617 57.2579 115.788Z" fill="#505050"/>
<path d="M57.0709 115.871H57.0335C57.0241 115.864 57.0168 115.855 57.0122 115.844C57.0076 115.834 57.0059 115.822 57.0073 115.811C57.0381 115.42 57.1911 115.049 57.4446 114.749C57.4963 114.707 57.5559 114.675 57.6201 114.655C57.6843 114.636 57.7518 114.63 57.8184 114.637C57.8742 114.631 57.9304 114.646 57.975 114.68C58.0196 114.715 58.0492 114.765 58.0576 114.82C58.1099 115.131 57.4521 115.725 57.1232 115.874L57.0709 115.871ZM57.7436 114.749C57.6606 114.751 57.5804 114.78 57.5156 114.832C57.3081 115.07 57.1778 115.366 57.1419 115.68C57.482 115.474 57.9268 115.007 57.8894 114.824C57.8894 114.824 57.8894 114.761 57.7623 114.749H57.7436Z" fill="#505050"/>
<path d="M29.888 105.563L27.7539 103.32C27.7155 103.281 27.6652 103.256 27.6109 103.249C27.5566 103.243 27.5017 103.254 27.4549 103.283L25.3208 104.583C25.2756 104.61 25.2361 104.646 25.2047 104.688C25.1732 104.73 25.1504 104.778 25.1376 104.829C25.1247 104.88 25.1221 104.933 25.1298 104.986C25.1375 105.038 25.1554 105.088 25.1825 105.133C25.2007 105.161 25.222 105.188 25.246 105.211C25.9935 105.959 26.4121 106.306 27.3503 107.286C27.9296 107.887 29.503 110.003 30.2991 110.836C31.0952 111.67 32.0259 110.986 31.7717 110.575C30.6505 108.728 30.1048 106.897 30.0749 105.985C30.0674 105.826 30.0008 105.675 29.888 105.563Z" fill="#263238"/>
<path d="M56.7679 115.497H53.7779C53.7237 115.497 53.671 115.515 53.6288 115.549C53.5865 115.583 53.5574 115.631 53.5462 115.684L53.0005 118.113C52.977 118.216 52.9952 118.325 53.0513 118.414C53.1073 118.504 53.1965 118.568 53.2995 118.592C53.3318 118.595 53.3644 118.595 53.3967 118.592C54.4805 118.592 56.0428 118.509 57.4033 118.509C58.9917 118.509 60.3634 118.595 62.2284 118.595C63.3496 118.595 63.6673 117.456 63.1964 117.355C61.0473 116.884 59.2944 116.831 57.4369 115.688C57.2356 115.564 57.0041 115.498 56.7679 115.497Z" fill="#263238"/>
<path opacity="0.3" d="M43.089 37.9517C42.3863 39.0319 41.7061 39.9662 41.2202 40.6091C41.2763 39.3234 41.5416 37.2453 42.5395 35.6606C42.9021 36.0194 43.0478 36.9463 43.089 37.9517Z" fill="black"/>
<path d="M58.1919 33.5C58.3414 33.7355 58.6142 34.0943 58.8646 34.4269C59.115 34.7595 59.4028 35.0996 59.6869 35.436C60.2587 36.105 60.8418 36.7703 61.451 37.4094C62.6241 38.6794 63.9101 39.8403 65.2931 40.8778C65.6145 41.1126 65.9475 41.3309 66.291 41.5319L66.519 41.6627C66.5452 41.6627 66.5564 41.6963 66.605 41.7113L66.6648 41.7374L66.747 41.7636C66.8083 41.7825 66.8707 41.7975 66.9339 41.8084C67.6785 41.9125 68.4347 41.9024 69.1764 41.7785C70.9276 41.5015 72.6583 41.1069 74.3565 40.5975L75.2423 42.4662C73.5773 43.5429 71.7728 44.3867 69.879 44.9741C68.8081 45.3209 67.6851 45.479 66.5601 45.4413C66.3911 45.4331 66.2227 45.4156 66.0556 45.389L65.7977 45.3404L65.5211 45.2731C65.3273 45.2206 65.1375 45.1544 64.953 45.075L64.8371 45.0264L64.7437 44.9816L64.5568 44.8919C64.0747 44.6564 63.6075 44.3985 63.1515 44.1182C61.4692 43.0226 59.9103 41.7482 58.5021 40.3172C57.8107 39.6183 57.1379 38.9081 56.5063 38.1532C56.1849 37.7794 55.8746 37.4057 55.5644 36.9871C55.2255 36.554 54.9146 36.0995 54.6338 35.6266L58.1919 33.5Z" fill="#A0A0A0"/>
<path d="M73.9158 41.0948L75.7397 38.9233L76.9805 42.0927C76.9805 42.0927 75.407 42.8402 74.1811 42.4104L73.9158 41.0948Z" fill="#A0A0A0"/>
<path d="M78.4157 38.4521L78.924 40.9862L76.9805 42.0925L75.7434 38.9231L78.4157 38.4521Z" fill="#A0A0A0"/>
<path d="M46.3891 21.4093C46.9722 24.0704 47.1815 25.6588 48.7549 26.8249C51.1208 28.5815 54.2453 26.8249 54.4658 24.0479C54.6639 21.5438 53.6735 17.612 50.8778 16.9467C50.2611 16.7984 49.6167 16.8105 49.006 16.9818C48.3952 17.1531 47.8385 17.4779 47.3889 17.9253C46.9393 18.3727 46.6117 18.9277 46.4373 19.5376C46.2629 20.1475 46.2476 20.7918 46.3928 21.4093H46.3891Z" fill="#A0A0A0"/>
<path d="M45.2641 16.2108C42.9282 16.2743 42.6478 18.5729 43.8065 19.2494C43.8065 19.2494 42.461 19.896 43.1524 21.4396C44.2064 23.783 46.2246 26.3581 48.2877 26.2161C50.8479 26.0404 51.5767 23.2522 51.487 20.5015C52.8362 19.227 52.0215 18.6065 53.3558 17.8291C55.7178 16.4537 56.9138 12.5107 52.982 12.5705C48.953 12.634 51.2254 16.0501 45.2641 16.2108Z" fill="#263238"/>
<path d="M44.0979 18.9129C44.0979 18.9129 43.1972 19.3801 41.8105 18.5728C42.2927 19.7538 43.7727 20.2397 44.0979 18.9129Z" fill="#263238"/>
<path d="M50.0818 21.1626C50.1542 21.8362 50.4472 22.4669 50.9152 22.9566C51.5356 23.5957 52.1449 23.1622 52.2233 22.3549C52.2944 21.6298 52.0552 20.4226 51.3114 20.0862C50.5676 19.7499 50.0033 20.3479 50.0818 21.1626Z" fill="#A0A0A0"/>
<path d="M35.2738 102.947L33.5508 103.974L28.9612 100.663L30.4898 99.4932L35.2738 102.947Z" fill="#505050"/>
<path d="M48.5158 58.0218C47.9963 61.5425 49.8314 71.3459 50.4667 74.5564C51.132 68.554 51.2554 61.4341 51.2666 57.5471C49.9211 56.6351 48.755 56.3997 48.5158 58.0218Z" fill="#505050"/>
<path opacity="0.4" d="M48.5158 58.0218C47.9963 61.5425 49.8314 71.3459 50.4667 74.5564C51.132 68.554 51.2554 61.4341 51.2666 57.5471C49.9211 56.6351 48.755 56.3997 48.5158 58.0218Z" fill="white"/>
<path d="M56.4654 54.6655C56.4654 54.6655 60.6028 72.1944 60.8943 80.5663C61.2195 89.9587 57.9417 112.107 57.9417 112.107H53.2923C53.2923 112.107 52.7204 89.7867 52.5111 81.2316C52.2869 71.9066 46.8152 54.6655 46.8152 54.6655H56.4654Z" fill="#505050"/>
<path opacity="0.7" d="M56.4654 54.6655C56.4654 54.6655 60.6028 72.1944 60.8943 80.5663C61.2195 89.9587 57.9417 112.107 57.9417 112.107H53.2923C53.2923 112.107 52.7204 89.7867 52.5111 81.2316C52.2869 71.9066 46.8152 54.6655 46.8152 54.6655H56.4654Z" fill="white"/>
<path d="M58.8386 110.265C58.861 110.265 58.5769 112.193 58.5769 112.193H52.9184L52.7651 110.47L58.8386 110.265Z" fill="#505050"/>
<path d="M57.6539 39.884C57.6539 40.8184 57.6315 41.8462 57.5791 42.9786C57.4446 46.0583 57.1082 49.8967 56.4579 54.6658H41.7808C41.6799 52.4233 43.0964 41.4126 40.9211 30.7907C42.5518 30.4776 44.201 30.2704 45.8584 30.1703C47.9372 30.0507 50.0212 30.0507 52.1 30.1703C53.5246 30.3126 54.9364 30.5625 56.3233 30.9178C56.3233 30.9178 57.6576 32.4613 57.6539 39.884Z" fill="#505050"/>
<path opacity="0.3" d="M57.6539 39.884C57.6539 40.8184 57.6315 41.8462 57.5791 42.9786C57.4446 46.0583 57.1082 49.8967 56.4579 54.6658H41.7808C41.6799 52.4233 43.0964 41.4126 40.9211 30.7907C42.5518 30.4776 44.201 30.2704 45.8584 30.1703C47.9372 30.0507 50.0212 30.0507 52.1 30.1703C53.5246 30.3126 54.9364 30.5625 56.3233 30.9178C56.3233 30.9178 57.6576 32.4613 57.6539 39.884Z" fill="black"/>
<path opacity="0.3" d="M57.6538 39.8838C57.6538 40.8182 57.6314 41.846 57.5791 42.9784C55.8561 41.2966 55.7402 37.8618 55.7402 37.8618L57.6538 39.8838Z" fill="black"/>
<path d="M52.3916 34.1356C52.7168 36.7518 58.6519 42.2609 58.6519 42.2609L63.9965 38.0263C62.6536 36.0378 61.0818 34.2138 59.3135 32.592C55.4489 29.2357 51.9992 31.0073 52.3916 34.1356Z" fill="#505050"/>
<path opacity="0.3" d="M52.3916 34.1356C52.7168 36.7518 58.6519 42.2609 58.6519 42.2609L63.9965 38.0263C62.6536 36.0378 61.0818 34.2138 59.3135 32.592C55.4489 29.2357 51.9992 31.0073 52.3916 34.1356Z" fill="black"/>
<path d="M115.013 88.7701L112.266 89.0392L109.407 82.4986L112.154 82.2295L115.013 88.7701Z" fill="#A0A0A0"/>
<path d="M133.297 80.5477L130.905 82.0876L126.57 77.0457L128.962 75.5059L133.297 80.5477Z" fill="#A0A0A0"/>
<path d="M109.411 82.5025L110.883 85.8737H113.75L112.158 82.2334L109.411 82.5025Z" fill="#CE6F64"/>
<path d="M128.965 75.5059L126.57 77.0457L128.808 79.6433L131.2 78.1034L128.965 75.5059Z" fill="#CE6F64"/>
<path d="M91.4557 18.9426C91.3959 19.9592 91.2688 20.8861 91.123 21.8504C90.9773 22.8147 90.7717 23.7491 90.54 24.6946C90.0881 26.6207 89.3883 28.48 88.4582 30.2261C88.2134 30.6791 87.94 31.116 87.6397 31.5342C87.3482 31.9491 87.038 32.3303 86.7278 32.7003C86.1073 33.4478 85.4645 34.1393 84.8104 34.8232C83.4911 36.1799 82.1456 37.4769 80.6992 38.714L79.6602 37.7123C80.8076 36.2584 81.9849 34.8195 83.1024 33.3619C84.2199 31.9043 85.3785 30.4541 86.0924 28.9965C86.8216 27.407 87.3706 25.7409 87.7294 24.0294C87.9275 23.1623 88.077 22.2765 88.219 21.4131C88.361 20.5498 88.4657 19.6154 88.5442 18.7969L91.4557 18.9426Z" fill="#A0A0A0"/>
<path d="M90.3121 0.412213C88.3088 0.412213 86.0364 2.56127 86.1299 5.6447C86.2233 8.72813 86.8774 13.3066 82.1121 17.5449C83.8238 21.2824 91.8744 24.7844 97.2489 22.1495C102.343 19.6528 100.239 5.81289 96.6098 2.18752C94.5766 0.158064 92.2033 -0.522159 90.3121 0.412213Z" fill="#263238"/>
<path d="M93.6386 19.2941C93.4891 20.1986 92.7379 21.9103 92.1436 23.1811C91.7026 24.1005 91.3438 24.7919 91.3438 24.7919L90.8205 24.5602L86.4888 22.6317C86.8177 20.2957 87.3521 17.7729 89.9273 16.6255C91.5344 15.9154 93.904 17.6795 93.6386 19.2941Z" fill="#505050"/>
<path opacity="0.6" d="M93.6386 19.2941C93.4891 20.1986 92.7379 21.9103 92.1436 23.1811C91.7026 24.1005 91.3438 24.7919 91.3438 24.7919L90.8205 24.5602L86.4888 22.6317C86.8177 20.2957 87.3521 17.7729 89.9273 16.6255C91.5344 15.9154 93.904 17.6795 93.6386 19.2941Z" fill="white"/>
<path d="M92.1324 23.1808C91.6914 24.1002 91.3326 24.7916 91.3326 24.7916L90.8093 24.5599C90.8803 23.6368 91.0635 22.1829 91.5568 21.5288C91.8642 22.0321 92.0605 22.5954 92.1324 23.1808Z" fill="#505050"/>
<path opacity="0.5" d="M92.1324 23.2071C91.6914 24.1266 91.3326 24.818 91.3326 24.818L90.8093 24.5863C90.8803 23.6631 91.0635 22.2092 91.5568 21.5552C91.8642 22.0585 92.0605 22.6218 92.1324 23.2071Z" fill="white"/>
<path d="M106.779 29.4225L95.7539 32.8983C88.1294 17.8138 89.2133 17.014 89.2133 17.014C89.2133 17.014 90.9736 16.0086 92.805 15.1714L93.6385 14.7977C95.2652 14.1501 96.9364 13.6205 98.6392 13.213C98.8896 13.1457 99.14 13.0859 99.3867 13.0261C100.743 12.7205 102.116 12.4946 103.498 12.3496C103.662 14.4389 103.827 16.2067 104.006 17.7428C104.238 19.7461 104.488 21.3495 104.754 22.7361C105.25 25.0152 105.928 27.251 106.779 29.4225Z" fill="#505050"/>
<path opacity="0.6" d="M106.779 29.4225L95.7539 32.8983C88.1294 17.8138 89.2133 17.014 89.2133 17.014C89.2133 17.014 90.9736 16.0086 92.805 15.1714L93.6385 14.7977C95.2652 14.1501 96.9364 13.6205 98.6392 13.213C98.8896 13.1457 99.14 13.0859 99.3867 13.0261C100.743 12.7205 102.116 12.4946 103.498 12.3496C103.662 14.4389 103.827 16.2067 104.006 17.7428C104.238 19.7461 104.488 21.3495 104.754 22.7361C105.25 25.0152 105.928 27.251 106.779 29.4225Z" fill="white"/>
<path d="M95.7538 32.8983C95.7538 32.8983 95.3801 55.4727 98.3289 63.6279C101.169 71.4468 109.642 84.8868 109.642 84.8868L114.553 84.7597C114.553 84.7597 106.753 67.7429 105.471 61.0117C103.352 49.8478 103.819 30.3643 103.819 30.3643L95.7538 32.8983Z" fill="#505050"/>
<path opacity="0.4" d="M95.7538 32.8983C95.7538 32.8983 95.3801 55.4727 98.3289 63.6279C101.169 71.4468 109.642 84.8868 109.642 84.8868L114.553 84.7597C114.553 84.7597 106.753 67.7429 105.471 61.0117C103.352 49.8478 103.819 30.3643 103.819 30.3643L95.7538 32.8983Z" fill="black"/>
<path opacity="0.3" d="M100.164 34.838L101.484 31.1005L103.82 30.353C103.82 30.353 103.607 39.2221 104.119 48.4201C101.999 44.3574 100.164 36.8824 100.164 34.838Z" fill="black"/>
<path d="M98.1833 32.1811C98.1833 32.1811 105.845 49.7062 110.797 59.6816C114.796 67.7359 127.242 78.5484 127.242 78.5484L130.651 76.1826C130.651 76.1826 121.289 63.378 118.527 57.9137C109.687 40.4298 111.866 33.2239 106.783 29.4229L98.1833 32.1811Z" fill="#505050"/>
<path opacity="0.4" d="M98.1833 32.1811C98.1833 32.1811 105.845 49.7062 110.797 59.6816C114.796 67.7359 127.242 78.5484 127.242 78.5484L130.651 76.1826C130.651 76.1826 121.289 63.378 118.527 57.9137C109.687 40.4298 111.866 33.2239 106.783 29.4229L98.1833 32.1811Z" fill="black"/>
<path d="M80.3255 37.4468L77.8289 37.9102L79.5967 40.3022C79.5967 40.3022 80.9011 39.394 81.1739 38.2429L80.3255 37.4468Z" fill="#A0A0A0"/>
<path d="M76.1919 39.8018L77.8326 41.3342L79.593 40.3026L77.8289 37.9106L76.1919 39.8018Z" fill="#A0A0A0"/>
<path d="M130.023 81.3327L132.62 79.4639C132.664 79.4316 132.719 79.4165 132.773 79.4213C132.827 79.4261 132.878 79.4506 132.916 79.4901L134.687 81.3327C134.768 81.4225 134.81 81.5406 134.803 81.6611C134.797 81.7816 134.743 81.8946 134.654 81.9755L134.613 82.0092C133.693 82.6408 133.218 82.9024 132.079 83.721C131.376 84.2255 129.896 85.4439 128.924 86.1391C127.952 86.8343 127.216 85.9111 127.556 85.5374C129.089 83.848 129.496 82.6969 129.739 81.7438C129.784 81.5782 129.884 81.4331 130.023 81.3327Z" fill="#263238"/>
<path d="M111.904 88.1911H115.267C115.328 88.1928 115.386 88.2136 115.434 88.2505C115.481 88.2875 115.516 88.3387 115.533 88.3967L116.28 91.0653C116.296 91.1183 116.3 91.1738 116.294 91.2287C116.288 91.2835 116.271 91.3366 116.245 91.3849C116.218 91.4332 116.182 91.4757 116.138 91.51C116.095 91.5443 116.046 91.5697 115.993 91.5848C115.952 91.5905 115.91 91.5905 115.869 91.5848H108.091C106.858 91.5848 106.596 90.3365 107.112 90.2243C109.4 89.716 110.719 89.0209 111.425 88.3556C111.558 88.242 111.729 88.1832 111.904 88.1911Z" fill="#263238"/>
<path d="M99.3941 13.0337V13.2318C99.3941 13.3476 99.3156 16.0237 96.5798 18.1354L96.3032 18.3484L95.9669 18.2737C94.5167 17.9597 93.5524 17.358 93.0927 16.4871C92.8796 16.0829 92.7826 15.6275 92.8124 15.1715L93.6459 14.7978C95.2726 14.1502 96.9438 13.6207 98.6466 13.2131C98.8933 13.1533 99.1437 13.0898 99.3941 13.0337Z" fill="white"/>
<path d="M96.3669 7.74512C96.5613 9.45315 97.1779 12.5029 98.643 13.2205C98.643 13.2205 98.6057 15.6275 96.1202 17.5448C92.8275 16.8272 93.6423 14.8052 93.6423 14.8052C95.3017 13.8073 94.8345 12.4917 94.1244 11.3406L96.3669 7.74512Z" fill="#A0A0A0"/>
<path d="M95.455 9.21045L94.1282 11.3371C94.2969 11.6042 94.442 11.8856 94.5617 12.178C95.2158 11.8603 96.0567 10.9185 95.8998 10.1785C95.8106 9.83177 95.66 9.50389 95.455 9.21045Z" fill="#CE6F64"/>
<path d="M95.5893 3.93672C96.5311 6.60155 96.9834 7.70785 96.2396 9.59528C95.1184 12.432 91.6425 13.0039 89.9233 10.6792C88.3797 8.58242 87.1015 4.5833 89.2019 2.45667C89.9216 1.73111 90.9 1.32113 91.9219 1.31693C92.9438 1.31272 93.9256 1.71463 94.6512 2.43425C95.0778 2.85421 95.3993 3.36901 95.5893 3.93672Z" fill="#A0A0A0"/>
<path d="M92.0612 0.831055C91.1568 1.81401 93.0143 5.92525 95.8473 6.55689C98.6803 7.18852 96.393 2.71849 96.393 2.71849L92.0612 0.831055Z" fill="#263238"/>
<path d="M92.3563 1.98196C92.4609 3.1032 87.9572 4.79629 87.5723 5.62601C87.7591 4.27677 87.8227 2.69582 89.5232 1.57457C91.2238 0.453322 92.6254 0.890609 92.6254 0.890609L92.3563 1.98196Z" fill="#263238"/>
<path d="M92.0236 2.02686C92.0236 2.02686 91.5265 3.31629 89.6316 4.89351C91.1256 4.4669 92.4057 3.49617 93.2196 2.17262L92.0236 2.02686Z" fill="#263238"/>
<path d="M97.2002 6.10085C97.2827 6.64094 97.1483 7.19174 96.8265 7.63322C96.3966 8.21626 95.7389 7.93969 95.4884 7.30432C95.2605 6.72874 95.2081 5.73457 95.8173 5.37951C95.9228 5.31879 96.0392 5.27952 96.1598 5.26394C96.2805 5.24837 96.4031 5.2568 96.5205 5.28876C96.6379 5.32071 96.7478 5.37556 96.8439 5.45014C96.94 5.52473 97.0205 5.61758 97.0806 5.72336C97.1476 5.83891 97.1885 5.96778 97.2002 6.10085Z" fill="#A0A0A0"/>
<path d="M106.727 28.7237L107.538 29.5534C107.602 29.6169 107.538 29.7253 107.407 29.7627L95.8546 33.418C95.8167 33.4349 95.7742 33.4389 95.7337 33.4295C95.6932 33.42 95.657 33.3976 95.6304 33.3656L95.2193 32.4126C95.1931 32.3453 95.2604 32.2631 95.3688 32.2257L106.521 28.6975C106.555 28.6833 106.592 28.6782 106.628 28.6828C106.664 28.6874 106.698 28.7015 106.727 28.7237Z" fill="#263238"/>
<path d="M91.6351 6.45197C91.7248 6.66127 91.6837 6.88178 91.5454 6.93784C91.4071 6.99391 91.224 6.87431 91.1343 6.66127C91.0446 6.44823 91.0857 6.23146 91.224 6.17539C91.3622 6.11933 91.5454 6.23893 91.6351 6.45197Z" fill="#263238"/>
<path d="M89.2467 7.46131C89.3364 7.67435 89.2952 7.89112 89.157 7.95092C89.0187 8.01072 88.8355 7.88738 88.7458 7.67435C88.6561 7.46131 88.6972 7.24453 88.8355 7.18473C88.9738 7.12493 89.157 7.25201 89.2467 7.46131Z" fill="#263238"/>
<path d="M88.8994 7.17334L88.3313 7.24061C88.3313 7.24061 88.7611 7.5284 88.8994 7.17334Z" fill="#263238"/>
<path d="M90.0877 7.50586C90.1036 8.06851 90.042 8.63068 89.9045 9.17652C90.0452 9.20743 90.191 9.2074 90.3317 9.17642C90.4723 9.14544 90.6046 9.08427 90.7193 8.99712L90.0877 7.50586Z" fill="#DE5753"/>
<path d="M92.0612 9.44922C92.0465 9.44826 92.0325 9.4425 92.0214 9.43282C92.0103 9.42315 92.0026 9.41009 91.9997 9.39566C91.9967 9.38122 91.9986 9.36622 92.0049 9.35293C92.0113 9.33965 92.0219 9.32884 92.035 9.32215C92.3002 9.21608 92.5368 9.04922 92.7257 8.83499C92.9146 8.62076 93.0506 8.36516 93.1226 8.08878C93.1236 8.08041 93.1261 8.07231 93.1302 8.06495C93.1343 8.05759 93.1398 8.05111 93.1464 8.04589C93.153 8.04068 93.1606 8.03683 93.1687 8.03457C93.1768 8.0323 93.1853 8.03167 93.1936 8.03271C93.2025 8.03407 93.2111 8.03719 93.2187 8.0419C93.2264 8.04661 93.233 8.0528 93.2383 8.06012C93.2435 8.06743 93.2472 8.07573 93.2492 8.0845C93.2511 8.09327 93.2513 8.10235 93.2497 8.1112C93.1767 8.41088 93.0327 8.68858 92.8297 8.92083C92.6267 9.15307 92.3708 9.33303 92.0836 9.44549L92.0612 9.44922Z" fill="#263238"/>
<path d="M91.9752 5.38696C91.953 5.39072 91.9302 5.39072 91.9079 5.38696C91.7629 5.29999 91.5998 5.24766 91.4313 5.23404C91.2627 5.22043 91.0933 5.2459 90.9362 5.30847C90.9049 5.32439 90.8686 5.32743 90.8351 5.31696C90.8016 5.30648 90.7735 5.28332 90.7568 5.25241C90.7407 5.22055 90.7376 5.1837 90.748 5.14956C90.7584 5.11543 90.7817 5.08666 90.8129 5.06927C91.0091 4.98399 91.2229 4.94728 91.4363 4.96224C91.6497 4.97721 91.8564 5.04341 92.0388 5.15523C92.0694 5.17318 92.0917 5.2025 92.1008 5.2368C92.1099 5.2711 92.105 5.30761 92.0874 5.33837C92.0736 5.35452 92.0564 5.3673 92.0369 5.37572C92.0175 5.38414 91.9964 5.38799 91.9752 5.38696Z" fill="#263238"/>
<path d="M87.6434 6.83335H87.6172C87.6003 6.83021 87.5841 6.82374 87.5697 6.81433C87.5552 6.80491 87.5428 6.79274 87.533 6.7785C87.5233 6.76425 87.5165 6.74823 87.513 6.73134C87.5095 6.71446 87.5093 6.69705 87.5126 6.68011C87.5488 6.46771 87.6356 6.26715 87.7657 6.09541C87.8959 5.92366 88.0654 5.78577 88.2601 5.69341C88.2934 5.6809 88.3302 5.68169 88.3629 5.69561C88.3956 5.70953 88.4217 5.73551 88.4358 5.76816C88.4495 5.80089 88.4497 5.83771 88.4364 5.87061C88.4231 5.90351 88.3973 5.92982 88.3647 5.94382C88.2102 6.01913 88.0759 6.13037 87.9732 6.26823C87.8704 6.40608 87.8022 6.56654 87.7742 6.73617C87.7672 6.76513 87.7503 6.79073 87.7264 6.80849C87.7025 6.82625 87.6731 6.83505 87.6434 6.83335Z" fill="#263238"/>
<path d="M105.191 14.9961C105.636 15.3287 106.01 15.6389 106.398 15.9753C106.787 16.3117 107.146 16.6481 107.52 16.9957C108.248 17.6983 108.944 18.4346 109.613 19.2045C110.286 19.9784 110.91 20.7935 111.481 21.6451C111.631 21.8544 111.762 22.0824 111.9 22.2992C112.038 22.5159 112.176 22.7364 112.3 22.9644C112.423 23.1924 112.554 23.4054 112.674 23.6633L112.872 24.0745L113.032 24.4968C113.376 25.5571 113.537 26.6678 113.511 27.782C113.488 28.8187 113.377 29.8515 113.178 30.8692C112.98 31.8594 112.73 32.8387 112.431 33.8031C112.129 34.7622 111.776 35.7042 111.373 36.625L110.024 36.1241C110.255 35.2271 110.476 34.2853 110.64 33.3546C110.824 32.4331 110.957 31.5024 111.04 30.5665C111.131 29.6599 111.152 28.7479 111.104 27.8381C111.076 27.4067 111.023 26.9773 110.943 26.5524C110.865 26.1591 110.751 25.7738 110.603 25.4013L110.491 25.1434L110.364 24.9042C110.263 24.7323 110.125 24.5304 109.99 24.3436C109.855 24.1567 109.743 23.9698 109.616 23.7792C109.489 23.5886 109.362 23.4054 109.216 23.2223C108.674 22.4748 108.058 21.7983 107.445 21.1069C106.832 20.4155 106.159 19.7614 105.475 19.1298C105.135 18.8083 104.791 18.4944 104.44 18.1879C104.089 17.8814 103.722 17.575 103.416 17.3133L105.191 14.9961Z" fill="#A0A0A0"/>
<path d="M110.457 35.2305L108.409 36.7255L111.025 38.1083C111.025 38.1083 111.806 36.7255 111.552 35.5706L110.457 35.2305Z" fill="#A0A0A0"/>
<path d="M107.759 39.1473L109.904 39.8126L111.04 38.1158L108.409 36.7329L107.759 39.1473Z" fill="#A0A0A0"/>
<path d="M129.04 82.5026H128.995C128.93 82.4947 128.868 82.4699 128.816 82.4305C128.763 82.3911 128.722 82.3387 128.696 82.2783C128.676 82.2431 128.665 82.2031 128.665 82.1625C128.665 82.1218 128.676 82.0818 128.696 82.0466C128.879 81.7327 129.907 81.6729 130.023 81.6729C130.035 81.6729 130.048 81.6765 130.058 81.6831C130.069 81.6897 130.077 81.6991 130.083 81.7102C130.09 81.7213 130.094 81.7343 130.094 81.7476C130.094 81.7609 130.09 81.7739 130.083 81.785C129.836 82.0578 129.391 82.5026 129.04 82.5026ZM129.862 81.8186C129.451 81.8485 128.905 81.9457 128.812 82.1101C128.801 82.1246 128.795 82.1423 128.795 82.1606C128.795 82.1789 128.801 82.1966 128.812 82.2111C128.828 82.2517 128.854 82.2876 128.889 82.3151C128.923 82.3426 128.963 82.3608 129.006 82.368C129.204 82.3867 129.515 82.1849 129.862 81.8186Z" fill="#505050"/>
<path d="M129.952 81.8112C129.608 81.8112 128.932 81.6205 128.804 81.344C128.782 81.2953 128.777 81.2404 128.791 81.1886C128.805 81.1368 128.836 81.0913 128.879 81.0599C128.918 81.0256 128.963 80.9996 129.011 80.9836C129.06 80.9675 129.112 80.9617 129.163 80.9665C129.574 81.0076 130.057 81.6729 130.075 81.714C130.081 81.7243 130.084 81.7359 130.084 81.7476C130.084 81.7594 130.081 81.7709 130.075 81.7813C130.07 81.7919 130.063 81.8012 130.054 81.8083C130.045 81.8155 130.034 81.8203 130.023 81.8224L129.952 81.8112ZM129.122 81.101C129.094 81.1004 129.067 81.1054 129.041 81.1157C129.016 81.126 128.992 81.1413 128.973 81.1608C128.909 81.2169 128.917 81.258 128.928 81.2879C129.01 81.4711 129.541 81.6617 129.888 81.6617C129.716 81.4486 129.395 81.1122 129.141 81.0861L129.122 81.101Z" fill="#505050"/>
<path d="M110.405 88.7476C110.175 88.7642 109.945 88.7094 109.747 88.5906C109.697 88.5522 109.655 88.5031 109.625 88.447C109.596 88.3908 109.579 88.3289 109.575 88.2655C109.57 88.2299 109.575 88.1935 109.591 88.1609C109.606 88.1284 109.63 88.101 109.661 88.0823C109.964 87.8768 111.115 88.3963 111.343 88.5047C111.356 88.5102 111.366 88.5198 111.373 88.532C111.38 88.5441 111.382 88.5582 111.38 88.5719C111.379 88.5862 111.373 88.5996 111.364 88.6104C111.355 88.6211 111.342 88.6286 111.328 88.6317C111.025 88.702 110.716 88.7408 110.405 88.7476ZM109.867 88.1645C109.821 88.1614 109.776 88.1718 109.736 88.1944C109.727 88.2022 109.72 88.212 109.715 88.223C109.711 88.2341 109.709 88.2461 109.71 88.258C109.711 88.3021 109.722 88.3453 109.743 88.3842C109.764 88.4232 109.793 88.4567 109.829 88.4822C110.024 88.6317 110.491 88.6504 111.096 88.542C110.709 88.352 110.294 88.2246 109.867 88.1645Z" fill="#505050"/>
<path d="M111.313 88.6319H111.287C110.913 88.4749 110.139 87.8582 110.184 87.5405C110.184 87.4695 110.24 87.3835 110.412 87.3611C111.085 87.2826 111.369 88.4824 111.38 88.5534C111.382 88.5656 111.381 88.5781 111.378 88.5898C111.374 88.6016 111.367 88.6122 111.358 88.6206C111.345 88.6299 111.329 88.6339 111.313 88.6319ZM110.476 87.4919H110.431C110.36 87.4919 110.319 87.5218 110.315 87.5555C110.293 87.7386 110.823 88.2282 111.208 88.4412C111.122 88.146 110.891 87.4919 110.476 87.4919Z" fill="#505050"/>
<path d="M91.2876 6.16064L90.7195 6.22792C90.7195 6.22792 91.1456 6.51571 91.2876 6.16064Z" fill="#263238"/>
<path d="M108.951 85.1486L115.013 84.9954L114.666 83.1304L108.043 83.4443L108.951 85.1486Z" fill="#505050"/>
<path opacity="0.5" d="M108.951 85.1486L115.013 84.9954L114.666 83.1304L108.043 83.4443L108.951 85.1486Z" fill="white"/>
<path d="M127.414 79.677L131.421 76.8253L130.513 75.0762L126.11 78.4063L127.414 79.677Z" fill="#505050"/>
<path opacity="0.5" d="M127.414 79.677L131.421 76.8253L130.513 75.0762L126.11 78.4063L127.414 79.677Z" fill="white"/>
<path d="M105.625 30.4468L105.924 30.3496C105.983 30.3309 106.021 30.2861 106.002 30.2524L105.456 29.0153C105.456 28.9779 105.382 28.963 105.322 28.9817L105.023 29.0789C104.963 29.0975 104.926 29.1424 104.944 29.176L105.486 30.4131C105.502 30.4333 105.525 30.4476 105.55 30.4537C105.575 30.4598 105.601 30.4573 105.625 30.4468Z" fill="#505050"/>
<path d="M96.7295 33.2725L97.0285 33.179C97.0883 33.1566 97.1219 33.1117 97.107 33.0781L96.5613 31.841C96.5613 31.8036 96.4828 31.7887 96.423 31.8074L96.124 31.9045C96.0642 31.9045 96.0306 31.9681 96.0455 32.0017L96.5912 33.2388C96.6061 33.2725 96.6884 33.2725 96.7295 33.2725Z" fill="#505050"/>
<path d="M101.173 31.8518L101.472 31.7584C101.485 31.7582 101.497 31.7552 101.508 31.7497C101.519 31.7442 101.528 31.7363 101.536 31.7267C101.543 31.717 101.548 31.7058 101.551 31.6938C101.554 31.6818 101.554 31.6694 101.551 31.6575L101.005 30.4204C101.005 30.3867 100.927 30.3718 100.867 30.3905L100.572 30.4839C100.512 30.5026 100.474 30.5474 100.489 30.5848L101.035 31.8219C101.052 31.841 101.074 31.8541 101.099 31.8595C101.124 31.8649 101.15 31.8622 101.173 31.8518Z" fill="#505050"/>
<path opacity="0.4" d="M105.625 30.4468L105.924 30.3496C105.983 30.3309 106.021 30.2861 106.002 30.2524L105.456 29.0153C105.456 28.9779 105.382 28.963 105.322 28.9817L105.023 29.0789C104.963 29.0975 104.926 29.1424 104.944 29.176L105.486 30.4131C105.502 30.4333 105.525 30.4476 105.55 30.4537C105.575 30.4598 105.601 30.4573 105.625 30.4468Z" fill="black"/>
<path opacity="0.4" d="M96.7295 33.2725L97.0285 33.179C97.0883 33.1566 97.1219 33.1117 97.107 33.0781L96.5613 31.841C96.5613 31.8036 96.4828 31.7887 96.423 31.8074L96.124 31.9045C96.0642 31.9045 96.0306 31.9681 96.0455 32.0017L96.5912 33.2388C96.6061 33.2725 96.6884 33.2725 96.7295 33.2725Z" fill="black"/>
<path opacity="0.4" d="M101.173 31.8518L101.472 31.7584C101.485 31.7582 101.497 31.7552 101.508 31.7497C101.519 31.7442 101.528 31.7363 101.536 31.7267C101.543 31.717 101.548 31.7058 101.551 31.6938C101.554 31.6818 101.554 31.6694 101.551 31.6575L101.005 30.4204C101.005 30.3867 100.927 30.3718 100.867 30.3905L100.572 30.4839C100.512 30.5026 100.474 30.5474 100.489 30.5848L101.035 31.8219C101.052 31.841 101.074 31.8541 101.099 31.8595C101.124 31.8649 101.15 31.8622 101.173 31.8518Z" fill="black"/>
<path d="M104.787 22.7438C103.73 21.2488 102.717 17.7692 102.978 16.4648L104.025 17.7505C104.257 19.7538 104.507 21.3572 104.787 22.7438Z" fill="#505050"/>
<path opacity="0.5" d="M104.787 22.7438C103.73 21.2488 102.717 17.7692 102.978 16.4648L104.025 17.7505C104.257 19.7538 104.507 21.3572 104.787 22.7438Z" fill="white"/>
<path d="M103.517 12.3422C104.948 12.2786 107.763 15.7956 107.763 15.7956L104.84 19.9068C104.84 19.9068 101.558 17.2906 101.304 15.4704C101.087 13.953 101.693 12.4393 103.517 12.3422Z" fill="#505050"/>
<path opacity="0.6" d="M103.517 12.3422C104.948 12.2786 107.763 15.7956 107.763 15.7956L104.84 19.9068C104.84 19.9068 101.558 17.2906 101.304 15.4704C101.087 13.953 101.693 12.4393 103.517 12.3422Z" fill="white"/>
</svg>
