<svg width="100" height="100" viewBox="0 0 100 100" fill="none" xmlns="http://www.w3.org/2000/svg">
<path d="M49.9488 99.2596C77.5347 99.2596 99.8975 86.3478 99.8975 70.4203C99.8975 54.4928 77.5347 41.5811 49.9488 41.5811C22.3628 41.5811 0 54.4928 0 70.4203C0 86.3478 22.3628 99.2596 49.9488 99.2596Z" fill="#F5F5F5"/>
<path d="M7.39068 69.3472C7.39068 69.3472 8.29594 64.8505 6.72498 60.1949C5.84727 57.5936 4.1809 56.3618 3.1463 56.224C1.98663 56.0735 0.78667 57.1462 1.78098 58.872C2.72441 60.5108 4.60279 61.204 5.62042 65.4442C5.94277 66.7493 6.12051 68.0859 6.15044 69.4299C6.14951 69.4948 6.16583 69.5588 6.19774 69.6154C6.22965 69.6719 6.276 69.719 6.33206 69.7518C6.38812 69.7845 6.45187 69.8018 6.51681 69.8019C6.58174 69.802 6.64553 69.7848 6.70165 69.7521L7.39068 69.3472Z" fill="#A0A0A0"/>
<g opacity="0.5">
<path opacity="0.5" d="M7.39068 69.3472C7.39068 69.3472 8.29594 64.8505 6.72498 60.1949C5.84727 57.5936 4.1809 56.3618 3.1463 56.224C1.98663 56.0735 0.78667 57.1462 1.78098 58.872C2.72441 60.5108 4.60279 61.204 5.62042 65.4442C5.94277 66.7493 6.12051 68.0859 6.15044 69.4299C6.14951 69.4948 6.16583 69.5588 6.19774 69.6154C6.22965 69.6719 6.276 69.719 6.33206 69.7518C6.38812 69.7845 6.45187 69.8018 6.51681 69.8019C6.58174 69.802 6.64553 69.7848 6.70165 69.7521L7.39068 69.3472Z" fill="white"/>
</g>
<path d="M6.70163 68.3425C6.68251 68.3393 6.66531 68.3291 6.6535 68.3137C6.64169 68.2984 6.63616 68.2791 6.63803 68.2598C7.25497 63.1102 4.86353 58.7407 2.97031 57.28C2.96275 57.2742 2.95641 57.2669 2.95167 57.2586C2.94693 57.2504 2.94388 57.2412 2.9427 57.2318C2.94151 57.2223 2.94222 57.2127 2.94478 57.2035C2.94733 57.1943 2.95169 57.1857 2.95759 57.1782C2.96966 57.1634 2.98697 57.1538 3.00592 57.1515C3.02488 57.1491 3.04402 57.1541 3.05935 57.1655C4.98013 58.6495 7.40549 63.072 6.78219 68.2789C6.77955 68.2978 6.76969 68.315 6.75468 68.3269C6.73967 68.3387 6.72067 68.3443 6.70163 68.3425Z" fill="white"/>
<path d="M6.5914 69.8134C6.54196 69.8434 6.48614 69.8612 6.42849 69.8655C6.37084 69.8698 6.31299 69.8604 6.25966 69.8381C6.20633 69.8157 6.15904 69.7811 6.12163 69.7371C6.08423 69.693 6.05777 69.6407 6.04442 69.5844C5.7985 68.5498 5.16672 67.4792 3.97948 66.3428C2.59932 65.0199 0.689137 63.7988 0.994426 62.656C1.29972 61.5133 2.82616 61.7762 3.89044 62.425C4.95471 63.0737 7.3207 65.5118 6.76313 69.701L6.5914 69.8134Z" fill="#A0A0A0"/>
<g opacity="0.65">
<path opacity="0.65" d="M6.5914 69.8134C6.54196 69.8434 6.48614 69.8612 6.42849 69.8655C6.37084 69.8698 6.31299 69.8604 6.25966 69.8381C6.20633 69.8157 6.15904 69.7811 6.12163 69.7371C6.08423 69.693 6.05777 69.6407 6.04442 69.5844C5.7985 68.5498 5.16672 67.4792 3.97948 66.3428C2.59932 65.0199 0.689137 63.7988 0.994426 62.656C1.29972 61.5133 2.82616 61.7762 3.89044 62.425C4.95471 63.0737 7.3207 65.5118 6.76313 69.701L6.5914 69.8134Z" fill="white"/>
</g>
<path d="M6.48968 69.8961C6.47261 69.8946 6.4567 69.8868 6.44497 69.8743C6.43325 69.8618 6.42653 69.8454 6.42608 69.8283C6.55752 66.6757 3.9456 63.1501 2.07782 62.4929C2.0687 62.4898 2.06031 62.4849 2.05316 62.4785C2.04602 62.472 2.04028 62.4642 2.0363 62.4554C2.03232 62.4467 2.03019 62.4372 2.03004 62.4276C2.02989 62.418 2.03172 62.4084 2.03542 62.3996C2.04253 62.3819 2.05619 62.3676 2.07357 62.3597C2.09094 62.3518 2.11068 62.3509 2.1287 62.3572C3.99224 62.8533 6.84797 66.663 6.58084 69.8262C6.58145 69.8451 6.57476 69.8636 6.56214 69.8778C6.54951 69.892 6.53193 69.9009 6.513 69.9025L6.48968 69.8961Z" fill="white"/>
<path d="M93.5693 69.9135C93.5693 69.9135 92.664 65.4168 94.2371 60.7611C95.1148 58.1598 96.7812 56.9281 97.8136 56.7903C98.9754 56.6376 100.175 57.7125 99.1811 59.4382C98.2376 61.077 96.3571 61.7703 95.3416 66.0104C95.0193 67.3155 94.8415 68.6522 94.8116 69.9962C94.8108 70.0607 94.7931 70.124 94.7602 70.1796C94.7273 70.2351 94.6804 70.2811 94.6242 70.3129C94.5679 70.3447 94.5044 70.3611 94.4398 70.3606C94.3752 70.3601 94.3119 70.3426 94.2562 70.3099L93.5693 69.9135Z" fill="#A0A0A0"/>
<g opacity="0.5">
<path opacity="0.5" d="M93.5693 69.9135C93.5693 69.9135 92.664 65.4168 94.2371 60.7611C95.1148 58.1598 96.7812 56.9281 97.8136 56.7903C98.9754 56.6376 100.175 57.7125 99.1811 59.4382C98.2376 61.077 96.3571 61.7703 95.3416 66.0104C95.0193 67.3155 94.8415 68.6522 94.8116 69.9962C94.8108 70.0607 94.7931 70.124 94.7602 70.1796C94.7273 70.2351 94.6804 70.2811 94.6242 70.3129C94.5679 70.3447 94.5044 70.3611 94.4398 70.3606C94.3752 70.3601 94.3119 70.3426 94.2562 70.3099L93.5693 69.9135Z" fill="white"/>
</g>
<path d="M94.2605 68.9001C94.27 68.8991 94.2792 68.8961 94.2876 68.8915C94.2959 68.8869 94.3033 68.8806 94.3092 68.8731C94.3151 68.8656 94.3195 68.857 94.322 68.8478C94.3246 68.8386 94.3253 68.829 94.3241 68.8195C93.7072 63.6699 96.0965 59.2983 97.9918 57.8397C98.007 57.8279 98.0169 57.8106 98.0193 57.7915C98.0217 57.7724 98.0164 57.7531 98.0046 57.738C97.9928 57.7228 97.9754 57.7129 97.9563 57.7105C97.9372 57.7081 97.918 57.7134 97.9028 57.7252C95.982 59.2093 93.5567 63.6296 94.18 68.8365C94.1807 68.8461 94.1835 68.8555 94.188 68.864C94.1925 68.8725 94.1988 68.8799 94.2063 68.8859C94.2139 68.8919 94.2226 68.8962 94.232 68.8987C94.2413 68.9011 94.251 68.9016 94.2605 68.9001Z" fill="white"/>
<path d="M94.3706 70.3734C94.4198 70.4035 94.4755 70.4213 94.5331 70.4256C94.5906 70.4299 94.6483 70.4205 94.7015 70.3982C94.7547 70.3758 94.8018 70.3412 94.839 70.2971C94.8762 70.253 94.9024 70.2007 94.9154 70.1445C95.1635 69.1099 95.7953 68.0393 96.9825 66.9029C98.3627 65.58 100.273 64.3588 99.9676 63.2161C99.6623 62.0734 98.1337 62.3363 97.0715 62.985C96.0094 63.6338 93.6413 66.0718 94.1967 70.2696L94.3706 70.3734Z" fill="#A0A0A0"/>
<g opacity="0.65">
<path opacity="0.65" d="M94.3706 70.3734C94.4198 70.4035 94.4755 70.4213 94.5331 70.4256C94.5906 70.4299 94.6483 70.4205 94.7015 70.3982C94.7547 70.3758 94.8018 70.3412 94.839 70.2971C94.8762 70.253 94.9024 70.2007 94.9154 70.1445C95.1635 69.1099 95.7953 68.0393 96.9825 66.9029C98.3627 65.58 100.273 64.3588 99.9676 63.2161C99.6623 62.0734 98.1337 62.3363 97.0715 62.985C96.0094 63.6338 93.6413 66.0718 94.1967 70.2696L94.3706 70.3734Z" fill="white"/>
</g>
<path d="M94.4725 70.4562C94.4896 70.4546 94.5055 70.4469 94.5172 70.4344C94.5289 70.4219 94.5356 70.4055 94.5361 70.3883C94.4068 67.2358 97.0102 63.708 98.8865 63.0466C98.8954 63.0433 98.9036 63.0382 98.9106 63.0317C98.9176 63.0252 98.9232 63.0174 98.9271 63.0088C98.9311 63.0001 98.9333 62.9907 98.9336 62.9812C98.9339 62.9717 98.9323 62.9622 98.9289 62.9533C98.9217 62.9356 98.9081 62.9213 98.8907 62.9134C98.8733 62.9055 98.8536 62.9046 98.8356 62.9109C96.972 63.407 94.1163 67.2167 94.3834 70.3799C94.3838 70.3986 94.3908 70.4166 94.4032 70.4306C94.4157 70.4446 94.4327 70.4537 94.4513 70.4562H94.4725Z" fill="white"/>
<path d="M13.6682 80.1747C19.5636 80.1747 24.3427 77.4154 24.3427 74.0117C24.3427 70.6079 19.5636 67.8486 13.6682 67.8486C7.7728 67.8486 2.99365 70.6079 2.99365 74.0117C2.99365 77.4154 7.7728 80.1747 13.6682 80.1747Z" fill="#E0E0E0"/>
<path d="M86.1086 80.1747C92.004 80.1747 96.7831 77.4154 96.7831 74.0117C96.7831 70.6079 92.004 67.8486 86.1086 67.8486C80.2132 67.8486 75.4341 70.6079 75.4341 74.0117C75.4341 77.4154 80.2132 80.1747 86.1086 80.1747Z" fill="#E0E0E0"/>
<path d="M28.6486 89.4078L11.6838 79.6131L28.6486 69.8184L45.6155 79.6131L28.6486 89.4078Z" fill="#E0E0E0"/>
<path d="M71.7093 89.4078L54.7424 79.6131L71.7093 69.8184L88.6741 79.6131L71.7093 89.4078Z" fill="#E0E0E0"/>
<path d="M53.3091 64.857C51.454 63.797 48.4478 63.797 46.5927 64.857C45.6662 65.3934 45.2041 66.0952 45.2062 66.7969V67.522C45.2062 68.2237 45.6662 68.9254 46.5927 69.4618C48.4478 70.5325 51.454 70.5325 53.3091 69.4618C54.2355 68.9254 54.6977 68.2237 54.6956 67.522V66.7969C54.6977 66.0973 54.2355 65.3934 53.3091 64.857Z" fill="#606060"/>
<path opacity="0.3" d="M53.3091 64.857C51.454 63.797 48.4478 63.797 46.5927 64.857C45.6662 65.3934 45.2041 66.0952 45.2062 66.7969V67.522C45.2062 68.2237 45.6662 68.9254 46.5927 69.4618C48.4478 70.5325 51.454 70.5325 53.3091 69.4618C54.2355 68.9254 54.6977 68.2237 54.6956 67.522V66.7969C54.6977 66.0973 54.2355 65.3934 53.3091 64.857Z" fill="white"/>
<path d="M46.5926 64.8572C44.7375 65.9278 44.7375 67.6641 46.5926 68.7348C48.4476 69.8054 51.4539 69.8054 53.309 68.7348C55.164 67.6641 55.164 65.9278 53.309 64.8572C51.4539 63.7865 48.4476 63.7865 46.5926 64.8572Z" fill="#606060"/>
<path opacity="0.5" d="M46.5926 64.8572C44.7375 65.9278 44.7375 67.6641 46.5926 68.7348C48.4476 69.8054 51.4539 69.8054 53.309 68.7348C55.164 67.6641 55.164 65.9278 53.309 64.8572C51.4539 63.7865 48.4476 63.7865 46.5926 64.8572Z" fill="white"/>
<path d="M52.9678 64.1657C51.3014 63.2032 48.6004 63.2032 46.9341 64.1657C46.1009 64.647 45.6875 65.2766 45.6896 65.9084V66.3854C45.6896 67.0215 46.1009 67.6448 46.9341 68.126C48.6004 69.0885 51.3014 69.0885 52.9678 68.126C53.801 67.6448 54.2144 67.0151 54.2123 66.3854V65.9084C54.2144 65.2766 53.801 64.647 52.9678 64.1657Z" fill="#606060"/>
<path opacity="0.3" d="M52.9678 64.1657C51.3014 63.2032 48.6004 63.2032 46.9341 64.1657C46.1009 64.647 45.6875 65.2766 45.6896 65.9084V66.3854C45.6896 67.0215 46.1009 67.6448 46.9341 68.126C48.6004 69.0885 51.3014 69.0885 52.9678 68.126C53.801 67.6448 54.2144 67.0151 54.2123 66.3854V65.9084C54.2144 65.2766 53.801 64.647 52.9678 64.1657Z" fill="white"/>
<path d="M49.9508 68.3724C52.3066 68.3724 54.2163 67.2694 54.2163 65.9088C54.2163 64.5483 52.3066 63.4453 49.9508 63.4453C47.5949 63.4453 45.6852 64.5483 45.6852 65.9088C45.6852 67.2694 47.5949 68.3724 49.9508 68.3724Z" fill="#606060"/>
<path opacity="0.5" d="M49.9508 68.3724C52.3066 68.3724 54.2163 67.2694 54.2163 65.9088C54.2163 64.5483 52.3066 63.4453 49.9508 63.4453C47.5949 63.4453 45.6852 64.5483 45.6852 65.9088C45.6852 67.2694 47.5949 68.3724 49.9508 68.3724Z" fill="white"/>
<path d="M50.375 5.81561C50.375 5.70316 50.3303 5.59531 50.2508 5.51579C50.1713 5.43627 50.0634 5.3916 49.951 5.3916C49.8385 5.3916 49.7307 5.43627 49.6512 5.51579C49.5716 5.59531 49.527 5.70316 49.527 5.81561V65.9195C49.5307 65.9564 49.544 65.9916 49.5656 66.0218C49.5871 66.0519 49.6162 66.0758 49.6499 66.0912C49.7414 66.1373 49.8423 66.1612 49.9446 66.1612C50.047 66.1612 50.1479 66.1373 50.2393 66.0912C50.273 66.0758 50.3021 66.0519 50.3237 66.0218C50.3453 65.9916 50.3586 65.9564 50.3623 65.9195L50.375 5.81561Z" fill="#606060"/>
<path opacity="0.2" d="M50.375 5.81561C50.375 5.70316 50.3303 5.59531 50.2508 5.51579C50.1713 5.43627 50.0634 5.3916 49.951 5.3916C49.8385 5.3916 49.7307 5.43627 49.6512 5.51579C49.5716 5.59531 49.527 5.70316 49.527 5.81561V65.9195C49.5307 65.9564 49.544 65.9916 49.5656 66.0218C49.5871 66.0519 49.6162 66.0758 49.6499 66.0912C49.7414 66.1373 49.8423 66.1612 49.9446 66.1612C50.047 66.1612 50.1479 66.1373 50.2393 66.0912C50.273 66.0758 50.3021 66.0519 50.3237 66.0218C50.3453 65.9916 50.3586 65.9564 50.3623 65.9195L50.375 5.81561Z" fill="black"/>
<path opacity="0.2" d="M49.9509 5.39551C49.8384 5.39551 49.7306 5.44018 49.651 5.5197C49.5715 5.59922 49.5269 5.70707 49.5269 5.81952V6.31138C49.7987 6.42214 50.1031 6.42214 50.3749 6.31138V5.81528C50.3738 5.70356 50.3286 5.5968 50.2492 5.5182C50.1698 5.43959 50.0626 5.3955 49.9509 5.39551Z" fill="black"/>
<path d="M51.1148 4.97593C51.1148 5.20613 51.0466 5.43116 50.9187 5.62257C50.7908 5.81397 50.609 5.96315 50.3963 6.05125C50.1836 6.13934 49.9496 6.16239 49.7238 6.11748C49.4981 6.07257 49.2907 5.96172 49.1279 5.79894C48.9651 5.63617 48.8543 5.42878 48.8094 5.203C48.7644 4.97722 48.7875 4.7432 48.8756 4.53052C48.9637 4.31784 49.1129 4.13606 49.3043 4.00817C49.4957 3.88028 49.7207 3.81201 49.9509 3.81201C50.1038 3.81173 50.2553 3.84165 50.3966 3.90004C50.538 3.95844 50.6664 4.04416 50.7745 4.15229C50.8827 4.26043 50.9684 4.38885 51.0268 4.53019C51.0852 4.67153 51.1151 4.823 51.1148 4.97593Z" fill="#606060"/>
<path opacity="0.3" d="M51.1148 4.97593C51.1148 5.20613 51.0466 5.43116 50.9187 5.62257C50.7908 5.81397 50.609 5.96315 50.3963 6.05125C50.1836 6.13934 49.9496 6.16239 49.7238 6.11748C49.4981 6.07257 49.2907 5.96172 49.1279 5.79894C48.9651 5.63617 48.8543 5.42878 48.8094 5.203C48.7644 4.97722 48.7875 4.7432 48.8756 4.53052C48.9637 4.31784 49.1129 4.13606 49.3043 4.00817C49.4957 3.88028 49.7207 3.81201 49.9509 3.81201C50.1038 3.81173 50.2553 3.84165 50.3966 3.90004C50.538 3.95844 50.6664 4.04416 50.7745 4.15229C50.8827 4.26043 50.9684 4.38885 51.0268 4.53019C51.0852 4.67153 51.1151 4.823 51.1148 4.97593Z" fill="white"/>
<path d="M46.1963 44.2988C45.9228 47.356 49.5439 51.6152 54.8483 51.2781L52.8406 33.8936L47.2436 34.6483L46.1963 44.2988Z" fill="#455A64"/>
<path d="M46.3785 43.4125C46.2947 43.6601 46.2336 43.9148 46.1962 44.1736L48.0003 27.8003C51.066 28.7522 53.5274 31.2306 53.9768 34.8241C54.4623 38.6826 47.729 39.2487 46.3785 43.4125Z" fill="#37474F"/>
<path opacity="0.2" d="M50.4703 3.93878C50.31 3.85518 50.1318 3.81152 49.9509 3.81152C49.7701 3.81152 49.5919 3.85518 49.4315 3.93878C49.4992 4.00789 49.58 4.06278 49.6692 4.10026C49.7584 4.13774 49.8542 4.15704 49.9509 4.15704C50.0477 4.15704 50.1434 4.13774 50.2326 4.10026C50.3218 4.06278 50.4026 4.00789 50.4703 3.93878Z" fill="black"/>
<path d="M50.8985 2.84513C50.8985 3.36879 50.4745 3.99209 49.9508 3.99209C49.4272 3.99209 49.0032 3.36879 49.0032 2.84513C49.0032 2.32147 49.9508 0 49.9508 0C49.9508 0 50.8985 2.32147 50.8985 2.84513Z" fill="#606060"/>
<path opacity="0.5" d="M50.8985 2.84513C50.8985 3.36879 50.4745 3.99209 49.9508 3.99209C49.4272 3.99209 49.0032 3.36879 49.0032 2.84513C49.0032 2.32147 49.9508 0 49.9508 0C49.9508 0 50.8985 2.32147 50.8985 2.84513Z" fill="white"/>
<path d="M50.3748 7.30127L45.1171 28.4426C45.1171 28.4426 49.372 29.6404 50.9918 30.7174C53.6546 32.4877 53.9853 34.8727 53.9853 34.8727L50.3748 7.30127Z" fill="#455A64"/>
<path d="M83.9907 72.9152L82.9476 72.5273L83.2847 71.8213L83.9292 72.4149L83.9907 72.9152Z" fill="black"/>
<path d="M85.0571 71.0303C85.0571 71.0303 85.1016 71.7087 85.1122 71.9207C85.1228 72.1327 84.2175 72.8027 83.9907 72.915L83.9292 72.4147C83.7238 72.6629 83.5501 72.9356 83.4119 73.2267C83.2381 73.532 83.0176 74.1086 82.5385 74.4987C81.8261 75.086 80.7131 75.387 79.5704 75.4358C78.4276 75.4845 77.781 75.2068 77.4503 74.9609C77.1196 74.715 77.0263 74.4287 77.1005 74.1404C77.1747 73.8521 85.0571 71.0303 85.0571 71.0303Z" fill="#263238"/>
<path d="M82.0043 68.7347L81.9895 68.3403C81.7774 68.3403 81.7562 68.9064 81.4531 69.4004C81.0137 70.1501 80.48 70.8405 79.8652 71.4547C78.7182 72.5147 77.6921 73.1762 77.1811 73.6532C76.4964 74.2892 77.709 75.2878 79.5641 75.1733C80.4863 75.1182 82.1188 74.6454 82.5767 74.0984C83.0347 73.5515 83.3103 72.7034 83.677 72.3049C84.0438 71.9063 84.8303 71.5056 85.0572 71.0328C85.1823 70.7678 85.1123 70.153 85.0339 69.6315C84.9618 69.1523 84.9448 68.4167 84.6735 68.476L84.6565 68.7241C84.5463 68.9361 84.2919 69.2816 83.5498 69.411C83.1809 69.4746 82.0743 69.5127 82.0043 68.7347Z" fill="#455A64"/>
<path opacity="0.15" d="M82.954 69.4322C82.6 69.4026 82.2184 69.2881 82.0678 68.9701V68.9595C82.0887 69.0952 82.0784 69.2339 82.0376 69.3651C81.9969 69.4963 81.9267 69.6164 81.8325 69.7163C81.5018 70.1064 79.422 72.854 79.422 72.854C79.422 72.854 81.3597 70.5856 81.7307 70.1594C82.282 69.5234 82.4558 69.4535 82.9625 69.4322H82.954Z" fill="black"/>
<path d="M77.1811 73.6595C77.6052 73.2567 78.4108 72.7182 79.3394 71.9253C79.1443 72.2412 78.8581 72.485 78.8306 72.5889C78.7585 72.8475 79.5238 73.2016 79.9881 73.3203C80.4524 73.439 80.9782 72.7733 81.6587 72.167C82.3393 71.5606 82.9477 72.2624 83.1852 73.104C83.0178 73.4579 82.8138 73.7933 82.5767 74.1047C82.1188 74.6517 80.4863 75.1245 79.5641 75.1796C77.709 75.2941 76.4964 74.2955 77.1811 73.6595Z" fill="#37474F"/>
<path opacity="0.15" d="M82.4961 70.1594C82.4974 70.1743 82.5017 70.1887 82.5087 70.2019C82.5158 70.2151 82.5255 70.2267 82.5372 70.236C82.5489 70.2454 82.5624 70.2522 82.5768 70.2561C82.5912 70.2601 82.6063 70.2611 82.6211 70.259C82.6508 70.2553 82.6778 70.2401 82.6964 70.2167C82.715 70.1934 82.7238 70.1636 82.7208 70.1339C82.7171 70.1043 82.7019 70.0772 82.6785 70.0586C82.6552 70.04 82.6254 70.0313 82.5957 70.0343C82.5808 70.0356 82.5663 70.0399 82.5531 70.047C82.5399 70.054 82.5283 70.0637 82.519 70.0754C82.5097 70.0871 82.5028 70.1006 82.4989 70.115C82.495 70.1295 82.494 70.1445 82.4961 70.1594Z" fill="black"/>
<path opacity="0.15" d="M81.9511 70.7611C81.9524 70.776 81.9567 70.7904 81.9638 70.8036C81.9709 70.8168 81.9806 70.8284 81.9923 70.8377C82.004 70.8471 82.0175 70.8539 82.0319 70.8579C82.0463 70.8618 82.0614 70.8628 82.0762 70.8607C82.091 70.859 82.1053 70.8545 82.1182 70.8473C82.1312 70.8401 82.1427 70.8304 82.1519 70.8188C82.1612 70.8072 82.1681 70.7939 82.1722 70.7796C82.1763 70.7653 82.1775 70.7504 82.1759 70.7356C82.1742 70.7209 82.1696 70.7066 82.1624 70.6936C82.1553 70.6806 82.1456 70.6691 82.134 70.6599C82.1223 70.6506 82.109 70.6438 82.0947 70.6397C82.0805 70.6356 82.0655 70.6343 82.0508 70.636C82.0359 70.6373 82.0214 70.6416 82.0082 70.6487C81.995 70.6557 81.9834 70.6654 81.9741 70.6771C81.9648 70.6888 81.9579 70.7023 81.954 70.7167C81.95 70.7312 81.9491 70.7462 81.9511 70.7611Z" fill="black"/>
<path opacity="0.15" d="M81.4065 71.3763C81.4102 71.4059 81.4254 71.433 81.4487 71.4516C81.4721 71.4702 81.5018 71.4789 81.5315 71.4759C81.5463 71.4743 81.5606 71.4697 81.5736 71.4625C81.5866 71.4553 81.598 71.4456 81.6073 71.434C81.6165 71.4224 81.6234 71.4091 81.6275 71.3948C81.6316 71.3805 81.6329 71.3656 81.6312 71.3508C81.6295 71.3361 81.625 71.3218 81.6178 71.3088C81.6106 71.2958 81.6009 71.2844 81.5893 71.2751C81.5777 71.2659 81.5643 71.259 81.5501 71.2549C81.5358 71.2508 81.5209 71.2495 81.5061 71.2512C81.4765 71.2549 81.4494 71.2701 81.4308 71.2935C81.4122 71.3168 81.4035 71.3466 81.4065 71.3763Z" fill="black"/>
<path opacity="0.15" d="M80.8616 71.9844C80.8658 72.0142 80.8814 72.0412 80.9051 72.0598C80.9288 72.0784 80.9588 72.087 80.9888 72.084C81.0106 72.081 81.0311 72.0716 81.0476 72.057C81.0642 72.0424 81.0761 72.0233 81.0818 72.002C81.0876 71.9807 81.0869 71.9581 81.0799 71.9372C81.073 71.9163 81.06 71.8979 81.0426 71.8843C81.0252 71.8707 81.0043 71.8625 80.9823 71.8607C80.9603 71.859 80.9383 71.8637 80.919 71.8744C80.8996 71.8851 80.8839 71.9012 80.8737 71.9207C80.8635 71.9403 80.8593 71.9624 80.8616 71.9844Z" fill="black"/>
<path opacity="0.15" d="M80.3167 72.5929C80.3222 72.6212 80.3381 72.6464 80.3613 72.6635C80.3845 72.6806 80.4133 72.6883 80.4419 72.6851C80.4705 72.6819 80.4969 72.668 80.5158 72.6462C80.5346 72.6244 80.5445 72.5963 80.5436 72.5675C80.5381 72.5392 80.5222 72.514 80.499 72.4969C80.4758 72.4798 80.447 72.4721 80.4184 72.4753C80.3897 72.4785 80.3634 72.4924 80.3445 72.5142C80.3257 72.536 80.3157 72.5641 80.3167 72.5929Z" fill="black"/>
<path d="M82.6126 70.1932C82.6231 70.1913 82.6328 70.1861 82.6402 70.1784C82.6444 70.1743 82.6478 70.1693 82.6501 70.1639C82.6524 70.1584 82.6536 70.1525 82.6536 70.1466C82.6536 70.1407 82.6524 70.1348 82.6501 70.1294C82.6478 70.1239 82.6444 70.119 82.6402 70.1148C82.2912 69.789 81.8307 69.6092 81.3533 69.6123C81.3417 69.6134 81.3309 69.6188 81.323 69.6274C81.3152 69.6361 81.3109 69.6473 81.3109 69.659C81.3112 69.665 81.3127 69.671 81.3153 69.6764C81.3179 69.6819 81.3216 69.6867 81.3262 69.6907C81.3307 69.6946 81.3361 69.6976 81.3418 69.6995C81.3476 69.7013 81.3537 69.702 81.3597 69.7014C81.8107 69.7025 82.2449 69.8727 82.5766 70.1784C82.5863 70.1878 82.5992 70.1931 82.6126 70.1932Z" fill="#263238"/>
<path d="M82.068 70.7997C82.0765 70.7985 82.0845 70.7951 82.0912 70.7896C82.0979 70.7842 82.1029 70.777 82.1058 70.7689C82.1086 70.7608 82.1092 70.752 82.1074 70.7436C82.1056 70.7352 82.1015 70.7275 82.0955 70.7212C81.7465 70.3954 81.286 70.2157 80.8086 70.2188C80.7968 70.2203 80.786 70.2262 80.7782 70.2351C80.7704 70.2441 80.7661 70.2557 80.7662 70.2676C80.7665 70.2736 80.768 70.2795 80.7706 70.285C80.7732 70.2904 80.7769 70.2953 80.7815 70.2992C80.7861 70.3032 80.7914 70.3062 80.7971 70.308C80.8029 70.3099 80.809 70.3105 80.815 70.31C81.266 70.3111 81.7003 70.4813 82.0319 70.787C82.0421 70.7952 82.0548 70.7997 82.068 70.7997Z" fill="#263238"/>
<path d="M81.523 71.4079C81.5342 71.4077 81.5449 71.4032 81.5527 71.3952C81.5614 71.3864 81.5662 71.3746 81.5662 71.3623C81.5662 71.35 81.5614 71.3382 81.5527 71.3295C81.2037 71.0053 80.7442 70.8264 80.2679 70.8291C80.2621 70.8297 80.2564 70.8313 80.2512 70.8341C80.246 70.8368 80.2414 70.8406 80.2376 70.8451C80.2339 70.8496 80.2311 70.8549 80.2293 70.8605C80.2276 70.8661 80.2271 70.872 80.2276 70.8779C80.2279 70.8839 80.2294 70.8899 80.232 70.8953C80.2346 70.9008 80.2383 70.9056 80.2429 70.9096C80.2475 70.9135 80.2528 70.9165 80.2586 70.9184C80.2643 70.9202 80.2704 70.9209 80.2764 70.9203C80.7263 70.9218 81.1595 71.0911 81.4912 71.3952C81.4952 71.3995 81.5002 71.4029 81.5057 71.4051C81.5112 71.4073 81.5171 71.4083 81.523 71.4079Z" fill="#263238"/>
<path d="M80.9782 72.0163C80.9894 72.0162 81.0001 72.0116 81.0079 72.0036C81.0166 71.9949 81.0215 71.983 81.0215 71.9707C81.0215 71.9584 81.0166 71.9466 81.0079 71.9379C80.6591 71.6134 80.1995 71.4344 79.7232 71.4375C79.7127 71.4398 79.7034 71.4456 79.6967 71.4538C79.6901 71.4621 79.6864 71.4725 79.6864 71.4831C79.6864 71.4938 79.6901 71.5041 79.6967 71.5124C79.7034 71.5207 79.7127 71.5264 79.7232 71.5287C80.1731 71.5302 80.6063 71.6995 80.938 72.0036C80.9428 72.0092 80.9492 72.0134 80.9563 72.0157C80.9634 72.0179 80.971 72.0181 80.9782 72.0163Z" fill="#263238"/>
<path d="M80.4334 72.6248C80.4445 72.6246 80.4552 72.62 80.463 72.612C80.4712 72.6031 80.4758 72.5913 80.4758 72.5792C80.4758 72.567 80.4712 72.5553 80.463 72.5463C80.113 72.2224 79.653 72.0436 79.1762 72.046C79.1694 72.0445 79.1623 72.0446 79.1555 72.0462C79.1487 72.0478 79.1424 72.0509 79.137 72.0553C79.1316 72.0596 79.1272 72.0652 79.1242 72.0714C79.1212 72.0777 79.1196 72.0846 79.1196 72.0916C79.1196 72.0985 79.1212 72.1054 79.1242 72.1117C79.1272 72.118 79.1316 72.1235 79.137 72.1279C79.1424 72.1322 79.1487 72.1353 79.1555 72.1369C79.1623 72.1386 79.1694 72.1386 79.1762 72.1371C79.6266 72.1395 80.0601 72.3087 80.3931 72.612C80.3976 72.6181 80.4039 72.6226 80.4112 72.6249C80.4184 72.6272 80.4262 72.6272 80.4334 72.6248Z" fill="#263238"/>
<path d="M90.1771 75.3362C90.1771 76.2054 90.2916 76.7863 90.5757 77.31C90.8598 77.8337 91.4237 78.0202 92.0258 77.8994C92.6279 77.7785 93.3933 77.416 93.5968 76.6782C93.7805 76.0055 93.8145 75.3006 93.6964 74.6133L90.1771 75.3362Z" fill="#263238"/>
<path d="M93.0518 69.1309C93.2935 69.1605 93.1875 70.2545 93.2638 71.4269C93.3084 72.0248 93.2935 72.576 93.3974 72.9788C93.5304 73.431 93.6219 73.8944 93.6709 74.3632C93.7684 75.5398 93.6815 76.0592 93.2469 76.7483C92.8123 77.4373 91.3176 78.0606 90.6519 77.0133C90.1092 76.1652 90.1283 75.243 90.2279 74.077C90.3403 72.8707 90.1749 72.0375 90.1707 71.1089C90.1707 70.2312 89.9205 69.3132 90.283 69.3153C90.2936 69.4446 90.3021 69.6079 90.3127 69.7393C90.3233 69.8708 90.3127 70.3139 90.459 70.3245C90.4742 70.2149 90.4799 70.1043 90.476 69.9937C90.4669 69.8943 90.4957 69.7951 90.5565 69.716C90.6329 69.6502 90.7293 69.6121 90.83 69.6079C91.0717 69.5718 91.6441 69.5061 91.89 69.4955C92.013 69.4955 92.3713 69.4467 92.4921 69.4552C92.5964 69.4572 92.6995 69.4766 92.7974 69.5125C92.8256 69.5239 92.8512 69.5408 92.8727 69.5623C92.8942 69.5838 92.9111 69.6094 92.9225 69.6376C92.9298 69.6825 92.9298 69.7283 92.9225 69.7732C92.9183 69.8543 92.9247 69.9355 92.9416 70.0149C92.9416 70.0489 92.9691 70.0912 93.0052 70.0849C93.0412 70.0785 93.0455 70.0446 93.0476 70.017C93.0476 69.875 93.0476 69.7711 93.0476 69.6079C93.0476 69.5316 93.0476 69.4277 93.0476 69.3513C93.0476 69.275 93.054 69.2051 93.0518 69.1309Z" fill="#455A64"/>
<path opacity="0.15" d="M92.7763 74.609C92.7769 74.6201 92.7752 74.6312 92.7715 74.6418C92.7677 74.6523 92.762 74.6619 92.7545 74.6702C92.747 74.6785 92.7379 74.6852 92.7279 74.69C92.7178 74.6947 92.7069 74.6975 92.6957 74.698C92.6847 74.6989 92.6736 74.6975 92.6631 74.694C92.6526 74.6905 92.6429 74.6849 92.6346 74.6776C92.6263 74.6703 92.6196 74.6614 92.6148 74.6514C92.61 74.6415 92.6072 74.6306 92.6067 74.6196C92.6061 74.6084 92.6077 74.5973 92.6115 74.5868C92.6152 74.5763 92.621 74.5666 92.6285 74.5583C92.636 74.5501 92.645 74.5433 92.6551 74.5386C92.6652 74.5338 92.6761 74.5311 92.6872 74.5305C92.6983 74.5297 92.7094 74.531 92.7199 74.5345C92.7304 74.538 92.74 74.5436 92.7484 74.5509C92.7567 74.5582 92.7634 74.5671 92.7682 74.5771C92.773 74.5871 92.7757 74.5979 92.7763 74.609Z" fill="black"/>
<path opacity="0.15" d="M92.7341 73.7994C92.7349 73.8162 92.7307 73.8328 92.7221 73.8472C92.7135 73.8615 92.7008 73.873 92.6857 73.8802C92.6705 73.8874 92.6536 73.8899 92.637 73.8874C92.6204 73.885 92.6049 73.8777 92.5925 73.8664C92.5801 73.8552 92.5712 73.8405 92.5671 73.8242C92.563 73.808 92.5639 73.7909 92.5695 73.7751C92.5751 73.7593 92.5853 73.7455 92.5987 73.7355C92.6122 73.7255 92.6283 73.7197 92.645 73.7189C92.6562 73.7183 92.6673 73.7199 92.6778 73.7237C92.6883 73.7274 92.698 73.7332 92.7063 73.7407C92.7145 73.7481 92.7213 73.7572 92.726 73.7673C92.7308 73.7774 92.7335 73.7883 92.7341 73.7994Z" fill="black"/>
<path opacity="0.15" d="M92.6936 73.0338C92.6944 73.0505 92.6902 73.0672 92.6816 73.0815C92.673 73.0959 92.6603 73.1074 92.6451 73.1146C92.63 73.1218 92.613 73.1243 92.5965 73.1218C92.5799 73.1194 92.5644 73.1121 92.552 73.1008C92.5395 73.0896 92.5307 73.0749 92.5266 73.0586C92.5225 73.0424 92.5233 73.0253 92.529 73.0095C92.5346 72.9937 92.5448 72.9799 92.5582 72.9699C92.5717 72.9599 92.5878 72.9541 92.6045 72.9532C92.6157 72.9527 92.6268 72.9543 92.6373 72.958C92.6478 72.9618 92.6575 72.9676 92.6657 72.975C92.674 72.9825 92.6807 72.9916 92.6855 73.0017C92.6903 73.0117 92.693 73.0227 92.6936 73.0338Z" fill="black"/>
<path opacity="0.15" d="M92.6534 72.2795C92.6545 72.3016 92.647 72.3233 92.6323 72.34C92.6177 72.3566 92.597 72.3669 92.5749 72.3685C92.5522 72.3697 92.5299 72.3619 92.5129 72.3468C92.4959 72.3318 92.4854 72.3106 92.4838 72.2879C92.4838 72.2654 92.4927 72.2439 92.5086 72.228C92.5245 72.2121 92.5461 72.2031 92.5686 72.2031C92.5911 72.2031 92.6126 72.2121 92.6285 72.228C92.6444 72.2439 92.6534 72.2654 92.6534 72.2879V72.2795Z" fill="black"/>
<path opacity="0.15" d="M91.0611 72.3048C91.0619 72.3215 91.0578 72.3381 91.0491 72.3525C91.0405 72.3669 91.0278 72.3784 91.0127 72.3856C90.9975 72.3928 90.9806 72.3953 90.964 72.3928C90.9474 72.3904 90.9319 72.3831 90.9195 72.3718C90.9071 72.3606 90.8983 72.3459 90.8942 72.3296C90.8901 72.3134 90.8909 72.2963 90.8965 72.2805C90.9021 72.2647 90.9123 72.2509 90.9258 72.2409C90.9392 72.2309 90.9553 72.2251 90.9721 72.2242C90.9832 72.2237 90.9943 72.2253 91.0048 72.229C91.0154 72.2328 91.025 72.2386 91.0333 72.246C91.0416 72.2535 91.0483 72.2626 91.0531 72.2726C91.0578 72.2827 91.0606 72.2937 91.0611 72.3048Z" fill="black"/>
<path opacity="0.15" d="M91.1015 73.0636C91.1021 73.0747 91.1004 73.0858 91.0967 73.0964C91.0929 73.1069 91.0872 73.1165 91.0797 73.1248C91.0722 73.1331 91.0632 73.1398 91.0531 73.1446C91.043 73.1493 91.0321 73.1521 91.0209 73.1526C91.0099 73.1535 90.9988 73.1521 90.9883 73.1486C90.9778 73.1451 90.9681 73.1395 90.9598 73.1322C90.9515 73.1249 90.9448 73.116 90.94 73.106C90.9352 73.096 90.9324 73.0852 90.9319 73.0742C90.9313 73.063 90.9329 73.0519 90.9367 73.0414C90.9404 73.0309 90.9462 73.0212 90.9537 73.0129C90.9612 73.0047 90.9702 72.9979 90.9803 72.9932C90.9904 72.9884 91.0013 72.9857 91.0124 72.9851C91.0235 72.9843 91.0346 72.9856 91.0451 72.9891C91.0556 72.9926 91.0652 72.9982 91.0736 73.0055C91.0819 73.0128 91.0886 73.0217 91.0934 73.0317C91.0982 73.0417 91.1009 73.0525 91.1015 73.0636Z" fill="black"/>
<path opacity="0.15" d="M91.1418 73.831C91.1424 73.8533 91.1344 73.875 91.1194 73.8916C91.1043 73.9082 91.0835 73.9184 91.0612 73.92C91.0445 73.9208 91.0279 73.9166 91.0135 73.908C90.9991 73.8994 90.9876 73.8867 90.9804 73.8716C90.9733 73.8564 90.9708 73.8395 90.9732 73.8229C90.9757 73.8063 90.983 73.7908 90.9942 73.7784C91.0055 73.766 91.0201 73.7571 91.0364 73.7531C91.0526 73.749 91.0698 73.7498 91.0855 73.7554C91.1013 73.761 91.1151 73.7712 91.1251 73.7847C91.1351 73.7981 91.1409 73.8142 91.1418 73.831Z" fill="black"/>
<path opacity="0.15" d="M91.1842 74.6412C91.1848 74.6523 91.1832 74.6635 91.1794 74.674C91.1757 74.6845 91.1699 74.6942 91.1624 74.7024C91.155 74.7107 91.1459 74.7174 91.1358 74.7222C91.1257 74.727 91.1148 74.7297 91.1037 74.7302C91.0926 74.7311 91.0816 74.7297 91.0711 74.7262C91.0606 74.7227 91.0509 74.7172 91.0426 74.7099C91.0343 74.7025 91.0275 74.6936 91.0227 74.6837C91.0179 74.6737 91.0152 74.6629 91.0146 74.6518C91.0141 74.6407 91.0157 74.6295 91.0194 74.619C91.0232 74.6085 91.029 74.5988 91.0364 74.5906C91.0439 74.5823 91.053 74.5756 91.0631 74.5708C91.0731 74.566 91.0841 74.5633 91.0952 74.5628C91.1062 74.5619 91.1173 74.5632 91.1278 74.5668C91.1383 74.5703 91.148 74.5758 91.1563 74.5831C91.1646 74.5905 91.1714 74.5994 91.1762 74.6093C91.181 74.6193 91.1837 74.6301 91.1842 74.6412Z" fill="black"/>
<path d="M93.6775 74.3657C93.6381 73.9546 93.5615 73.548 93.4485 73.1509C93.4084 73.1855 93.374 73.2263 93.3467 73.2717C93.286 73.3821 93.2437 73.5017 93.2217 73.6258C93.1835 73.7784 93.1432 73.9523 93.1114 74.0858C93.0266 74.4378 92.9248 74.8173 92.6217 75.0526C92.4168 75.1864 92.1713 75.2435 91.9284 75.2137C91.7151 75.221 91.5016 75.2032 91.2924 75.1607C91.0253 75.078 90.9723 74.8321 90.9023 74.5925C90.8175 74.2936 90.7263 73.9968 90.6309 73.7C90.596 73.551 90.523 73.4136 90.4189 73.3014C90.3728 73.2727 90.3228 73.2506 90.2705 73.2357C90.2705 73.5177 90.2578 73.7763 90.2302 74.0837C90.1221 75.2497 90.103 76.1656 90.6543 77.02C91.32 78.0673 92.8061 77.444 93.2492 76.755C93.6923 76.066 93.775 75.5402 93.6775 74.3657Z" fill="#37474F"/>
<path opacity="0.15" d="M91.8773 75.0564L91.4957 69.3916L91.8095 69.4001L91.8773 75.0564Z" fill="black"/>
<path d="M92.6937 74.6579H92.6809C92.1692 74.5064 91.6234 74.5145 91.1163 74.6812C91.1112 74.6837 91.1056 74.6851 91.0999 74.6854C91.0942 74.6856 91.0886 74.6848 91.0832 74.6828C91.0779 74.6808 91.073 74.6778 91.0688 74.6739C91.0647 74.6699 91.0614 74.6652 91.0591 74.66C91.0548 74.6493 91.0549 74.6374 91.0592 74.6267C91.0635 74.616 91.0719 74.6074 91.0824 74.6028C91.6062 74.4249 92.1726 74.4152 92.7021 74.5752C92.7133 74.5782 92.7228 74.5854 92.7287 74.5953C92.7347 74.6052 92.7365 74.617 92.7339 74.6282C92.731 74.6366 92.7256 74.644 92.7184 74.6492C92.7112 74.6545 92.7026 74.6576 92.6937 74.6579Z" fill="#263238"/>
<path d="M92.6512 73.8461H92.63C92.206 73.6341 91.5106 73.685 91.0738 73.8737C91.0631 73.878 91.0512 73.8779 91.0405 73.8736C91.0298 73.8692 91.0213 73.8609 91.0166 73.8504C91.0142 73.8453 91.0129 73.8397 91.0128 73.8341C91.0127 73.8284 91.0138 73.8228 91.016 73.8176C91.0182 73.8124 91.0215 73.8078 91.0256 73.8039C91.0297 73.8 91.0346 73.7971 91.0399 73.7953C91.4957 73.5981 92.2293 73.5345 92.6703 73.7698C92.6789 73.774 92.6859 73.7811 92.6901 73.7898C92.6942 73.7985 92.6953 73.8084 92.693 73.8177C92.6908 73.8271 92.6855 73.8355 92.6778 73.8414C92.6702 73.8474 92.6608 73.8505 92.6512 73.8504V73.8461Z" fill="#263238"/>
<path d="M92.6109 73.0805H92.5897C92.1657 72.8579 91.4703 72.9194 91.0336 73.1081C91.0229 73.1124 91.0109 73.1123 91.0002 73.108C90.9896 73.1036 90.981 73.0953 90.9763 73.0847C90.9739 73.0796 90.9726 73.0741 90.9725 73.0684C90.9724 73.0628 90.9735 73.0572 90.9757 73.052C90.9779 73.0468 90.9812 73.0421 90.9853 73.0383C90.9894 73.0344 90.9943 73.0315 90.9996 73.0296C91.4555 72.8325 92.189 72.7689 92.63 73.0042C92.6387 73.0084 92.6457 73.0154 92.6498 73.0242C92.6539 73.0329 92.655 73.0427 92.6528 73.0521C92.6505 73.0615 92.6452 73.0699 92.6376 73.0758C92.63 73.0817 92.6205 73.0849 92.6109 73.0847V73.0805Z" fill="#263238"/>
<path d="M92.5642 72.3258H92.543C92.119 72.1032 91.4236 72.1647 90.9869 72.3534C90.9814 72.357 90.9753 72.3594 90.9688 72.3604C90.9623 72.3614 90.9556 72.3609 90.9494 72.359C90.9431 72.3572 90.9373 72.3539 90.9324 72.3495C90.9275 72.3451 90.9236 72.3397 90.9211 72.3337C90.9185 72.3276 90.9174 72.3211 90.9176 72.3145C90.9179 72.308 90.9196 72.3015 90.9227 72.2957C90.9257 72.2899 90.93 72.2848 90.9353 72.2809C90.9405 72.2769 90.9466 72.2742 90.953 72.2728C91.4088 72.0778 92.1423 72.0142 92.5833 72.2495C92.5884 72.2519 92.5929 72.2554 92.5965 72.2597C92.6002 72.264 92.6029 72.269 92.6045 72.2744C92.6061 72.2798 92.6065 72.2854 92.6058 72.291C92.6051 72.2966 92.6032 72.3019 92.6003 72.3067C92.5967 72.313 92.5914 72.3181 92.585 72.3215C92.5786 72.3249 92.5714 72.3264 92.5642 72.3258Z" fill="#263238"/>
<path d="M91.9664 37.1138C92.2293 37.9491 92.5112 41.0274 92.63 42.3185C93.1261 47.6187 93.16 55.111 93.16 55.111C93.2151 55.6665 93.4971 56.171 93.6434 58.8402C93.8045 61.7383 93.478 71.4101 93.478 71.4101C93.478 71.4101 91.2625 72.345 89.965 71.5076C89.965 71.5076 88.0952 59.9554 87.6839 57.0912C87.3213 54.5895 86.7722 50.6122 86.7722 50.6122L86.098 56.9046C86.098 56.9046 86.2486 58.8932 86.1977 60.3518C86.1404 62.0479 85.1122 69.4914 85.1122 69.4914C85.1122 69.4914 82.9561 70.2631 81.4063 69.2964C81.4063 69.2964 81.0226 57.7675 80.959 55.728C80.8339 51.7274 80.959 42.8083 81.0756 38.5088L91.9664 37.1138Z" fill="#263238"/>
<path d="M86.7723 50.6209L86.2041 46.1836C86.2041 46.1836 84.4084 46.0246 83.3844 45.1235C83.3844 45.1235 83.696 46.1836 85.6826 46.7327L86.1511 50.1969L86.1829 55.938L86.7723 50.6209Z" fill="black"/>
<path d="M76.4348 32.1485C74.815 30.9867 74.3507 30.6644 74.1642 30.2404C73.9776 29.8164 74.0327 29.3797 73.897 28.6758C73.781 28.0764 73.781 27.4604 73.897 26.861C73.9924 26.4985 73.5578 26.543 73.2059 26.984C72.854 27.4249 72.9939 27.6815 72.8964 28.1119C72.7988 28.5422 72.6144 28.4913 72.3515 28.2285C72.0886 27.9656 70.8441 26.6384 70.4053 26.261C69.9664 25.8837 69.659 25.9727 69.5424 26.1699C69.4767 26.2822 69.7078 26.5133 70.2548 27.1197C70.8017 27.726 71.3784 28.2306 71.336 28.2687C71.2936 28.3069 70.7339 27.7536 70.1 27.2087C69.517 26.7147 69.1778 26.4709 68.8513 26.5027C68.4781 26.5409 68.4591 26.8207 68.5629 26.9034C69.0426 27.2651 69.5019 27.653 69.9389 28.0652C70.197 28.2907 70.4386 28.5344 70.6618 28.7945C70.6321 28.8645 70.1636 28.4807 69.5127 28.1055C68.9191 27.762 68.5799 27.6158 68.2407 27.796C68.1707 27.8341 68.0753 27.938 68.1008 28.008C68.1559 28.1521 68.6435 28.3917 68.934 28.5783C69.358 28.8518 69.3982 28.8581 69.7057 29.0807C69.9177 29.2334 70.189 29.4348 70.17 29.4751C70.1509 29.5153 69.0972 29.0108 68.7262 29.0171C68.4082 29.0171 68.1813 29.1994 68.4612 29.3966C68.741 29.5938 70.2654 30.516 70.8399 30.9167C71.4144 31.3174 72.0462 31.8495 72.5889 32.2863C73.1317 32.723 75.5083 34.4784 75.5083 34.4784L76.4348 32.1485Z" fill="#B3ACAC"/>
<path d="M72.5931 28.8755C72.2899 29.3928 72.6334 30.209 73.0171 30.6627C72.4235 30.2366 72.0546 29.5878 72.5931 28.8755Z" fill="#958383"/>
<path d="M83.5773 31.5804L83.872 26.2188C82.4346 26.5516 81.8473 26.9693 80.9209 28.5254C80.4036 29.3925 79.2248 31.2815 78.1372 33.0093L74.9317 30.7175C74.9317 30.7175 73.5536 31.9175 73.2865 33.1514C73.2865 33.1514 77.0751 36.4841 77.9125 37.0671C78.6778 37.5971 79.2502 37.9152 80.3294 36.694C81.4085 35.4728 83.2953 32.068 83.5773 31.5804Z" fill="#263238"/>
<path d="M78.1478 33.0096C78.8241 33.476 79.4941 34.358 79.6001 35.0533C79.6006 34.5869 79.4876 34.1274 79.2708 33.7144C79.054 33.3014 78.7399 32.9475 78.3556 32.6831L78.1478 33.0096Z" fill="black"/>
<path d="M85.6549 25.6909C86.151 25.7333 88.9792 25.6146 89.7339 25.8414C90.3424 26.0259 91.0738 26.1997 91.6017 26.4033C92.1296 26.6068 92.0935 27.0054 92.1232 27.7919C92.2229 30.495 91.9663 36.3082 91.9663 36.3082L92.2292 40.0183C90.9424 41.3349 84.2451 42.414 81.0756 40.3703C81.0756 40.3703 81.2006 33.4355 81.525 30.0646C81.7921 27.2894 83.0281 26.5538 83.9864 26.2485C85.233 25.8414 85.6549 25.6909 85.6549 25.6909Z" fill="#FAFAFA"/>
<path d="M90.0307 19.9963C89.6406 21.8069 87.6583 22.9178 85.6019 22.4747C83.5454 22.0316 82.1928 20.2083 82.5829 18.3957C82.973 16.583 84.9531 15.4742 87.0117 15.9173C89.0703 16.3604 90.4187 18.1837 90.0307 19.9963Z" fill="#263238"/>
<path d="M88.7629 17.6323C88.7629 17.6323 89.5176 17.7002 89.8229 18.2514C90.6815 18.703 90.7261 19.9178 90.2575 21.2598C89.8187 22.5148 89.4667 22.7247 89.2484 23.0639C88.907 23.5982 88.7438 23.8272 88.7438 23.8272L88.6823 22.6781L88.6972 21.618C88.6972 21.618 87.9573 20.8442 87.83 20.0344C87.7175 19.4907 87.7416 18.9276 87.9 18.3955C87.9997 18.0436 88.2922 17.6154 88.7629 17.6323Z" fill="#263238"/>
<path d="M88.6464 21.455C88.8881 21.4953 89.0238 21.0734 89.2295 20.8487C89.3172 20.7579 89.4262 20.6905 89.5467 20.6526C89.6671 20.6147 89.7951 20.6076 89.919 20.6318C90.0429 20.6561 90.1588 20.7109 90.2561 20.7914C90.3534 20.8718 90.429 20.9753 90.4761 21.0925C90.8428 21.8239 90.4103 22.5384 89.8231 22.8415C89.6457 22.909 89.4533 22.9268 89.2666 22.8932C89.0798 22.8596 88.9058 22.7758 88.763 22.6507L88.7079 25.5404V25.5849C88.0719 26.4329 87.0352 26.0301 85.7165 27.1453C85.6355 26.8052 85.6147 26.4537 85.655 26.1064L85.6381 25.0761C85.6381 25.0761 84.7498 25.18 84.1922 24.9828C83.535 24.7496 83.1321 24.3192 82.8587 23.5942C82.564 22.8013 82.4813 20.749 82.7421 19.2926C82.9541 18.1456 83.2445 17.8806 84.0947 17.6919C85.2342 17.4698 86.4122 17.5517 87.5101 17.9294C87.8875 18.0735 87.8875 18.1986 87.8048 18.5314C87.4041 20.3038 88.4069 21.4126 88.6464 21.455Z" fill="#B3ACAC"/>
<path d="M85.4409 22.8012C85.9073 22.6104 86.3822 23.0535 86.132 23.2252C86.0218 23.2994 85.814 23.2401 85.6507 23.31C85.4493 23.3969 85.3476 23.5793 85.1843 23.5432C84.9681 23.4839 84.9744 22.9899 85.4409 22.8012Z" fill="#958383"/>
<path d="M85.4132 23.4607C85.4149 23.3128 85.4748 23.1716 85.58 23.0676C85.6852 22.9636 85.8271 22.9053 85.975 22.9053C86.0209 22.9063 86.0664 22.9127 86.1107 22.9244C86.2125 23.0261 86.24 23.1491 86.1319 23.219C86.0238 23.289 85.8139 23.2339 85.6507 23.3038C85.5652 23.3459 85.4854 23.3986 85.4132 23.4607Z" fill="#E4C5C5"/>
<path d="M85.6252 25.0761C86.2641 24.979 86.8819 24.7747 87.4527 24.4719C87.8417 24.2355 88.1442 23.8802 88.3156 23.4585C88.2993 23.8342 88.17 24.1963 87.9446 24.4973C87.5524 24.9998 85.6337 25.5404 85.6337 25.5404L85.6252 25.0761Z" fill="#958383"/>
<path d="M85.9051 20.8337C85.9072 20.8944 85.9272 20.9531 85.9626 21.0024C85.998 21.0517 86.0472 21.0894 86.104 21.1108C86.1609 21.1321 86.2227 21.1362 86.2818 21.1225C86.341 21.1087 86.3947 21.0778 86.4363 21.0336C86.4778 20.9894 86.5054 20.9338 86.5154 20.874C86.5255 20.8141 86.5176 20.7526 86.4928 20.6972C86.4679 20.6418 86.4273 20.5951 86.3759 20.5628C86.3245 20.5305 86.2647 20.5141 86.204 20.5157C86.1226 20.5196 86.046 20.5549 85.9902 20.6143C85.9344 20.6736 85.9039 20.7523 85.9051 20.8337Z" fill="black"/>
<path d="M85.9921 19.761L86.6578 20.1087C86.7031 20.0179 86.7114 19.913 86.681 19.8161C86.6505 19.7192 86.5837 19.6379 86.4945 19.5893C86.4505 19.5664 86.4023 19.5526 86.3528 19.5489C86.3032 19.5452 86.2535 19.5515 86.2065 19.5676C86.1595 19.5836 86.1163 19.609 86.0794 19.6423C86.0426 19.6756 86.0129 19.716 85.9921 19.761Z" fill="black"/>
<path d="M83.8932 19.3818L83.1766 19.6299C83.1906 19.6771 83.2139 19.7211 83.2453 19.7591C83.2767 19.7971 83.3155 19.8283 83.3592 19.8509C83.403 19.8735 83.4509 19.8869 83.5001 19.8905C83.5492 19.8941 83.5986 19.8876 83.6452 19.8716C83.7414 19.8373 83.8208 19.7673 83.867 19.6762C83.9131 19.5851 83.9225 19.4797 83.8932 19.3818Z" fill="black"/>
<path d="M83.2358 20.6749C83.2396 20.7355 83.2611 20.7937 83.2977 20.8422C83.3343 20.8907 83.3843 20.9273 83.4416 20.9476C83.4989 20.9678 83.5608 20.9707 83.6197 20.956C83.6787 20.9413 83.732 20.9096 83.773 20.8648C83.814 20.82 83.841 20.7642 83.8505 20.7042C83.86 20.6442 83.8516 20.5827 83.8265 20.5274C83.8013 20.4722 83.7604 20.4255 83.7089 20.3933C83.6574 20.3611 83.5976 20.3447 83.5369 20.3463C83.4955 20.3479 83.4548 20.3577 83.4172 20.3752C83.3796 20.3926 83.3459 20.4173 83.3179 20.4479C83.2899 20.4784 83.2682 20.5142 83.2542 20.5532C83.2401 20.5921 83.2338 20.6335 83.2358 20.6749Z" fill="black"/>
<path d="M85.0761 20.2104L84.7708 22.3878L83.6599 22.0125C83.9822 21.3341 84.5228 20.556 85.0761 20.2104Z" fill="#958383"/>
<path d="M85.144 27.6564C85.0092 27.4059 84.9365 27.1267 84.932 26.8423L85.356 26.52L85.5829 27.2196L85.144 27.6564Z" fill="#A0A0A0"/>
<path opacity="0.25" d="M85.144 27.6564C85.0092 27.4059 84.9365 27.1267 84.932 26.8423L85.356 26.52L85.5829 27.2196L85.144 27.6564Z" fill="black"/>
<path d="M85.9518 27.247L87.0118 26.4668L87.8662 27.1283L86.221 27.989L85.9518 27.247Z" fill="#A0A0A0"/>
<path opacity="0.25" d="M85.9518 27.247L87.0118 26.4668L87.8662 27.1283L86.221 27.989L85.9518 27.247Z" fill="black"/>
<path d="M85.8774 28.4897C85.8181 29.2741 85.9495 33.5482 86.1552 36.1516C86.2039 36.7876 85.375 38.1593 85.1545 38.1487C84.934 38.1381 84.4358 36.953 84.3213 36.2407C84.2768 34.5234 84.9573 29.3695 85.3283 28.4282L85.8774 28.4897Z" fill="#A0A0A0"/>
<path opacity="0.15" d="M85.3009 28.5128C85.3009 28.4853 85.32 28.4598 85.3285 28.4365L85.8776 28.4895L85.8627 28.7185C85.658 28.7135 85.4605 28.6412 85.3009 28.5128Z" fill="black"/>
<path d="M85.9539 27.2468C85.8354 27.2216 85.7146 27.2081 85.5935 27.2065C85.4007 27.306 85.2409 27.4591 85.1334 27.6475C85.1411 27.9214 85.2076 28.1903 85.3285 28.4362C85.4107 28.4841 85.5024 28.5137 85.5972 28.5229C85.692 28.532 85.7876 28.5205 85.8776 28.4892C86.0587 28.356 86.1966 28.1724 86.274 27.9613C86.2641 27.6906 86.1493 27.4344 85.9539 27.2468Z" fill="#A0A0A0"/>
<path d="M88.7248 24.5439V24.8153C88.6845 25.0273 88.2393 25.498 87.1708 25.992C86.1023 26.4859 85.7101 27.1516 85.7101 27.1516C85.7101 27.1516 86.1341 26.8188 86.4648 27.1516C86.9418 27.6223 87.1644 28.0315 87.3955 28.0209C87.6266 28.0103 88.7418 27.4527 89.2697 26.7488C89.4757 26.4662 89.6432 26.1576 89.7679 25.8308C89.0386 25.392 89.0131 24.5439 88.7248 24.5439Z" fill="#E6E6E6"/>
<path d="M85.7038 27.1453C85.3158 26.8761 84.8557 27.6393 84.7497 27.4973C84.6437 27.3552 85.0508 25.7249 85.6274 25.3306L85.7038 27.1453Z" fill="#E6E6E6"/>
<path d="M89.1425 25.127C89.0874 26.0661 84.9978 34.9089 84.9978 34.9089C84.9978 34.9089 83.6897 29.8759 85.2585 25.7503C84.7811 25.8569 84.3163 26.014 83.872 26.2188C82.9031 26.6237 81.6226 27.3212 81.2707 29.9798C80.9188 32.6383 80.8467 43.4698 80.8467 43.4698C84.0944 44.8649 87.7256 45.0897 91.1205 44.1058L91.2604 42.3228L91.6696 43.8789C92.0726 43.7936 92.4536 43.6261 92.789 43.3871C92.577 40.843 92.4583 36.0368 92.4392 34.3916C92.418 32.5493 92.4625 28.9325 92.418 27.7919C92.3735 26.6513 92.3078 26.6004 91.4958 26.2866C90.6838 25.9729 89.8464 25.8308 89.1425 25.127Z" fill="#37474F"/>
<path d="M85.4937 25.4473C85.2963 25.6027 85.0831 25.7371 84.8577 25.848C84.8577 25.848 83.7764 27.6543 83.3736 28.8161C82.9708 29.9778 82.9602 30.1793 83.9778 30.2259C83.38 30.5354 83.2295 30.5206 83.7934 32.4117C84.0868 33.4529 84.4964 34.4578 85.0145 35.4073L85.0506 34.9833C85.0506 34.9833 84.5481 32.3014 84.5672 30.2641C84.5927 27.0691 85.4937 25.4473 85.4937 25.4473Z" fill="#263238"/>
<path d="M89.0514 24.9512C89.1425 25.1271 89.7595 25.6126 90.3573 25.8798C90.1453 27.0776 89.7552 28.9687 89.3545 29.7934C88.9539 30.6181 88.4154 30.4294 87.7751 30.3467C88.1016 31.1015 88.5235 31.1778 87.5143 32.3629C86.0981 34.0314 84.7943 35.119 84.4784 36.8681C84.525 35.0109 85.3264 33.6328 85.7356 32.4159C86.1448 31.199 87.0076 29.6747 87.8217 28.0104C88.3058 27.0221 88.7168 25.9996 89.0514 24.9512Z" fill="#263238"/>
<path d="M91.5041 26.2822C93.3146 26.5472 94.1902 27.0836 94.7139 28.3747C95.2375 29.6659 96.0707 32.8269 96.5244 34.7349C96.9145 36.3716 97.0799 37.8493 96.6749 38.5511L93.2129 37.067L91.6016 31.9046C91.6016 31.9046 90.2872 27.9359 91.5041 26.2822Z" fill="#263238"/>
<path d="M92.9141 34.5508C93.2045 34.9621 93.5501 35.1254 94.2773 35.4773C94.9642 35.8059 95.7613 36.1133 96.1684 36.8681C96.0539 36.1748 95.6787 35.8314 94.8243 35.3416C93.9699 34.8519 92.7169 34.271 92.7169 34.271L92.9141 34.5508Z" fill="black"/>
<path d="M92.9141 34.5508C93.2045 34.9621 93.5501 35.1253 94.2773 35.4773C94.9642 35.8059 95.7614 36.1133 96.1684 36.868C96.5288 37.5295 96.921 38.0807 96.6751 38.5641C96.5076 38.8927 95.5409 39.092 94.6292 39.0241C93.7176 38.9563 93.107 38.1952 92.1912 37.5401C91.4089 36.974 90.9976 36.6136 90.9976 36.6136L92.9141 34.5508Z" fill="#263238"/>
<path d="M91.6887 35.1696C92.03 34.8664 92.1127 34.5335 92.6046 34.2982C93.0964 34.0629 93.3996 34.0862 93.9233 33.8572C94.4469 33.6283 94.8688 33.5223 95.2441 33.6707C95.6193 33.8191 95.5472 34.0353 95.2441 34.2007C94.9409 34.3661 94.4363 34.5717 94.0759 34.8007C93.7155 35.0296 93.372 35.1526 93.3445 35.5872C93.3143 36.2783 93.322 36.9704 93.3678 37.6606C93.4166 38.3963 93.5247 38.9963 93.4653 39.0705C93.406 39.1447 93.0901 39.1638 92.9226 38.744C92.7551 38.3242 92.5982 36.8232 92.5982 36.8232C92.5982 36.8232 92.3862 37.8451 92.2908 38.5511C92.1954 39.2571 92.1318 39.7977 92.1021 39.9482C92.0724 40.0987 91.5763 39.9482 91.5276 39.4097C91.4788 38.8712 91.6845 37.2896 91.6845 37.2896L90.9234 38.4387C90.6244 38.8903 90.2513 39.5093 90.1326 39.6599C90.0138 39.8104 89.7086 39.5115 89.8146 39.0896C89.9206 38.6677 90.529 37.6606 90.529 37.6606C90.529 37.6606 89.8252 38.3094 89.7064 38.3687C89.5877 38.4281 89.2379 38.3539 89.3884 37.8896C89.4881 37.5822 89.7022 37.3935 90.2704 36.819C90.8386 36.2444 90.847 35.9943 91.0294 35.7271C91.2711 35.3752 91.4385 35.3879 91.6887 35.1696Z" fill="#B3ACAC"/>
<path d="M92.9883 35.4986C92.4456 35.6979 91.9431 35.4287 91.8795 35.2866C91.8922 35.6598 92.6025 35.9163 92.9883 35.4986Z" fill="#958383"/>
<path d="M89.3585 38.1589C89.4032 38.202 89.4629 38.2261 89.5249 38.2261C89.587 38.2261 89.6467 38.202 89.6914 38.1589C89.919 37.9671 90.1363 37.7633 90.3422 37.5483C90.5012 37.3872 91.0503 36.8169 91.0503 36.8169L90.5309 37.6649C90.5309 37.6649 89.8271 38.3137 89.7083 38.373C89.6713 38.3872 89.6315 38.3927 89.5921 38.3891C89.5526 38.3855 89.5145 38.3728 89.4807 38.3521C89.4469 38.3314 89.4183 38.3032 89.3971 38.2697C89.3759 38.2362 89.3627 38.1983 89.3585 38.1589Z" fill="#958383"/>
<path d="M7.5496 69.6064C7.48176 70.0305 7.3376 70.5138 7.24219 71.3746C7.14679 72.2353 7.32488 72.2629 6.81818 74.4211C6.50865 75.7165 6.61889 76.0811 7.28035 77.2366C7.99482 78.481 9.22658 78.1864 9.77355 76.8846C10.2421 75.7716 10.1085 75.2607 10.0852 74.1286C10.0619 72.9964 10.0704 72.6445 10.1022 71.7477C10.1318 70.9484 10.0555 70.4036 10.1022 69.7909L7.5496 69.6064Z" fill="#37474F"/>
<path d="M7.35873 72.7398C7.49442 71.631 7.50714 70.4841 7.54954 69.7357C7.64282 68.0566 7.23577 64.7536 7.42234 62.2307L11.6625 61.7134C11.5374 62.7056 10.454 67.1577 10.0936 69.8544C10.0936 69.8544 10.0003 73.4946 9.79893 75.1016C9.79342 75.1489 9.77699 75.1943 9.75094 75.2342C9.72489 75.2741 9.68992 75.3073 9.6488 75.3314C9.60769 75.3555 9.56154 75.3696 9.51401 75.3728C9.46648 75.376 9.41886 75.368 9.37492 75.3496C8.76372 75.0935 8.08125 75.0634 7.4499 75.2648C7.40321 75.2834 7.35271 75.2904 7.30274 75.2851C7.25277 75.2798 7.20485 75.2624 7.1631 75.2344C7.12136 75.2064 7.08705 75.1687 7.06314 75.1245C7.03924 75.0803 7.02645 75.031 7.02588 74.9808C7.01952 74.3871 7.25697 73.573 7.35873 72.7398Z" fill="#E2D3CF"/>
<path d="M19.7018 61.4482C19.6848 64.9358 19.547 67.6388 19.6721 68.5441C19.7796 69.306 19.9745 70.0529 20.253 70.7702C20.4862 71.4062 20.8721 72.2542 21.2198 72.6549C21.2198 72.6549 22.2162 73.7149 21.9936 73.8273C21.771 73.9397 19.6848 74.1559 18.752 73.8739C17.8192 73.592 17.7174 72.8012 17.3994 71.3532C17.0814 69.9052 16.8058 67.7915 16.8058 67.7915C16.8498 67.7145 16.8826 67.6317 16.9033 67.5455C17.0263 67.1215 16.6468 66.0445 16.5514 65.0015L19.7018 61.4482Z" fill="#E2D3CF"/>
<path d="M15.9705 69.9244C15.9938 70.3971 16.2885 70.66 16.3945 71.1964C16.5175 71.8021 16.58 72.4186 16.581 73.0366C16.581 73.7914 16.581 73.8995 16.581 73.8995H16.8164C16.8164 73.8995 16.8164 72.8077 16.8036 72.3285C16.7909 71.8494 16.8439 71.4996 17.0729 71.4466C17.0771 71.4402 17.1026 69.9138 15.9705 69.9244Z" fill="#263238"/>
<path d="M16.721 67.6684C16.5684 68.1052 16.3842 68.5303 16.1698 68.9404C16.0489 69.1683 15.9767 69.4188 15.9578 69.6761C15.9476 69.7912 15.9637 69.9071 16.0048 70.0151C16.046 70.123 16.1111 70.2202 16.1952 70.2994C16.3924 70.4862 16.5713 70.6914 16.7295 70.9121C17.0157 71.2958 17.5521 72.1841 17.7005 72.8201C17.8489 73.4562 17.9337 74.0074 18.4764 74.3212C18.9005 74.5671 20.6368 74.9084 21.5145 74.9572C22.7145 75.0335 23.024 74.4568 22.5745 73.9947C22.1251 73.5325 21.364 72.7459 21.2262 72.6484C20.8473 72.6009 20.4626 72.6543 20.111 72.8032C19.439 73.0915 19.2248 73.4837 18.521 73.1318C17.8849 72.8117 17.7111 71.6329 17.6729 69.9326C17.6284 67.3143 16.721 67.6684 16.721 67.6684Z" fill="#37474F"/>
<path d="M9.50216 37.6294C9.4223 38.1352 9.2544 38.6232 9.00607 39.071C8.2492 40.5318 7.6047 41.5367 7.59834 44.1804C7.57926 50.1993 7.78491 55.9934 7.78491 55.9934C7.74251 56.5234 7.34182 57.8103 7.28457 60.8378C7.24005 63.2504 7.35454 69.6064 7.35454 69.6064C7.35454 69.6064 8.79194 70.4311 10.2929 69.8544C10.6936 67.3697 12.2137 59.4194 12.7861 56.7821C13.3988 54.0048 14.0243 50.6932 14.0243 50.6932L15.0631 55.5397C14.9592 56.5838 14.9728 57.6363 15.1034 58.6774C15.2942 60.2865 16.5238 67.993 16.5238 67.993C16.5238 67.993 18.1987 68.593 19.8184 67.7322C19.8184 67.7322 19.8184 57.6047 19.9286 55.8344C20.0325 54.1129 19.3817 41.8674 18.8368 37.693C16.8503 38.787 11.2003 38.7594 9.50216 37.6294Z" fill="#263238"/>
<path d="M14.0244 50.6934L14.5799 45.6201C14.5799 45.6201 16.6681 45.4823 18.0059 44.1636C18.0059 44.1636 17.4017 45.7282 15.1968 46.2836L14.4845 50.9584L15.0632 55.5483L14.0244 50.6934Z" fill="black"/>
<path d="M31.6632 25.6827C31.4801 25.6405 31.2885 25.6553 31.1141 25.7251C30.8413 25.8524 30.5784 25.9998 30.3275 26.1661C29.9247 26.3781 29.2675 26.7449 28.8117 26.7237C28.7163 26.7237 28.5212 26.6813 28.6484 26.5626C28.8259 26.4196 28.9899 26.2607 29.1382 26.0877C29.213 26.001 29.2689 25.8997 29.3021 25.7901C29.3353 25.6806 29.3452 25.5653 29.3311 25.4516C29.3226 25.3825 29.2885 25.319 29.2357 25.2736C29.1572 25.2163 29.1021 25.2524 29.0428 25.299C28.9754 25.346 28.9045 25.3879 28.8308 25.4241L28.394 25.6764C27.546 26.1725 26.698 26.7512 26.1997 27.6205C26.1255 27.7456 25.6888 28.7377 25.4068 29.2974C25.1758 29.8084 23.4352 33.0054 23.4352 33.0054L20.3293 29.978C19.6339 29.2826 18.9406 28.6381 18.3237 28.4028C17.8827 28.2311 17.2637 28.0063 17.2637 28.0063L18.3979 33.3235C18.3979 33.3235 21.6776 35.7912 22.1462 36.1304C22.8416 36.6329 24.2302 37.447 24.9192 36.5968C25.8542 35.4414 26.31 33.7771 26.7467 32.5051C27.1835 31.2331 27.4167 30.4635 27.6668 30.0246C27.917 29.5858 28.3283 29.5561 28.6166 29.467C29.0173 29.3544 29.4005 29.1868 29.7551 28.9688C30.0738 28.7964 30.3682 28.5825 30.6307 28.3328C30.7716 28.2238 30.8873 28.0857 30.9699 27.9279C30.9891 27.7852 31.016 27.6437 31.0505 27.5039C31.1468 27.3611 31.2353 27.2132 31.3155 27.0608C31.341 26.9274 31.3495 26.7914 31.3409 26.6558C31.3533 26.5602 31.3858 26.4683 31.4362 26.3861C31.4867 26.3039 31.5539 26.2333 31.6335 26.1788C31.7123 26.1198 31.7768 26.0437 31.8222 25.9562C31.8858 25.7887 31.7861 25.7167 31.6632 25.6827Z" fill="#E2D3CF"/>
<path d="M24.7622 30.4505L25.1862 29.7275C25.3643 30.1565 25.6728 30.5184 26.0682 30.7621C26.7678 31.2285 27.2406 31.0589 27.2406 31.0589L26.984 31.9282C26.984 31.9282 26.4561 32.1232 25.6208 31.572C24.7855 31.0208 24.7622 30.4505 24.7622 30.4505Z" fill="#A0A0A0"/>
<path d="M17.1365 27.8853C17.7174 28.0252 18.2898 28.0973 18.9703 28.623C19.7187 29.2039 23.3992 32.4519 23.3992 32.4519L24.9023 30.1389C24.9023 30.1389 24.9871 30.7749 25.8627 31.2837C26.7849 31.818 27.1177 31.6378 27.1177 31.6378C27.1177 31.6378 26.433 34.3939 25.6803 35.738C24.9277 37.0821 24.4973 37.5294 23.2677 36.974C22.0381 36.4185 17.8403 33.2893 17.8403 33.2893L17.1365 27.8853Z" fill="#263238"/>
<path d="M28.2795 27.1284C28.0636 27.6543 27.7025 28.108 27.2385 28.4365C27.5355 28.4024 27.8103 28.2624 28.0124 28.0422C28.1183 27.917 28.1968 27.771 28.2428 27.6136C28.2888 27.4562 28.3013 27.2909 28.2795 27.1284Z" fill="#B9A199"/>
<path d="M23.399 32.4521C22.8732 33.3637 22.71 34.534 22.8181 35.1319C22.607 34.6508 22.52 34.1245 22.5652 33.6011C22.6104 33.0777 22.7863 32.574 23.0767 32.1362L23.399 32.4521Z" fill="black"/>
<path d="M10.5663 27.686C9.47447 28.11 8.83633 28.3496 8.83633 28.3496C8.60948 28.9453 8.12611 30.3827 8.39111 31.9813C8.65612 33.5798 9.47659 36.9677 9.30274 37.6334C9.1289 38.2991 7.93318 40.3767 7.60669 42.3696C7.982 42.7294 8.40589 43.0348 8.86601 43.277C8.86601 43.277 9.33242 41.3414 9.64831 40.4403C9.64831 42.0961 9.61863 43.436 9.61863 43.436C9.61863 43.436 11.1599 44.4536 16.2756 43.966C19.0148 43.7052 19.4897 42.624 19.4897 42.624C19.4897 42.624 18.9448 38.1719 18.9448 37.1309V34.3367C19.2229 34.0311 19.4317 33.6691 19.5569 33.2754C19.682 32.8816 19.7206 32.4655 19.6699 32.0555C19.5363 30.5714 17.6452 28.375 17.1385 27.8853C16.7399 27.7242 14.9358 27.1221 14.9358 27.1221L10.5663 27.686Z" fill="#37474F"/>
<path d="M11.6709 27.5905C11.8257 28.3707 12.1373 28.5594 13.0214 29.5304C13.9054 30.5014 16.6658 33.143 16.9244 34.2963C17.0919 33.3126 17.3166 31.9939 17.0559 30.8427C16.7951 29.6915 16.1676 28.1651 15.1754 27.387L11.7578 27.2407L11.6709 27.5905Z" fill="#A0A0A0"/>
<path d="M17.694 21.6905C18.5208 18.6461 15.7138 17.0879 12.9217 17.5797C12.0016 17.7409 10.8143 18.2666 10.6871 19.579C9.47234 19.9585 8.88721 21.5867 9.63771 23.3209C10.1826 24.5929 11.2702 25.2099 11.7578 25.9837L17.694 21.6905Z" fill="#E0E0E0"/>
<path d="M10.6321 22.1254C11.4123 21.7862 11.8045 22.6024 11.8045 22.6024C12.3133 22.9183 12.6059 21.9007 12.7162 21.5933C12.9112 21.059 13.0956 20.2958 13.6893 20.0732C14.1302 19.9078 14.6285 20.0732 15.0313 20.3149C15.1516 20.3866 15.2853 20.4331 15.4242 20.4513C15.5631 20.4695 15.7043 20.4592 15.839 20.4209C16.0807 20.3552 16.157 19.9778 16.3775 19.8591C17.0135 19.5177 17.4375 20.5756 17.5923 21.0633C17.7531 21.6771 17.8175 22.3122 17.7831 22.9459C17.7365 25.2143 16.9351 26.2786 16.5471 26.4864C16.1591 26.6942 15.6864 26.7493 14.9274 26.6984V27.3683C15.2565 28.1037 15.4414 28.8954 15.4722 29.7004C13.8016 29.1492 12.7925 28.3944 11.7473 27.3959V24.3536C11.6052 24.6504 10.9311 24.7925 10.5155 24.2582C9.98975 23.5586 9.88162 22.4519 10.6321 22.1254Z" fill="#E2D3CF"/>
<path d="M14.9273 26.6874C14.1916 26.5729 12.8496 26.2146 12.6376 25.604C12.6376 25.604 12.6037 26.0959 13.1718 26.5284C13.6467 26.8888 14.9442 27.1156 14.9442 27.1156L14.9273 26.6874Z" fill="#B9A199"/>
<path d="M17.164 21.2602L16.4707 21.6334C16.4439 21.5895 16.4265 21.5407 16.4194 21.4898C16.4123 21.439 16.4157 21.3872 16.4294 21.3377C16.4431 21.2882 16.4668 21.2421 16.4991 21.2021C16.5314 21.1622 16.5715 21.1293 16.617 21.1055C16.7105 21.0559 16.8196 21.0443 16.9215 21.0732C17.0234 21.102 17.1102 21.169 17.164 21.2602Z" fill="#455A64"/>
<path d="M14.1577 21.4827L14.9125 21.7117C14.9299 21.6633 14.9372 21.6119 14.9341 21.5606C14.9309 21.5093 14.9173 21.4592 14.8941 21.4133C14.8708 21.3675 14.8385 21.3268 14.799 21.2939C14.7595 21.261 14.7137 21.2365 14.6644 21.2219C14.5627 21.1947 14.4544 21.2063 14.3607 21.2545C14.2671 21.3027 14.1947 21.3841 14.1577 21.4827Z" fill="#455A64"/>
<path d="M17.1786 22.5492C17.183 22.5925 17.1786 22.6362 17.1657 22.6777C17.1528 22.7193 17.1317 22.7579 17.1036 22.7911C17.0755 22.8243 17.041 22.8516 17.0022 22.8712C16.9633 22.8908 16.921 22.9024 16.8775 22.9053C16.7911 22.91 16.7062 22.8803 16.6415 22.8227C16.5768 22.7652 16.5374 22.6844 16.532 22.5979C16.5276 22.5553 16.5317 22.5122 16.5441 22.4712C16.5564 22.4301 16.5768 22.392 16.604 22.3588C16.6312 22.3257 16.6647 22.2983 16.7026 22.2782C16.7404 22.2581 16.7819 22.2457 16.8245 22.2418C16.8681 22.2383 16.9118 22.2435 16.9533 22.2572C16.9948 22.2708 17.0331 22.2926 17.066 22.3212C17.099 22.3498 17.1259 22.3847 17.1453 22.4239C17.1646 22.463 17.1759 22.5056 17.1786 22.5492Z" fill="#263238"/>
<path d="M14.7577 22.7296C14.7621 22.7722 14.758 22.8153 14.7456 22.8563C14.7333 22.8974 14.7129 22.9355 14.6857 22.9687C14.6585 23.0018 14.625 23.0292 14.5872 23.0493C14.5493 23.0694 14.5078 23.0818 14.4652 23.0857C14.3992 23.0936 14.3324 23.0815 14.2734 23.0511C14.2143 23.0207 14.1658 22.9733 14.1339 22.915C14.102 22.8567 14.0883 22.7903 14.0945 22.7241C14.1007 22.658 14.1265 22.5953 14.1687 22.5439C14.2108 22.4926 14.2674 22.4551 14.331 22.4362C14.3947 22.4172 14.4626 22.4178 14.5259 22.4378C14.5893 22.4577 14.6452 22.4962 14.6865 22.5482C14.7278 22.6002 14.7526 22.6633 14.7577 22.7296Z" fill="#263238"/>
<path d="M14.0178 22.5704C14.0069 22.5537 13.9903 22.5416 13.9711 22.5364C13.9372 22.5216 13.9033 22.511 13.8672 22.4983L13.7337 22.4495L13.6171 22.4135L13.5429 22.3965C13.5113 22.3913 13.479 22.3913 13.4475 22.3965C13.422 22.3965 13.4178 22.4347 13.4241 22.4559C13.4278 22.4693 13.4347 22.4816 13.4444 22.4916C13.454 22.5016 13.466 22.509 13.4793 22.5131L13.5344 22.5301H13.5725H13.5895H13.6255L13.7464 22.5704C13.7978 22.5991 13.8526 22.6212 13.9096 22.6361C13.9371 22.6383 13.9647 22.6339 13.9902 22.6234C14.0005 22.6195 14.0091 22.612 14.0142 22.6022C14.0193 22.5924 14.0205 22.581 14.0178 22.5704Z" fill="#B9A199"/>
<path d="M13.9944 22.8182C13.9808 22.7995 13.9633 22.784 13.9432 22.7727C13.9231 22.7613 13.9008 22.7545 13.8778 22.7525C13.8127 22.7409 13.7466 22.7366 13.6806 22.7398C13.6043 22.7398 13.528 22.7398 13.4538 22.7504C13.3796 22.761 13.4241 22.867 13.4771 22.8712C13.5716 22.8786 13.6666 22.8786 13.7612 22.8712C13.7986 22.8691 13.8361 22.8691 13.8735 22.8712H13.9244H13.9583C13.9795 22.8712 13.9774 22.8712 13.9923 22.8521C13.9967 22.8477 13.9994 22.8418 13.9998 22.8356C14.0002 22.8293 13.9983 22.8231 13.9944 22.8182Z" fill="#B9A199"/>
<path d="M13.9839 22.9796C13.9648 22.9605 13.9352 22.969 13.914 22.9796L13.8631 22.9923L13.7634 23.0241L13.668 23.0517H13.6278L13.5769 23.0687C13.5689 23.072 13.562 23.0775 13.5571 23.0847C13.5522 23.0918 13.5495 23.1003 13.5493 23.1089V23.1195C13.5495 23.1304 13.5525 23.141 13.5581 23.1503C13.5637 23.1596 13.5716 23.1673 13.5811 23.1725C13.5957 23.1766 13.6111 23.1766 13.6256 23.1725H13.6405C13.6553 23.1736 13.6702 23.1736 13.685 23.1725L13.7359 23.1598C13.7697 23.1511 13.803 23.1405 13.8355 23.128C13.8797 23.1162 13.9208 23.0953 13.9564 23.0665C13.9696 23.0568 13.9799 23.0436 13.986 23.0284C13.9924 23.0157 13.9966 22.9923 13.9839 22.9796Z" fill="#B9A199"/>
<path d="M18.4212 21.519H18.2707C17.7543 21.4852 17.2359 21.5397 16.7379 21.6801C16.246 21.8667 16.0679 22.049 15.7966 22.0702C15.5252 22.0914 15.3323 21.9345 14.815 21.82C14.2706 21.7544 13.7192 21.7781 13.1825 21.89L13.0172 21.9197C12.9592 21.9424 12.9098 21.9826 12.8756 22.0346C12.8414 22.0866 12.8242 22.1479 12.8263 22.2101C12.8414 22.3261 12.8926 22.4344 12.9726 22.5197C12.9967 22.5579 13.0132 22.6003 13.0214 22.6447C13.0545 22.94 13.1112 23.2321 13.191 23.5182C13.2379 23.6308 13.3055 23.7336 13.3903 23.8214C13.422 23.853 13.4568 23.8814 13.4942 23.9062C13.5131 23.9201 13.533 23.9329 13.5535 23.9443C13.6108 23.976 13.6712 24.0016 13.7337 24.0207H13.7655L13.8122 24.0313H13.8631C13.9164 24.0396 13.9702 24.0446 14.0242 24.0461H14.0941H14.1811C14.4221 24.0451 14.6578 23.9748 14.86 23.8436C15.0622 23.7125 15.2225 23.5259 15.3217 23.3062C15.4998 22.9585 15.4722 22.4857 15.7817 22.4582H15.839C16.0658 22.4963 16.0234 22.9352 16.157 23.2384C16.2078 23.3588 16.2796 23.4694 16.369 23.5648C16.3844 23.5827 16.4014 23.599 16.4199 23.6136L16.4453 23.6369L16.475 23.6581L16.5004 23.6772L16.528 23.6942L16.5513 23.709H16.5661C16.6491 23.7528 16.7386 23.7829 16.8312 23.7981H16.8545C16.9626 23.8137 17.0721 23.8173 17.181 23.8087C17.3918 23.8019 17.596 23.7334 17.7682 23.6117C17.9404 23.49 18.0731 23.3203 18.1498 23.1239C18.2421 22.829 18.313 22.5279 18.3618 22.2228C18.3729 22.1788 18.3931 22.1377 18.4212 22.102C18.4994 22.0131 18.5522 21.9047 18.5738 21.7882C18.5929 21.6462 18.506 21.5232 18.4212 21.519ZM15.1584 23.003C15.1149 23.1808 15.0299 23.3457 14.9104 23.4843C14.8147 23.5844 14.7 23.6644 14.5729 23.7194C14.4458 23.7744 14.3089 23.8033 14.1705 23.8044C14.0415 23.8233 13.9099 23.8071 13.7894 23.7575C13.6689 23.7078 13.564 23.6267 13.4857 23.5224L13.4645 23.4906C13.4566 23.481 13.4502 23.4703 13.4454 23.4588L13.4284 23.4292L13.4157 23.4016V23.3804V23.3592L13.403 23.3274C13.3903 23.2935 13.3797 23.2617 13.3712 23.232C13.3712 23.2108 13.3712 23.1917 13.3564 23.1726C13.3484 23.1419 13.342 23.1108 13.3373 23.0794C13.3373 23.0794 13.3373 23.0794 13.3373 23.0624V23.0454C13.2928 22.8143 13.2461 22.3564 13.3648 22.244C13.4836 22.1317 13.7889 22.0024 14.2913 22.0151H14.3443C14.4204 22.0175 14.4962 22.0253 14.5712 22.0384L14.6602 22.0532C14.7365 22.0702 14.8107 22.0893 14.8722 22.1105L14.9401 22.1359L15.0121 22.1656H15.027L15.0524 22.1804C15.109 22.2055 15.159 22.2433 15.1987 22.2907C15.2644 22.4349 15.2241 22.7423 15.1584 23.0073V23.003ZM18.0778 22.6914C18.0545 22.851 17.9982 23.0039 17.9124 23.1405C17.8266 23.277 17.7132 23.3941 17.5795 23.4843C17.4639 23.5478 17.3359 23.5854 17.2043 23.5945C17.0659 23.6217 16.9226 23.6078 16.7919 23.5547C16.6612 23.5016 16.5489 23.4116 16.4686 23.2956C16.4629 23.2884 16.4579 23.2806 16.4538 23.2723L16.4411 23.249V23.2362C16.4345 23.2247 16.4289 23.2126 16.4241 23.2002L16.405 23.1578V23.1387C16.405 23.1387 16.405 23.1387 16.405 23.126V23.109C16.4059 23.1048 16.4059 23.1005 16.405 23.0963C16.3861 23.0404 16.3719 22.9829 16.3626 22.9246C16.3011 22.6888 16.3152 22.4396 16.4029 22.2122C16.5025 22.0617 16.8757 21.8773 17.2318 21.8073C17.3145 21.7904 17.3908 21.7798 17.4629 21.7713H17.7279C17.7663 21.7732 17.8046 21.7774 17.8424 21.784H17.8679H17.8848H17.9124H17.9463C17.9644 21.7891 17.9821 21.7954 17.9993 21.8031C18.0441 21.8186 18.0852 21.8431 18.1202 21.8752C18.2092 22.0002 18.1329 22.4582 18.0778 22.6956V22.6914Z" fill="#37474F"/>
<path d="M12.9917 21.9536L11.4504 22.2398C11.5671 22.3237 11.6671 22.4287 11.7451 22.5494L13.0002 22.3373L12.9917 21.9536Z" fill="#37474F"/>
<path d="M15.6544 22.5131L15.8664 24.3618L16.954 23.9802L15.7731 22.4707C15.7307 22.475 15.69 22.4895 15.6544 22.5131Z" fill="#B9A199"/>
<path d="M11.4524 23.974C11.4546 24.0314 11.4395 24.0882 11.4091 24.137C11.3787 24.1858 11.3345 24.2244 11.282 24.2478C11.2295 24.2713 11.1713 24.2785 11.1146 24.2686C11.058 24.2587 11.0057 24.2321 10.9643 24.1923C10.9229 24.1524 10.8944 24.1011 10.8823 24.0449C10.8703 23.9887 10.8754 23.9302 10.8969 23.8769C10.9183 23.8236 10.9553 23.7779 11.0029 23.7457C11.0505 23.7135 11.1066 23.6963 11.1641 23.6963C11.2388 23.6962 11.3106 23.7252 11.3643 23.777C11.4181 23.8288 11.4497 23.8994 11.4524 23.974Z" fill="#FAFAFA"/>
<path d="M15.5422 24.6671C15.0758 24.4785 14.5987 24.9194 14.851 25.0912C14.9613 25.1654 15.169 25.1039 15.3302 25.176C15.5422 25.2629 15.6355 25.4452 15.7966 25.4071C16.0149 25.3541 16.0086 24.858 15.5422 24.6671Z" fill="#857979"/>
<path d="M15.5696 25.3263C15.5696 25.2414 15.55 25.1575 15.5124 25.0814C15.4748 25.0052 15.4202 24.9387 15.3527 24.887C15.2853 24.8353 15.2068 24.7999 15.1235 24.7834C15.0401 24.767 14.9541 24.7699 14.8721 24.7921C14.7703 24.8938 14.7428 25.0147 14.8509 25.0867C14.959 25.1588 15.1689 25.0995 15.33 25.1716C15.4163 25.2124 15.4969 25.2644 15.5696 25.3263Z" fill="#D5B4B4"/>
<path d="M11.7579 26.8867V27.2344C12.3845 28.1118 13.0597 28.9534 13.7804 29.7552C15.1224 31.2392 16.2673 32.3586 16.6786 33.3826C16.952 34.1262 17.1433 34.8976 17.2489 35.6829C16.9138 34.5164 16.2176 33.4862 15.2602 32.7402C14.2892 31.9622 12.7162 31.3643 12.4236 30.8682C12.131 30.3721 12.7056 29.7552 12.7056 29.7552C12.1624 29.5797 11.6444 29.3345 11.1643 29.0259C10.5791 28.6019 10.5664 27.686 10.5664 27.686L11.7579 26.8867Z" fill="#263238"/>
<path d="M14.938 27.3577C15.7624 28.1983 16.3333 29.2542 16.5853 30.4043C16.8333 31.7208 16.9436 34.7165 16.9436 34.7165C16.9436 34.7165 17.2913 32.6939 17.4821 31.8353C17.6729 30.9767 17.7704 30.3131 16.8333 29.4311C17.0644 29.0305 17.1047 28.8799 16.6213 28.2969C16.359 27.9726 16.0521 27.6871 15.7097 27.4489L14.9422 26.957L14.938 27.3577Z" fill="#263238"/>
<path d="M16.986 38.3478C17.4991 38.2948 17.9909 37.822 18.6503 37.5718C19.3096 37.3216 19.8714 37.3132 20.323 37.1308C20.5096 37.2368 20.4142 37.6291 20.1916 37.7987C19.8481 38.0637 19.3223 38.2227 19.4453 38.369C19.6319 38.581 20.3421 38.4326 20.5562 38.388C21.2198 38.2524 21.9258 37.8538 22.619 38.0001C22.6931 38.0088 22.7607 38.0461 22.8077 38.104C22.8308 38.1503 22.8382 38.2029 22.8286 38.2538C22.819 38.3048 22.7931 38.3511 22.7547 38.3859C22.6757 38.453 22.5897 38.5112 22.4982 38.5598C22.4528 38.5848 22.4136 38.6197 22.3835 38.6619C22.3534 38.7041 22.3332 38.7525 22.3243 38.8036C22.3243 38.8969 22.3731 38.988 22.3604 39.0834C22.348 39.1432 22.3202 39.1987 22.2798 39.2445C22.2095 39.3319 22.1266 39.4083 22.0339 39.4714C21.9546 39.5173 21.8787 39.569 21.807 39.6262C21.6569 39.742 21.5217 39.8759 21.4042 40.0247C21.0417 40.6162 20.2615 40.7943 19.6297 40.9024C18.2793 41.1378 17.6581 40.8537 16.8609 40.8685C16.0638 40.8834 12.6717 40.7795 10.9247 40.6565C9.09937 40.5251 8.87676 40.1859 8.36371 38.4432C7.77574 36.4024 7.319 34.3262 6.99626 32.2271C6.70793 30.0392 6.99626 28.9113 9.16085 28.2266C9.76719 28.64 10.5198 30.1346 10.8845 33.037L11.6668 37.4086C11.6668 37.4086 16.473 38.3986 16.986 38.3478Z" fill="#E2D3CF"/>
<path d="M15.6991 38.1294L16.5471 38.3138C16.4559 38.7456 16.4048 39.185 16.3945 39.6262C16.3779 40.044 16.4193 40.4621 16.5174 40.8685L15.4871 40.8982C15.4871 40.8982 14.9019 39.2954 15.6991 38.1294Z" fill="#A0A0A0"/>
<path d="M9.38968 28.1484C8.41657 28.3392 7.52191 28.6127 7.02157 29.4014C6.52123 30.1901 6.70144 31.0444 6.91345 32.679C7.12545 34.3136 8.24697 38.5686 8.53106 39.476C8.81515 40.3833 8.98263 40.589 9.9515 40.748C10.9204 40.907 15.875 40.96 15.875 40.96C15.7439 40.4769 15.7058 39.9733 15.7626 39.476C15.7786 39.0124 15.8658 38.554 16.0213 38.117L11.7366 37.3389C11.7366 37.3389 11.0582 33.2514 10.8165 31.9688C10.5748 30.6862 10.2928 29.3145 9.38968 28.1484Z" fill="#263238"/>
<path d="M11.7303 37.3514C11.141 37.2857 10.1488 37.6821 9.8562 38.2312C9.97917 37.6546 10.5897 37.0207 11.671 37.0249L11.7303 37.3514Z" fill="black"/>
<path d="M71.7069 87.4187L71.7091 84.9001L59.1286 77.6367L59.1265 80.1554L71.7069 87.4187Z" fill="#37474F"/>
<path d="M71.709 84.9001L84.2895 77.6367V80.1554L71.709 87.4187V84.9001Z" fill="#263238"/>
<path d="M71.7091 84.9002L84.2896 77.6369L71.7091 70.3735L59.1287 77.6369L71.7091 84.9002Z" fill="#455A64"/>
<path d="M71.709 83.8615L60.9243 77.637L59.7095 52.1792L71.709 59.1055V83.8615Z" fill="#37474F"/>
<path d="M71.709 83.8615L82.4916 77.637L83.7086 52.1792L71.709 59.1055V83.8615Z" fill="#263238"/>
<path d="M71.7091 59.1055V57.4731L58.6177 49.915V51.5475L71.7091 59.1055Z" fill="#37474F"/>
<path d="M71.709 57.4731L84.7983 49.915V51.5475L71.709 59.1055V57.4731Z" fill="#263238"/>
<path opacity="0.2" d="M59.8176 54.4689L59.7095 52.1792L71.709 59.1055L83.7086 52.1792L83.5984 54.4689L71.709 61.3336L59.8176 54.4689Z" fill="black"/>
<path d="M71.7091 57.473L84.7984 49.915L71.7091 42.3569L58.6177 49.915L71.7091 57.473Z" fill="#455A64"/>
<path d="M69.5275 62.2982L61.891 57.8906L62.6097 76.0808L69.5253 80.0835L69.5275 62.2982Z" fill="#263238"/>
<path d="M62.9955 59.7689L68.4525 62.9172V78.2198L63.6739 75.4531L62.9955 59.7646V59.7689ZM62.6965 59.2812L63.4153 75.6058L68.7154 78.6799V62.7645L62.6902 59.2855L62.6965 59.2812Z" fill="#455A64"/>
<path d="M71.709 57.473V59.4235C71.709 60.2567 70.3988 61.1662 70.3988 61.1662C70.3988 61.1662 69.0907 58.7451 69.0907 57.9119V55.9614L71.709 57.473Z" fill="#F1B008"/>
<path opacity="0.5" d="M71.709 57.473V59.4235C71.709 60.2567 70.3988 61.1662 70.3988 61.1662C70.3988 61.1662 69.0907 58.7451 69.0907 57.9119V55.9614L71.709 57.473Z" fill="white"/>
<path d="M69.0909 55.9613V57.9118C69.0909 58.745 67.7807 59.6545 67.7807 59.6545C67.7807 59.6545 66.4727 57.2334 66.4727 56.4002V54.4497L69.0909 55.9613Z" fill="#F1B008"/>
<path d="M66.4725 54.4496V56.4001C66.4725 57.2332 65.1623 58.1428 65.1623 58.1428C65.1623 58.1428 63.8542 55.7216 63.8542 54.8885V52.938L66.4725 54.4496Z" fill="#F1B008"/>
<path opacity="0.5" d="M66.4725 54.4496V56.4001C66.4725 57.2332 65.1623 58.1428 65.1623 58.1428C65.1623 58.1428 63.8542 55.7216 63.8542 54.8885V52.938L66.4725 54.4496Z" fill="white"/>
<path d="M63.8544 52.9384V54.8888C63.8544 55.722 62.5463 56.6315 62.5463 56.6315C62.5463 56.6315 61.2361 54.2104 61.2361 53.3772V51.4268L63.8544 52.9384Z" fill="#F1B008"/>
<path d="M61.236 51.4266V53.3771C61.236 54.2103 59.9279 55.1198 59.9279 55.1198C59.9279 55.1198 58.6177 52.6987 58.6177 51.8655V49.915L61.236 51.4266Z" fill="#F1B008"/>
<path opacity="0.5" d="M61.236 51.4266V53.3771C61.236 54.2103 59.9279 55.1198 59.9279 55.1198C59.9279 55.1198 58.6177 52.6987 58.6177 51.8655V49.915L61.236 51.4266Z" fill="white"/>
<path d="M61.2869 49.2554C61.2869 48.9607 61.4819 48.666 61.872 48.4413C62.3097 48.2186 62.7939 48.1025 63.285 48.1025C63.7761 48.1025 64.2603 48.2186 64.6981 48.4413C65.0881 48.666 65.2832 48.9607 65.2832 49.2554V49.584C65.2832 49.8787 65.0881 50.1734 64.6981 50.3981C64.2603 50.6208 63.7761 50.7368 63.285 50.7368C62.7939 50.7368 62.3097 50.6208 61.872 50.3981C61.4819 50.1734 61.2869 49.8787 61.2869 49.584V49.2554Z" fill="#F1B008"/>
<path opacity="0.2" d="M61.2869 49.2554C61.2869 48.9607 61.4819 48.666 61.872 48.4413C62.3097 48.2186 62.7939 48.1025 63.285 48.1025C63.7761 48.1025 64.2603 48.2186 64.6981 48.4413C65.0881 48.666 65.2832 48.9607 65.2832 49.2554V49.584C65.2832 49.8787 65.0881 50.1734 64.6981 50.3981C64.2603 50.6208 63.7761 50.7368 63.285 50.7368C62.7939 50.7368 62.3097 50.6208 61.872 50.3981C61.4819 50.1734 61.2869 49.8787 61.2869 49.584V49.2554Z" fill="black"/>
<path d="M64.6981 50.0716C64.2603 50.2943 63.7761 50.4104 63.285 50.4104C62.7939 50.4104 62.3097 50.2943 61.872 50.0716C61.4819 49.8469 61.2869 49.5522 61.2869 49.2554C61.2869 48.9586 61.4819 48.666 61.872 48.4413C62.3097 48.2186 62.7939 48.1025 63.285 48.1025C63.7761 48.1025 64.2603 48.2186 64.6981 48.4413C65.0881 48.666 65.2832 48.9607 65.2832 49.2554C65.2832 49.5501 65.0881 49.8469 64.6981 50.0716Z" fill="#F1B008"/>
<path d="M66.4577 38.9711C66.577 38.8012 66.7289 38.6568 66.9047 38.5463C67.0805 38.4359 67.2766 38.3616 67.4814 38.3279C67.6863 38.2941 67.8958 38.3016 68.0977 38.3499C68.2996 38.3982 68.4899 38.4862 68.6573 38.609C68.8248 38.7317 68.9661 38.8866 69.0729 39.0646C69.1797 39.2426 69.2499 39.4402 69.2794 39.6457C69.3089 39.8512 69.2971 40.0605 69.2447 40.2614C69.1923 40.4623 69.1004 40.6507 68.9742 40.8156L67.9545 42.2064C67.7064 42.5306 67.3411 42.7447 66.937 42.8028C66.5328 42.8608 66.122 42.7581 65.7927 42.5168C65.4634 42.2754 65.2418 41.9146 65.1755 41.5118C65.1092 41.1089 65.2034 40.6961 65.4379 40.3619L66.4577 38.9711Z" fill="#37474F"/>
<path d="M65.7752 42.5411C65.5246 42.3579 65.3344 42.1041 65.229 41.8121C65.1236 41.5201 65.1079 41.2033 65.1837 40.9023C65.4445 41.0507 66.7632 41.8118 66.9603 41.9157C67.1575 42.0196 67.7045 41.5044 68.2811 40.6712C68.8578 39.838 69.2097 39.4479 68.8832 38.8564C69.1198 39.1235 69.2578 39.4635 69.2744 39.8198C69.291 40.1762 69.1851 40.5275 68.9744 40.8154L67.9546 42.2062C67.8338 42.3716 67.6815 42.5115 67.5064 42.6179C67.3313 42.7243 67.137 42.7951 66.9345 42.8263C66.732 42.8574 66.5254 42.8482 66.3264 42.7993C66.1275 42.7504 65.9402 42.6626 65.7752 42.5411Z" fill="#263238"/>
<path d="M66.4217 41.9243L65.137 43.6797L65.7984 45.0154L67.0853 43.26L66.4217 41.9243Z" fill="#F1B008"/>
<path opacity="0.2" d="M66.4217 41.9243L65.137 43.6797L65.7984 45.0154L67.0853 43.26L66.4217 41.9243Z" fill="black"/>
<path d="M65.137 43.6798L63.5024 42.7364L64.7893 40.981L66.4218 41.9244L65.137 43.6798Z" fill="#F1B008"/>
<path d="M65.7985 45.0154L64.1639 44.0699L63.5024 42.7363L65.137 43.6798L65.7985 45.0154Z" fill="#F1B008"/>
<path opacity="0.35" d="M65.7985 45.0154L64.1639 44.0699L63.5024 42.7363L65.137 43.6798L65.7985 45.0154Z" fill="black"/>
<path d="M63.053 49.2558C63.053 49.4042 63.5173 49.4042 63.5173 49.2558C63.5173 47.511 63.5173 45.5329 64.749 44.0468C64.8487 43.9238 64.4925 43.6228 64.3907 43.75C63.053 45.3655 63.053 47.5237 63.053 49.2558Z" fill="#263238"/>
<path d="M72.608 55.3274L73.5048 54.8079L67.2146 51.1763L66.3157 51.6957L72.608 55.3274Z" fill="#E0E0E0"/>
<path d="M72.608 55.3276L66.3157 51.696L66.621 49.7964L72.9112 53.4281L72.608 55.3276Z" fill="#FAFAFA"/>
<path d="M72.3174 54.0726V54.1171C72.3161 54.1475 72.3065 54.177 72.2897 54.2023C72.273 54.2277 72.2496 54.248 72.2221 54.261C72.1947 54.2741 72.1642 54.2795 72.1339 54.2765C72.1036 54.2736 72.0747 54.2625 72.0503 54.2443L68.0815 51.9547C68.0175 51.9138 67.9663 51.8558 67.9336 51.7872C67.901 51.7185 67.8884 51.6422 67.8971 51.5667V51.52C67.8984 51.4897 67.908 51.4602 67.9248 51.4349C67.9416 51.4095 67.965 51.3892 67.9924 51.3761C68.0199 51.3631 68.0504 51.3577 68.0806 51.3607C68.1109 51.3636 68.1398 51.3747 68.1642 51.3929L72.1351 53.6846C72.1972 53.7273 72.2469 53.7857 72.2789 53.8539C72.311 53.9221 72.3243 53.9976 72.3174 54.0726Z" fill="#E0E0E0"/>
<path d="M67.7147 51.4117V51.4562C67.7134 51.4866 67.7038 51.516 67.687 51.5414C67.6702 51.5667 67.6469 51.5871 67.6194 51.6001C67.592 51.6132 67.5615 51.6186 67.5312 51.6156C67.5009 51.6127 67.472 51.6015 67.4476 51.5834L67.0109 51.3311C66.9468 51.2903 66.8956 51.2322 66.863 51.1636C66.8303 51.095 66.8177 51.0186 66.8264 50.9432V50.8965C66.8277 50.8661 66.8373 50.8367 66.8541 50.8113C66.8709 50.786 66.8943 50.7657 66.9217 50.7526C66.9492 50.7395 66.9797 50.7342 67.01 50.7371C67.0402 50.7401 67.0691 50.7512 67.0935 50.7693L67.5324 51.0237C67.5961 51.0648 67.6469 51.123 67.6791 51.1916C67.7113 51.2602 67.7237 51.3364 67.7147 51.4117Z" fill="#E0E0E0"/>
<path d="M28.6484 87.4187V84.9001L41.2289 77.6367V80.1554L28.6484 87.4187Z" fill="#37474F"/>
<path d="M28.6483 84.9001L16.0679 77.6367V80.1554L28.6483 87.4187V84.9001Z" fill="#263238"/>
<path d="M28.6485 84.9002L16.068 77.6369L28.6485 70.3735L41.2289 77.6369L28.6485 84.9002Z" fill="#455A64"/>
<path d="M28.6484 83.8615L39.4332 77.637L40.648 52.1792L28.6484 59.1055V83.8615Z" fill="#37474F"/>
<path d="M28.6485 83.8615L17.8658 77.637L16.6489 52.1792L28.6485 59.1055V83.8615Z" fill="#263238"/>
<path d="M28.6484 59.1055V57.4731L41.7398 49.915V51.5475L28.6484 59.1055Z" fill="#37474F"/>
<path d="M28.6484 57.4731L15.5591 49.915V51.5475L28.6484 59.1055V57.4731Z" fill="#263238"/>
<path opacity="0.2" d="M40.54 54.4689L40.6481 52.1792L28.6485 59.1055L16.6489 52.1792L16.7592 54.4689L28.6485 61.3336L40.54 54.4689Z" fill="black"/>
<path d="M28.6484 57.473L15.5591 49.915L28.6484 42.3569L41.7398 49.915L28.6484 57.473Z" fill="#455A64"/>
<path d="M30.8301 62.2982L38.4666 57.8906L37.7479 76.0808L30.8301 80.0835V62.2982Z" fill="#263238"/>
<path d="M37.3599 59.7692L36.6836 75.4577L31.905 78.2265V62.9175L37.3599 59.7671V59.7692ZM37.661 59.2837L31.6357 62.7627V78.6865L36.9359 75.6124L37.6546 59.2879L37.661 59.2837Z" fill="#455A64"/>
<path d="M28.6484 57.473V59.4235C28.6484 60.2567 29.2336 60.5959 29.9586 60.1782C30.3394 59.9298 30.6562 59.5951 30.8835 59.2014C31.1107 58.8076 31.242 58.3658 31.2667 57.9119V55.9614L28.6484 57.473Z" fill="#F1B008"/>
<path d="M31.2668 55.9613V57.9118C31.2668 58.745 31.852 59.0842 32.5749 58.6665C32.9559 58.4182 33.2731 58.0836 33.5007 57.6898C33.7283 57.2961 33.86 56.8543 33.8851 56.4002V54.4497L31.2668 55.9613Z" fill="#F1B008"/>
<path opacity="0.25" d="M31.2668 55.9613V57.9118C31.2668 58.745 31.852 59.0842 32.5749 58.6665C32.9559 58.4182 33.2731 58.0836 33.5007 57.6898C33.7283 57.2961 33.86 56.8543 33.8851 56.4002V54.4497L31.2668 55.9613Z" fill="black"/>
<path d="M33.885 54.4496V56.4001C33.885 57.2332 34.4701 57.5725 35.1931 57.1548C35.5741 56.9065 35.8913 56.5719 36.1189 56.1781C36.3465 55.7844 36.4782 55.3426 36.5033 54.8885V52.938L33.885 54.4496Z" fill="#F1B008"/>
<path d="M36.5034 52.9384V54.8888C36.5034 55.722 37.0886 56.0612 37.8115 55.6436C38.1925 55.3952 38.5097 55.0606 38.7373 54.6669C38.9649 54.2731 39.0966 53.8313 39.1217 53.3772V51.4268L36.5034 52.9384Z" fill="#F1B008"/>
<path opacity="0.25" d="M36.5034 52.9384V54.8888C36.5034 55.722 37.0886 56.0612 37.8115 55.6436C38.1925 55.3952 38.5097 55.0606 38.7373 54.6669C38.9649 54.2731 39.0966 53.8313 39.1217 53.3772V51.4268L36.5034 52.9384Z" fill="black"/>
<path d="M39.1216 51.4266V53.3771C39.1216 54.2103 39.7067 54.5495 40.4297 54.1319C40.8107 53.8835 41.1278 53.5489 41.3555 53.1552C41.5831 52.7614 41.7148 52.3196 41.7399 51.8655V49.915L39.1216 51.4266Z" fill="#F1B008"/>
<path d="M39.0708 49.2554C39.0708 48.9607 38.8757 48.666 38.4856 48.4413C38.0479 48.2186 37.5637 48.1025 37.0726 48.1025C36.5815 48.1025 36.0973 48.2186 35.6596 48.4413C35.2695 48.666 35.0745 48.9607 35.0745 49.2554V49.584C35.0745 49.8787 35.2695 50.1734 35.6596 50.3981C36.0973 50.6208 36.5815 50.7368 37.0726 50.7368C37.5637 50.7368 38.0479 50.6208 38.4856 50.3981C38.8757 50.1734 39.0708 49.8787 39.0708 49.584V49.2554Z" fill="#F1B008"/>
<path opacity="0.2" d="M39.0708 49.2554C39.0708 48.9607 38.8757 48.666 38.4856 48.4413C38.0479 48.2186 37.5637 48.1025 37.0726 48.1025C36.5815 48.1025 36.0973 48.2186 35.6596 48.4413C35.2695 48.666 35.0745 48.9607 35.0745 49.2554V49.584C35.0745 49.8787 35.2695 50.1734 35.6596 50.3981C36.0973 50.6208 36.5815 50.7368 37.0726 50.7368C37.5637 50.7368 38.0479 50.6208 38.4856 50.3981C38.8757 50.1734 39.0708 49.8787 39.0708 49.584V49.2554Z" fill="black"/>
<path d="M35.6596 50.0716C36.0973 50.2943 36.5815 50.4104 37.0726 50.4104C37.5637 50.4104 38.0479 50.2943 38.4856 50.0716C38.8757 49.8469 39.0708 49.5522 39.0708 49.2554C39.0708 48.9586 38.8757 48.666 38.4856 48.4413C38.0479 48.2186 37.5637 48.1025 37.0726 48.1025C36.5815 48.1025 36.0973 48.2186 35.6596 48.4413C35.2695 48.666 35.0745 48.9607 35.0745 49.2554C35.0745 49.5501 35.2695 49.8469 35.6596 50.0716Z" fill="#F1B008"/>
<path d="M33.8998 38.9711C33.7806 38.8012 33.6286 38.6568 33.4528 38.5463C33.277 38.4359 33.081 38.3616 32.8761 38.3279C32.6713 38.2941 32.4617 38.3016 32.2598 38.3499C32.0579 38.3982 31.8676 38.4862 31.7002 38.609C31.5328 38.7317 31.3915 38.8866 31.2847 39.0646C31.1778 39.2426 31.1076 39.4402 31.0781 39.6457C31.0486 39.8512 31.0604 40.0605 31.1128 40.2614C31.1652 40.4623 31.2572 40.6507 31.3833 40.8156L32.4031 42.2064C32.6511 42.5306 33.0164 42.7447 33.4206 42.8028C33.8247 42.8608 34.2355 42.7581 34.5648 42.5168C34.8941 42.2754 35.1157 41.9146 35.182 41.5118C35.2483 41.1089 35.1541 40.6961 34.9196 40.3619L33.8998 38.9711Z" fill="#37474F"/>
<path d="M34.5825 42.5411C34.8331 42.3579 35.0233 42.1041 35.1287 41.8121C35.2341 41.5201 35.2499 41.2033 35.174 40.9023C34.9133 41.0507 33.5946 41.8118 33.3974 41.9157C33.2003 42.0196 32.6533 41.5044 32.0745 40.6691C31.4957 39.8338 31.148 39.4479 31.4745 38.8564C31.2376 39.1233 31.0993 39.4633 31.0827 39.8198C31.0662 40.1763 31.1723 40.5277 31.3834 40.8154L32.4031 42.2062C32.524 42.3716 32.6763 42.5115 32.8513 42.6179C33.0264 42.7243 33.2208 42.7951 33.4233 42.8263C33.6257 42.8574 33.8324 42.8482 34.0313 42.7993C34.2303 42.7504 34.4176 42.6626 34.5825 42.5411Z" fill="#263238"/>
<path d="M33.9358 41.9243L35.2206 43.6797L34.5591 45.0133L33.2722 43.26L33.9358 41.9243Z" fill="#F1B008"/>
<path opacity="0.2" d="M33.9358 41.9243L35.2206 43.6797L34.5591 45.0133L33.2722 43.26L33.9358 41.9243Z" fill="black"/>
<path d="M35.2206 43.6798L36.8551 42.7364L35.5682 40.981L33.9358 41.9244L35.2206 43.6798Z" fill="#F1B008"/>
<path d="M34.5592 45.0133L36.1917 44.0699L36.8552 42.7363L35.2207 43.6798L34.5592 45.0133Z" fill="#F1B008"/>
<path opacity="0.35" d="M34.5592 45.0133L36.1917 44.0699L36.8552 42.7363L35.2207 43.6798L34.5592 45.0133Z" fill="black"/>
<path d="M37.3048 49.2558C37.3048 49.4021 36.8405 49.4021 36.8405 49.2558C36.8405 47.511 36.8405 45.5329 35.6087 44.0468C35.5091 43.9238 35.8652 43.6228 35.967 43.75C37.3048 45.3655 37.3048 47.5237 37.3048 49.2558Z" fill="#263238"/>
<path d="M27.7495 55.3274L26.8506 54.8079L33.1429 51.1763L34.0397 51.6957L27.7495 55.3274Z" fill="#E0E0E0"/>
<path d="M27.7495 55.3276L34.0397 51.696L33.7365 49.7964L27.4463 53.4281L27.7495 55.3276Z" fill="#FAFAFA"/>
<path d="M29.1106 53.4535V53.498C29.112 53.5284 29.1215 53.5578 29.1383 53.5832C29.1551 53.6085 29.1785 53.6288 29.2059 53.6419C29.2334 53.655 29.2639 53.6603 29.2942 53.6574C29.3244 53.6544 29.3533 53.6433 29.3778 53.6252L33.3465 51.3355C33.4106 51.2947 33.4618 51.2366 33.4944 51.168C33.527 51.0994 33.5397 51.023 33.531 50.9476V50.9009C33.5296 50.8705 33.5201 50.8411 33.5033 50.8157C33.4865 50.7904 33.4631 50.7701 33.4356 50.757C33.4082 50.7439 33.3777 50.7386 33.3474 50.7415C33.3172 50.7445 33.2883 50.7556 33.2638 50.7737L29.293 53.0655C29.2308 53.1081 29.1812 53.1666 29.1491 53.2347C29.1171 53.3029 29.1038 53.3784 29.1106 53.4535Z" fill="#E0E0E0"/>
<path d="M28.04 54.0723V54.1168C28.0413 54.1472 28.0509 54.1767 28.0677 54.202C28.0845 54.2274 28.1079 54.2477 28.1353 54.2607C28.1628 54.2738 28.1933 54.2792 28.2236 54.2762C28.2538 54.2733 28.2827 54.2622 28.3071 54.244L28.7502 53.9917C28.8143 53.9509 28.8655 53.8928 28.8981 53.8242C28.9308 53.7556 28.9434 53.6792 28.9347 53.6038V53.5571C28.9338 53.5268 28.9246 53.4973 28.9081 53.4718C28.8915 53.4463 28.8683 53.4259 28.8409 53.4128C28.8136 53.3996 28.7831 53.3943 28.7529 53.3973C28.7227 53.4003 28.6939 53.4116 28.6697 53.4299L28.2287 53.6843C28.1639 53.7246 28.1118 53.7825 28.0784 53.8511C28.045 53.9197 28.0317 53.9964 28.04 54.0723Z" fill="#E0E0E0"/>
<path d="M32.1424 10.8376L23.7575 15.6799C23.6896 15.7239 23.6331 15.7833 23.5926 15.8533C23.5521 15.9233 23.5287 16.0019 23.5243 16.0827V23.5029C23.5283 23.5838 23.5516 23.6625 23.5921 23.7326C23.6327 23.8026 23.6894 23.862 23.7575 23.9057L24.5928 24.3722C24.6651 24.4087 24.745 24.4277 24.826 24.4277C24.907 24.4277 24.9869 24.4087 25.0592 24.3722L33.4377 19.5299C33.5056 19.4859 33.5621 19.4265 33.6026 19.3565C33.6432 19.2865 33.6666 19.2079 33.6709 19.1271V11.7069C33.6669 11.626 33.6436 11.5473 33.6031 11.4772C33.5625 11.4072 33.5058 11.3478 33.4377 11.3041L32.6024 10.8376C32.5309 10.8022 32.4522 10.7837 32.3724 10.7837C32.2926 10.7837 32.2138 10.8022 32.1424 10.8376Z" fill="#A0A0A0"/>
<path d="M24.826 24.2322V16.8119C24.8304 16.7312 24.8538 16.6526 24.8943 16.5826C24.9349 16.5125 24.9914 16.4531 25.0593 16.4091L33.4378 11.569C33.5671 11.4948 33.671 11.5542 33.671 11.7047V19.1249C33.6666 19.2057 33.6432 19.2843 33.6027 19.3543C33.5621 19.4243 33.5056 19.4837 33.4378 19.5277L25.0593 24.37C24.9342 24.4399 24.826 24.3806 24.826 24.2322Z" fill="#A0A0A0"/>
<path opacity="0.2" d="M25.0592 24.3657C24.9865 24.4009 24.9068 24.4191 24.826 24.4191C24.7453 24.4191 24.6655 24.4009 24.5928 24.3657L23.7575 23.9078C23.6896 23.8649 23.633 23.8063 23.5924 23.7369C23.5518 23.6676 23.5285 23.5895 23.5243 23.5092V16.089C23.527 16.0046 23.5526 15.9225 23.5985 15.8516L24.896 16.5915C24.8524 16.6601 24.8282 16.7392 24.826 16.8204V24.2407C24.826 24.3679 24.9214 24.4463 25.0592 24.3657Z" fill="black"/>
<path opacity="0.25" d="M33.6687 11.6625C33.6497 11.5438 33.5543 11.5035 33.4377 11.5692L25.0592 16.4114C24.991 16.4547 24.9348 16.5145 24.8959 16.5853L23.5963 15.8517C23.6352 15.7839 23.6907 15.727 23.7574 15.6864L32.1423 10.8378C32.2146 10.8013 32.2945 10.7822 32.3755 10.7822C32.4565 10.7822 32.5364 10.8013 32.6087 10.8378L33.444 11.3042C33.5044 11.3449 33.5556 11.3978 33.5943 11.4595C33.633 11.5212 33.6584 11.5904 33.6687 11.6625Z" fill="white"/>
<path d="M23.5243 17.5586L21.9173 19.3394C21.8967 19.3618 21.8813 19.3883 21.8719 19.4171C21.8625 19.446 21.8594 19.4765 21.8628 19.5067C21.8662 19.5368 21.8761 19.5659 21.8917 19.5919C21.9073 19.6179 21.9283 19.6403 21.9533 19.6575C21.9915 19.6829 23.2508 20.4037 23.2508 20.4037L24.826 18.3091L23.5243 17.5586Z" fill="#A0A0A0"/>
<path opacity="0.25" d="M23.5243 17.5586L21.9173 19.3394C21.8967 19.3618 21.8813 19.3883 21.8719 19.4171C21.8625 19.446 21.8594 19.4765 21.8628 19.5067C21.8662 19.5368 21.8761 19.5659 21.8917 19.5919C21.9073 19.6179 21.9283 19.6403 21.9533 19.6575C21.9915 19.6829 23.2508 20.4037 23.2508 20.4037L24.826 18.3091L23.5243 17.5586Z" fill="white"/>
<path d="M24.8261 18.3091L23.2212 20.0899C23.1938 20.1217 23.1765 20.1608 23.1714 20.2024C23.1663 20.244 23.1736 20.2861 23.1924 20.3236C23.2112 20.361 23.2407 20.392 23.2772 20.4127C23.3136 20.4334 23.3554 20.4428 23.3971 20.4397L24.8261 20.3189C25.0084 20.3189 25.0084 18.3091 24.8261 18.3091Z" fill="#A0A0A0"/>
<path d="M27.9659 20.5158V21.279C27.9595 21.3771 27.9257 21.4714 27.8683 21.5512C27.811 21.631 27.7324 21.6931 27.6416 21.7306L27.4698 21.8281C27.2451 21.9595 27.1476 21.9235 27.1476 21.7497V20.9886C27.1539 20.8907 27.1874 20.7966 27.2443 20.7168C27.3012 20.637 27.3794 20.5747 27.4698 20.537L27.6416 20.4373C27.8684 20.3165 27.9659 20.3504 27.9659 20.5158ZM28.1313 15.8516C28.0401 17.0622 27.9532 18.2727 27.862 19.4854C27.8638 19.5753 27.8388 19.6637 27.79 19.7392C27.7413 19.8147 27.6712 19.874 27.5886 19.9094L27.5292 19.9434C27.3172 20.0706 27.2557 20.0112 27.2557 19.8374V16.3965C27.2615 16.2985 27.2948 16.2042 27.3518 16.1243C27.4088 16.0444 27.4872 15.9822 27.578 15.9449L27.809 15.8114C28.0189 15.6905 28.1313 15.7075 28.1313 15.8516Z" fill="#FAFAFA"/>
<path d="M29.681 19.5341V20.3037C29.675 20.4016 29.6416 20.4959 29.5846 20.5757C29.5276 20.6555 29.4494 20.7178 29.3588 20.7553L29.187 20.8549C28.9602 20.9864 28.8627 20.9503 28.8627 20.7765V20.0069C28.8689 19.9088 28.9026 19.8144 28.96 19.7345C29.0173 19.6547 29.096 19.5926 29.187 19.5553L29.3588 19.4557C29.5835 19.3243 29.681 19.3603 29.681 19.5341ZM29.8485 14.87C29.7573 16.0827 29.6704 17.2911 29.5793 18.5038C29.5806 18.5938 29.5551 18.6822 29.506 18.7578C29.4569 18.8333 29.3865 18.8925 29.3036 18.9278L29.2464 18.9617C29.0238 19.0889 28.9708 19.0296 28.9708 18.8557V15.4064C28.9768 15.3085 29.0102 15.2142 29.0672 15.1344C29.1242 15.0546 29.2024 14.9923 29.293 14.9548L29.5263 14.8212C29.734 14.7004 29.8485 14.7174 29.8485 14.8658V14.87Z" fill="#FAFAFA"/>
<path d="M31.3983 18.5444V19.3055C31.3918 19.4035 31.358 19.4978 31.3007 19.5777C31.2434 19.6575 31.1648 19.7196 31.0739 19.7571L30.9022 19.8567C30.6754 19.986 30.58 19.9521 30.58 19.7783V19.015C30.5857 18.9171 30.6191 18.8227 30.6761 18.7428C30.7331 18.663 30.8114 18.6008 30.9022 18.5635L31.0739 18.4659C31.2944 18.3345 31.3983 18.3705 31.3983 18.5444ZM31.5637 13.8802C31.4725 15.0929 31.3856 16.3014 31.2944 17.514C31.2959 17.6038 31.2707 17.6921 31.2221 17.7676C31.1734 17.843 31.1034 17.9024 31.0209 17.938L30.9616 17.972C30.7496 18.0992 30.6881 18.0377 30.6881 17.8638V14.4145C30.6939 14.3165 30.7272 14.2222 30.7842 14.1423C30.8412 14.0624 30.9196 14.0002 31.0103 13.9629L31.2414 13.8315C31.4513 13.7085 31.5637 13.7318 31.5637 13.876V13.8802Z" fill="#FAFAFA"/>
<path d="M68.8556 10.8377L77.2362 15.68C77.3039 15.7242 77.3602 15.7837 77.4007 15.8537C77.4412 15.9236 77.4647 16.0021 77.4694 16.0828V23.503C77.465 23.584 77.4414 23.6628 77.4004 23.7329C77.3595 23.8029 77.3025 23.8622 77.2341 23.9058L76.4009 24.3722C76.3283 24.4088 76.248 24.4278 76.1667 24.4278C76.0853 24.4278 76.0051 24.4088 75.9324 24.3722L67.5475 19.5237C67.4797 19.4797 67.4232 19.4202 67.3826 19.3502C67.3421 19.2802 67.3187 19.2016 67.3143 19.1208V11.7006C67.3188 11.6196 67.3424 11.5408 67.3833 11.4708C67.4243 11.4007 67.4813 11.3414 67.5497 11.2978L68.3828 10.8314C68.4565 10.7948 68.5378 10.7763 68.62 10.7774C68.7022 10.7785 68.783 10.7992 68.8556 10.8377Z" fill="#A0A0A0"/>
<path d="M76.1656 24.2322V16.8119C76.1612 16.7312 76.1378 16.6526 76.0973 16.5826C76.0568 16.5125 76.0003 16.4531 75.9324 16.4091L67.5475 11.569C67.4182 11.4948 67.3143 11.5542 67.3143 11.7047V19.1249C67.3187 19.2057 67.3421 19.2843 67.3826 19.3543C67.4232 19.4243 67.4797 19.4837 67.5475 19.5277L75.926 24.37C76.0617 24.4399 76.1656 24.3806 76.1656 24.2322Z" fill="#A0A0A0"/>
<path opacity="0.2" d="M75.9325 24.3658C76.0056 24.4008 76.0857 24.4189 76.1668 24.4189C76.2478 24.4189 76.3279 24.4008 76.401 24.3658L77.2342 23.8951C77.3024 23.8523 77.3593 23.7937 77.4003 23.7244C77.4412 23.6551 77.465 23.5769 77.4695 23.4965V16.0763C77.4659 15.9921 77.4403 15.9102 77.3953 15.8389L76.0979 16.5788C76.1399 16.648 76.1632 16.7268 76.1657 16.8077V24.228C76.1657 24.3679 76.0703 24.4463 75.9325 24.3658Z" fill="black"/>
<path opacity="0.25" d="M67.3356 11.6625C67.3525 11.5438 67.4479 11.5035 67.5645 11.5692L75.943 16.4114C76.0114 16.4552 76.0681 16.5148 76.1084 16.5853L77.3953 15.8517C77.3565 15.7845 77.3019 15.7277 77.2363 15.6864L68.8557 10.8378C68.7833 10.8013 68.7035 10.7822 68.6225 10.7822C68.5414 10.7822 68.4616 10.8013 68.3892 10.8378L67.5476 11.3021C67.4886 11.3436 67.4392 11.3972 67.4027 11.4594C67.3661 11.5215 67.3432 11.5908 67.3356 11.6625Z" fill="white"/>
<path d="M77.4695 17.5586L79.0744 19.3394C79.0949 19.3618 79.1104 19.3883 79.1198 19.4171C79.1292 19.446 79.1323 19.4765 79.1288 19.5067C79.1254 19.5368 79.1156 19.5659 79.1 19.5919C79.0844 19.6179 79.0633 19.6403 79.0383 19.6575C79.0002 19.6829 77.7409 20.4037 77.7409 20.4037L76.1656 18.3091L77.4695 17.5586Z" fill="#A0A0A0"/>
<path opacity="0.25" d="M77.4695 17.5586L79.0744 19.3394C79.0949 19.3618 79.1104 19.3883 79.1198 19.4171C79.1292 19.446 79.1323 19.4765 79.1288 19.5067C79.1254 19.5368 79.1156 19.5659 79.1 19.5919C79.0844 19.6179 79.0633 19.6403 79.0383 19.6575C79.0002 19.6829 77.7409 20.4037 77.7409 20.4037L76.1656 18.3091L77.4695 17.5586Z" fill="white"/>
<path d="M76.1657 18.3091L77.7706 20.0899C77.7979 20.1217 77.8152 20.1608 77.8204 20.2024C77.8255 20.244 77.8182 20.2861 77.7993 20.3236C77.7805 20.361 77.751 20.392 77.7146 20.4127C77.6781 20.4334 77.6364 20.4428 77.5946 20.4397L76.1657 20.3189C75.9833 20.3189 75.9833 18.3091 76.1657 18.3091Z" fill="#A0A0A0"/>
<path d="M69.9877 19.0151V19.7762C69.9877 19.95 69.8901 19.9882 69.6633 19.8546L69.4916 19.755C69.401 19.7174 69.3227 19.6552 69.2657 19.5753C69.2088 19.4955 69.1753 19.4013 69.1693 19.3034V18.5423C69.1693 18.3684 69.2668 18.3303 69.4916 18.4638L69.6633 18.5635C69.7543 18.6007 69.833 18.6628 69.8904 18.7427C69.9477 18.8225 69.9814 18.9169 69.9877 19.0151ZM70.153 14.5396C70.0619 15.6463 69.9749 16.7551 69.8838 17.8617C69.8689 18.0271 69.8308 18.0971 69.6103 17.9677L69.5509 17.9338C69.4669 17.9004 69.3954 17.8416 69.3463 17.7656C69.2973 17.6896 69.2732 17.6002 69.2774 17.5098V14.0668C69.2774 13.893 69.3728 13.8548 69.5997 13.9884L69.8308 14.1219C70.0407 14.2428 70.153 14.3891 70.153 14.5396Z" fill="#FAFAFA"/>
<path d="M72.8476 17.2807C72.8476 18.5527 71.9444 18.2919 71.8469 19.0297C71.8151 19.1866 71.7409 19.193 71.5628 19.0891L71.4399 19.0191C71.3617 18.9875 71.2947 18.9333 71.2475 18.8634C71.2003 18.7936 71.175 18.7112 71.1749 18.6269C71.1695 18.255 71.2999 17.894 71.5416 17.6114C71.7664 17.3358 72.0102 17.1535 72.0102 16.88C72.0148 16.7388 71.98 16.5991 71.9096 16.4766C71.8392 16.3541 71.736 16.2537 71.6116 16.1867C71.2999 16.0065 71.0837 16.1379 71.0095 16.0955C70.859 16.0086 70.6703 15.3938 70.6703 15.22C70.6703 14.7323 71.2618 14.8913 71.6816 15.133C72.0468 15.3577 72.3467 15.6743 72.5513 16.0511C72.756 16.428 72.8581 16.852 72.8476 17.2807ZM71.9063 20.1173V20.8784C71.9063 21.0523 71.8109 21.0904 71.584 20.9569L71.4123 20.8572C71.3214 20.8201 71.2429 20.758 71.1858 20.678C71.1288 20.5981 71.0956 20.5037 71.0901 20.4056V19.6445C71.0901 19.4707 71.1855 19.4325 71.4123 19.5661L71.584 19.6657C71.673 19.7044 71.7493 19.7672 71.8044 19.847C71.8594 19.9268 71.8911 20.0205 71.8957 20.1173H71.9063Z" fill="#FAFAFA"/>
<path d="M74.232 21.4637V22.2269C74.232 22.4008 74.1345 22.4389 73.9077 22.3054L73.7359 22.2057C73.6453 22.1682 73.5671 22.106 73.5101 22.0261C73.4531 21.9463 73.4197 21.8521 73.4137 21.7542V20.9931C73.4137 20.8192 73.5112 20.781 73.7359 20.9146L73.9077 21.0143C73.9987 21.0509 74.0774 21.1126 74.1348 21.1921C74.1922 21.2716 74.2259 21.3658 74.232 21.4637ZM74.3974 16.9904C74.3062 18.097 74.2214 19.2058 74.1282 20.3125C74.1133 20.4779 74.0752 20.5457 73.8547 20.4185L73.7953 20.3846C73.7113 20.3512 73.6398 20.2923 73.5907 20.2163C73.5417 20.1403 73.5176 20.0509 73.5218 19.9606V16.5176C73.5218 16.3416 73.6172 16.3056 73.8441 16.437L74.0752 16.5706C74.285 16.6999 74.3974 16.8398 74.3974 16.9904Z" fill="#FAFAFA"/>
</svg>
