<svg width="14" height="14" viewBox="0 0 14 14" fill="none" xmlns="http://www.w3.org/2000/svg">
<path d="M7 14C3.12941 14 0 10.8706 0 7C0 3.12941 3.12941 0 7 0C10.8706 0 14 3.12941 14 7C14 10.8706 10.8706 14 7 14ZM7 0.823529C3.58235 0.823529 0.823529 3.58235 0.823529 7C0.823529 10.4176 3.58235 13.1765 7 13.1765C10.4176 13.1765 13.1765 10.4176 13.1765 7C13.1765 3.58235 10.4176 0.823529 7 0.823529Z" fill="#2176FF"/>
<path d="M4.85904 4.77663C4.98257 4.44721 5.1061 4.20016 5.35316 3.99427C5.55904 3.78839 5.8061 3.62368 6.13551 3.50015C6.46492 3.37663 6.79434 3.33545 7.16492 3.33545C7.45316 3.33545 7.74139 3.37663 7.98845 3.45898C8.23551 3.54133 8.48257 3.66486 8.68845 3.82957C8.89434 3.99427 9.05904 4.20015 9.1414 4.44721C9.26493 4.69427 9.3061 4.98251 9.3061 5.27074C9.3061 5.68251 9.22375 6.01192 9.05904 6.30015C8.89434 6.58839 8.64728 6.83545 8.40022 7.12368L7.86492 7.65898C7.7414 7.78251 7.61787 7.90604 7.57669 8.02957C7.49434 8.1531 7.45316 8.3178 7.45316 8.48251C7.41198 8.64721 7.41198 8.77074 7.41198 9.10015H6.75316C6.75316 8.77074 6.75316 8.64721 6.79434 8.40015C6.83551 8.19427 6.91787 7.98839 7.00022 7.78251C7.08257 7.6178 7.2061 7.4531 7.37081 7.28839C7.53551 7.12368 7.74139 6.95898 7.94728 6.71192C8.15316 6.50604 8.31787 6.30015 8.4414 6.09427C8.56492 5.88839 8.64728 5.60015 8.64728 5.3531C8.64728 5.14721 8.6061 4.94133 8.52375 4.77663C8.4414 4.61192 8.31787 4.44721 8.19434 4.32368C8.07081 4.20015 7.9061 4.1178 7.70022 4.03545C7.49434 3.9531 7.32963 3.91192 7.12375 3.91192C6.83551 3.91192 6.58845 3.9531 6.38257 4.07663C6.17669 4.15898 5.97081 4.32368 5.84728 4.48839C5.72375 4.6531 5.60022 4.85898 5.51787 5.10604C5.43551 5.3531 5.35316 5.47663 5.35316 5.76486H4.69434C4.69434 5.39427 4.73551 5.10604 4.85904 4.77663ZM7.41198 9.88251V10.706H6.58845V9.88251H7.41198Z" fill="#2176FF"/>
</svg>
