<svg width="24" height="14" viewBox="0 0 24 14" fill="none" xmlns="http://www.w3.org/2000/svg">
<path d="M23.5062 5.51907L21.1067 0.923941C20.9636 0.652818 20.7204 0.448272 20.4287 0.353869C20.137 0.259467 19.82 0.282668 19.5452 0.418531L17.1914 1.59541H15.4164L12.1201 0.103967C11.8654 -0.0110631 11.5781 -0.0313739 11.3098 0.0466937L6.41404 1.47394L4.09393 0.314034C3.81913 0.178233 3.50218 0.155043 3.21054 0.249402C2.9189 0.34376 2.6756 0.548215 2.53243 0.819248L0.133005 5.41448C0.0610252 5.5523 0.0172201 5.70309 0.00414616 5.85803C-0.0089278 6.01297 0.00899127 6.16896 0.0568575 6.3169C0.104724 6.46484 0.181578 6.60177 0.282935 6.71968C0.384292 6.8376 0.508122 6.93415 0.647196 7.00369L3.02399 8.19208L8.3263 12.3382C8.45536 12.4395 8.6044 12.5123 8.76361 12.5519L14.4184 13.9656C14.5104 13.9885 14.6048 14 14.6996 14C15.0109 14.0001 15.3095 13.877 15.5302 13.6575L19.1205 10.0673C19.1277 10.0601 19.1347 10.0526 19.1413 10.0448L20.6511 8.27863L22.992 7.10818C23.131 7.03863 23.2548 6.94209 23.3562 6.82418C23.4575 6.70626 23.5343 6.56935 23.5822 6.42143C23.6301 6.2735 23.648 6.11753 23.6349 5.9626C23.6219 5.80767 23.5781 5.6569 23.5062 5.51907ZM18.7823 9.26349L14.781 6.35339C14.7135 6.30433 14.6321 6.27819 14.5486 6.2788C14.4652 6.27942 14.3841 6.30675 14.3174 6.3568L13.0685 7.29347C12.5947 7.64599 12.0199 7.83637 11.4293 7.83637C10.8387 7.83637 10.2639 7.64599 9.79013 7.29347L9.26131 6.89685C9.21657 6.86331 9.17956 6.82055 9.15279 6.77147C9.12602 6.72238 9.1101 6.66812 9.10612 6.61235C9.10214 6.55658 9.1102 6.5006 9.12973 6.44822C9.14927 6.39583 9.17983 6.34825 9.21935 6.3087L13.0377 2.49032C13.1111 2.41738 13.2102 2.37629 13.3137 2.37597H15.331L17.047 2.37607L19.9376 7.91186L18.7823 9.26349ZM0.799599 6.07658C0.783478 6.0273 0.777416 5.97528 0.781774 5.92361C0.786131 5.87193 0.800819 5.82167 0.824967 5.77578L3.2243 1.18065C3.25764 1.1174 3.30765 1.06448 3.36891 1.02761C3.43017 0.990736 3.50034 0.971318 3.57184 0.971457C3.63186 0.971407 3.69106 0.985372 3.74473 1.01224L5.82589 2.05272L3.06487 7.34001L0.996201 6.30558C0.949766 6.28253 0.908429 6.25039 0.874642 6.21107C0.840854 6.17176 0.8154 6.12596 0.799599 6.07658ZM14.9784 13.1056C14.9306 13.1531 14.8714 13.1876 14.8065 13.2056C14.7415 13.2235 14.673 13.2245 14.6076 13.2082L8.95279 11.7944C8.89976 11.7813 8.85012 11.757 8.80712 11.7233L3.7298 7.75322L6.61454 2.22854L11.5281 0.796027C11.6176 0.769922 11.7135 0.776706 11.7984 0.815151L13.5228 1.59541H13.3137C13.1599 1.59501 13.0075 1.62511 12.8654 1.68398C12.7233 1.74284 12.5943 1.82931 12.4859 1.93837L8.6675 5.75675C8.54889 5.87536 8.45715 6.01808 8.39849 6.17523C8.33983 6.33239 8.31563 6.50031 8.32752 6.66763C8.33941 6.83495 8.38711 6.99777 8.4674 7.14505C8.54769 7.29233 8.65868 7.42064 8.79288 7.52129L9.3217 7.91801C9.93091 8.37124 10.67 8.61601 11.4293 8.61601C12.1886 8.61601 12.9277 8.37124 13.5369 7.91801L14.555 7.15424L18.2457 9.83827L14.9784 13.1056ZM22.8396 6.18108C22.8238 6.23047 22.7982 6.27619 22.7644 6.31553C22.7306 6.35486 22.6893 6.38701 22.6429 6.41007L20.5742 7.44441L17.8133 2.15712L19.8943 1.11674C19.9859 1.07143 20.0916 1.06368 20.1888 1.09514C20.286 1.1266 20.3671 1.19477 20.4148 1.28514L22.8143 5.88027C22.8384 5.92618 22.8531 5.97646 22.8575 6.02815C22.8619 6.07984 22.8557 6.13178 22.8396 6.18108Z" fill="#606060"/>
</svg>
