<svg width="12" height="16" viewBox="0 0 12 16" fill="none" xmlns="http://www.w3.org/2000/svg">
<g clip-path="url(#clip0_689_3893)">
<path d="M10.1818 1.45459H6.54546C6.54546 1.85459 6.21818 2.18186 5.81818 2.18186C5.41818 2.18186 5.09091 1.85459 5.09091 1.45459H1.45455C0.654546 1.45459 0 2.10914 0 2.90914V14.5455C0 15.3455 0.654546 16 1.45455 16H10.1818C10.9818 16 11.6364 15.3455 11.6364 14.5455V2.90914C11.6364 2.10914 10.9818 1.45459 10.1818 1.45459Z" fill="#455A64"/>
<path d="M10.1817 14.909H1.45446C1.23627 14.909 1.09082 14.7636 1.09082 14.5454V2.90905C1.09082 2.69086 1.23627 2.54541 1.45446 2.54541H10.1817C10.3999 2.54541 10.5454 2.69086 10.5454 2.90905V14.5454C10.5454 14.7636 10.3999 14.909 10.1817 14.909Z" fill="white"/>
<path d="M6.54541 1.45459C6.54541 1.85459 6.21814 2.18186 5.81814 2.18186C5.41814 2.18186 5.09086 1.85459 5.09086 1.45459H2.54541V2.90913C2.54541 3.30913 2.87268 3.63641 3.27268 3.63641H8.36359C8.76359 3.63641 9.09086 3.30913 9.09086 2.90913V1.45459H6.54541Z" fill="#90A4AE"/>
<path d="M5.81832 0C5.01832 0 4.36377 0.654545 4.36377 1.45455C4.36377 2.25455 5.01832 2.90909 5.81832 2.90909C6.61832 2.90909 7.27286 2.25455 7.27286 1.45455C7.27286 0.654545 6.61832 0 5.81832 0ZM5.81832 2.18182C5.41832 2.18182 5.09104 1.85455 5.09104 1.45455C5.09104 1.05455 5.41832 0.727273 5.81832 0.727273C6.21832 0.727273 6.54559 1.05455 6.54559 1.45455C6.54559 1.85455 6.21832 2.18182 5.81832 2.18182Z" fill="#90A4AE"/>
<path d="M4.72723 7.27282H9.09086V8.00009H4.72723V7.27282ZM2.54541 6.90918H3.99996V8.36372H2.54541V6.90918Z" fill="#CFD8DC"/>
<path d="M4.72723 10.5455H9.09086V11.2728H4.72723V10.5455ZM2.54541 10.1819H3.99996V11.6364H2.54541V10.1819Z" fill="#03A9F4"/>
</g>
<defs>
<clipPath id="clip0_689_3893">
<rect width="11.6364" height="16" fill="white"/>
</clipPath>
</defs>
</svg>
