<svg width="9" height="14" viewBox="0 0 9 14" fill="none" xmlns="http://www.w3.org/2000/svg">
<path d="M4.4251 8.10522C4.81595 8.10522 5.19078 8.26049 5.46715 8.53686C5.74352 8.81323 5.89878 9.18806 5.89878 9.57891C5.89878 9.96975 5.74352 10.3446 5.46715 10.621C5.19078 10.8973 4.81595 11.0526 4.4251 11.0526C4.03425 11.0526 3.65942 10.8973 3.38305 10.621C3.10668 10.3446 2.95142 9.96975 2.95142 9.57891C2.95142 9.18806 3.10668 8.81323 3.38305 8.53686C3.65942 8.26049 4.03425 8.10522 4.4251 8.10522Z" fill="#F1B008"/>
<path fill-rule="evenodd" clip-rule="evenodd" d="M1.47773 1.47368C1.2823 1.47368 1.09489 1.39605 0.956701 1.25787C0.818516 1.11968 0.740884 0.932265 0.740884 0.736842C0.740884 0.541419 0.818516 0.354001 0.956701 0.215816C1.09489 0.0776313 1.2823 0 1.47773 0H7.37246C7.56788 0 7.7553 0.0776313 7.89349 0.215816C8.03167 0.354001 8.1093 0.541419 8.1093 0.736842C8.1093 0.932265 8.03167 1.11968 7.89349 1.25787C7.7553 1.39605 7.56788 1.47368 7.37246 1.47368H5.16194V5.21905C6.25251 5.40676 7.23309 5.9965 7.9101 6.87185C8.58711 7.74721 8.91135 8.84457 8.81882 9.9473C8.72628 11.05 8.2237 12.078 7.41027 12.8283C6.59685 13.5786 5.5317 13.9967 4.42509 14C3.31586 14.001 2.24677 13.585 1.42995 12.8345C0.613121 12.0841 0.108247 11.054 0.0154924 9.94864C-0.0772617 8.84329 0.248883 7.74345 0.929218 6.86736C1.60955 5.99126 2.59436 5.40291 3.68825 5.21905V1.47368H1.47773ZM4.42509 6.63158C5.20678 6.63158 5.95646 6.9421 6.5092 7.49484C7.06194 8.04758 7.37246 8.79726 7.37246 9.57895C7.37246 10.3606 7.06194 11.1103 6.5092 11.663C5.95646 12.2158 5.20678 12.5263 4.42509 12.5263C3.6434 12.5263 2.89373 12.2158 2.34099 11.663C1.78825 11.1103 1.47773 10.3606 1.47773 9.57895C1.47773 8.79726 1.78825 8.04758 2.34099 7.49484C2.89373 6.9421 3.6434 6.63158 4.42509 6.63158Z" fill="#606060"/>
</svg>
